            <!-- Generator: Adobe Illustrator 24.2.1, SVG Export Plug-In  -->
            <svg class="animated-bg" version="1.1" xmlns="http://www.w3.org/2000/svg" xmlns:xlink="http://www.w3.org/1999/xlink" x="0px" y="0px" width="1082.9px" height="1082.9px" viewbox="0 0 1082.9 1082.9" style="overflow:visible;enable-background:new 0 0 1082.9 1082.9;" xml:space="preserve" id="governance-bg">
              <style type="text/css">
                .st0 {}
              </style>
              <defs>
              </defs>
              <g>
                <polygon class="st0" points="374.4,583.2 345.1,570.7 332.6,541.5 320.2,570.7 290.9,583.2 320.2,595.7 332.6,625 344.7,596.2  " />
                <polygon class="st0" points="290.9,332.7 261.6,320.2 249.1,290.9 236.7,320.2 207.4,332.7 236.7,345.1 249.1,374.4 261.2,345.6
   " />
                <path class="st0" d="M1069.4,655.3l-26.9,11.5l22,9.4" />
                <path class="st0" d="M1081.4,548.3l-9.6,22.4l-29.3,12.5l29.3,12.5l5.5,12.8" />
                <polygon class="st0" points="332.6,374.4 344.7,345.6 374.4,332.7 345.1,320.2 332.6,290.9 320.2,320.2 290.9,332.7 320.2,345.1
   " />
                <polygon class="st0" points="416.2,374.4 428.2,345.6 457.9,332.7 428.6,320.2 416.2,290.9 403.7,320.2 374.4,332.7 403.7,345.1
   " />
                <path class="st0" d="M608.5,1077.3l-12.8-5.5l-12.5-29.3l-12.5,29.3l-22.4,9.6" />
                <path class="st0" d="M676.1,1064.5l-9.4-22l-11.5,26.9" />
                <polygon class="st0" points="499.7,374.4 511.7,345.6 541.4,332.7 512.2,320.2 499.7,290.9 487.2,320.2 457.9,332.7 487.2,345.1
   " />
                <path class="st0" d="M534.6,1081.4l-22.4-9.6l-12.5-29.3l-12.5,29.3l-12.8,5.5" />
                <path class="st0" d="M427.6,1069.4l-11.5-26.9l-9.4,22" />
                <polygon class="st0" points="290.9,666.7 261.6,654.3 249.1,625 236.7,654.3 207.4,666.7 236.7,679.2 249.1,708.5 261.2,679.7  " />
                <path class="st0" d="M474.4,5.6l12.8,5.5l12.5,29.3l12-28.8l23-10" />
                <path class="st0" d="M548.3,1.5l22.4,9.6l12.5,29.3l12-28.8l13.5-5.9" />
                <path class="st0" d="M406.8,18.4l9.4,22l11.2-26.8" />
                <polygon class="st0" points="290.9,750.3 261.6,737.8 249.1,708.5 236.7,737.8 207.4,750.3 236.7,762.7 249.1,792 261.2,763.2  " />
                <polygon class="st0" points="416.2,457.9 428.2,429.1 457.9,416.2 428.6,403.7 416.2,374.4 403.7,403.7 374.4,416.2 403.7,428.7
   " />
                <polygon class="st0" points="374.4,416.2 345.1,403.7 332.6,374.4 320.2,403.7 290.9,416.2 320.2,428.7 332.6,457.9 344.7,429.1
   " />
                <path class="st0" d="M1064.5,406.8l-22,9.4l26.9,11.5" />
                <polygon class="st0" points="374.4,499.7 345.1,487.2 332.6,457.9 320.2,487.2 290.9,499.7 320.2,512.2 332.6,541.5 344.7,512.6
   " />
                <polygon class="st0" points="290.9,416.2 261.6,403.7 249.1,374.4 236.7,403.7 207.4,416.2 236.7,428.7 249.1,457.9 261.2,429.1
   " />
                <path class="st0" d="M1077.3,474.4l-5.5,12.8l-29.3,12.5l29.3,12.5l9.6,22.4" />
                <polygon class="st0" points="290.9,499.7 261.6,487.2 249.1,457.9 236.7,487.2 207.4,499.7 236.7,512.2 249.1,541.5 261.2,512.6
   " />
                <polygon class="st0" points="290.9,583.2 261.6,570.7 249.1,541.5 236.7,570.7 207.4,583.2 236.7,595.7 249.1,625 261.2,596.2  " />
                <path class="st0" d="M655.3,13.5l11.5,26.9l9.2-22" />
                <polygon class="st0" points="583.2,457.9 595.3,429.1 625,416.2 595.7,403.7 583.2,374.4 570.7,403.7 541.4,416.2 570.7,428.7  " />
                <polygon class="st0" points="708.5,666.7 737.8,679.2 750.2,708.5 762.3,679.7 792,666.7 762.7,654.3 750.2,625 737.8,654.3  " />
                <polygon class="st0" points="499.7,457.9 511.7,429.1 541.4,416.2 512.2,403.7 499.7,374.4 487.2,403.7 457.9,416.2 487.2,428.7
   " />
                <polygon class="st0" points="416.2,708.5 403.7,737.8 374.4,750.3 403.7,762.7 416.2,792 428.2,763.2 457.9,750.3 428.6,737.8  " />
                <polygon class="st0" points="457.9,583.2 428.6,570.7 416.2,541.5 403.7,570.7 374.4,583.2 403.7,595.7 416.2,625 428.2,596.2  " />
                <polygon class="st0" points="708.5,583.2 737.8,595.7 750.2,625 762.3,596.2 792,583.2 762.7,570.7 750.2,541.5 737.8,570.7  " />
                <polygon class="st0" points="625,583.2 654.2,595.7 666.7,625 678.8,596.2 708.5,583.2 679.2,570.7 666.7,541.5 654.2,570.7  " />
                <polygon class="st0" points="416.2,625 403.7,654.3 374.4,666.7 403.7,679.2 416.2,708.5 428.2,679.7 457.9,666.7 428.6,654.3  " />
                <polygon class="st0" points="457.9,499.7 428.6,487.2 416.2,457.9 403.7,487.2 374.4,499.7 403.7,512.2 416.2,541.5 428.2,512.6
   " />
                <polygon class="st0" points="708.5,750.3 737.8,762.7 750.2,792 762.3,763.2 792,750.3 762.7,737.8 750.2,708.5 737.8,737.8  " />
                <polygon class="st0" points="499.7,625 487.2,654.3 457.9,666.7 487.2,679.2 499.7,708.5 511.7,679.7 541.4,666.7 512.2,654.3  " />
                <polygon class="st0" points="499.7,708.5 487.2,737.8 457.9,750.3 487.2,762.7 499.7,792 511.7,763.2 541.4,750.3 512.2,737.8  " />
                <polygon class="st0" points="499.7,541.5 511.7,512.6 541.4,499.7 512.2,487.2 499.7,457.9 487.2,487.2 457.9,499.7 487.2,512.2
   " />
                <polygon class="st0" points="583.2,708.5 570.7,737.8 541.4,750.3 570.7,762.7 583.2,792 595.3,763.2 625,750.3 595.7,737.8  " />
                <polygon class="st0" points="583.2,625 570.7,654.3 541.4,666.7 570.7,679.2 583.2,708.5 595.3,679.7 625,666.7 595.7,654.3  " />
                <polygon class="st0" points="625,666.7 654.2,679.2 666.7,708.5 678.8,679.7 708.5,666.7 679.2,654.3 666.7,625 654.2,654.3  " />
                <polygon class="st0" points="666.7,708.5 654.2,737.8 625,750.3 654.2,762.7 666.7,792 678.8,763.2 708.5,750.3 679.2,737.8  " />
                <polygon class="st0" points="666.7,374.4 678.8,345.6 708.5,332.7 679.2,320.2 666.7,290.9 654.2,320.2 625,332.7 654.2,345.1  " />
                <path class="st0" d="M1.5,534.5l9.1-21.8l29.7-12.9L11,487.2l-5.5-12.8" />
                <polygon class="st0" points="625,499.7 654.2,512.2 666.7,541.5 678.8,512.6 708.5,499.7 679.2,487.2 666.7,457.9 654.2,487.2  " />
                <path class="st0" d="M18.4,676.3l21.9-9.5l-26.9-11.5" />
                <path class="st0" d="M5.5,608.3l5.1-12.1l29.7-12.9L11,570.7l-9.6-22.4" />
                <polygon class="st0" points="666.7,457.9 678.8,429.1 708.5,416.2 679.2,403.7 666.7,374.4 654.2,403.7 625,416.2 654.2,428.7  " />
                <polygon class="st0" points="583.2,374.4 595.3,345.6 625,332.7 595.7,320.2 583.2,290.9 570.7,320.2 541.4,332.7 570.7,345.1  " />
                <path class="st0" d="M13.4,427.9l26.9-11.7l-22-9.4" />
                <polygon class="st0" points="374.4,666.7 345.1,654.3 332.6,625 320.2,654.3 290.9,666.7 320.2,679.2 332.6,708.5 344.7,679.7  " />
                <polygon class="st0" points="541.4,583.2 570.7,595.7 583.2,625 595.3,596.2 625,583.2 595.7,570.7 583.2,541.5 570.7,570.7  " />
                <polygon class="st0" points="583.2,541.5 595.3,512.6 625,499.7 595.7,487.2 583.2,457.9 570.7,487.2 541.4,499.7 570.7,512.2  " />
                <polygon class="st0" points="332.6,708.5 320.2,737.8 290.9,750.3 320.2,762.7 332.6,792 344.7,763.2 374.4,750.3 345.1,737.8  " />
                <polygon class="st0" points="708.5,499.7 737.8,512.2 750.2,541.5 762.3,512.6 792,499.7 762.7,487.2 750.2,457.9 737.8,487.2  " />
                <polygon class="st0" points="499.7,541.5 487.2,570.7 457.9,583.2 487.2,595.7 499.7,625 511.7,596.2 541.4,583.2 512.2,570.7  " />
                <polygon class="st0" points="708.5,416.2 737.8,428.7 750.2,457.9 762.3,429.1 792,416.2 762.7,403.7 750.2,374.4 737.8,403.7  " />
                <polygon class="st0" points="750.2,374.4 762.3,345.6 792,332.7 762.7,320.2 750.2,290.9 737.8,320.2 708.5,332.7 737.8,345.1  " />
                <polygon class="st0" points="583.2,123.9 595.3,95 625,82.1 595.7,69.6 583.2,40.3 570.7,69.6 541.4,82.1 570.7,94.6   " />
                <path class="st0" d="M332.6,959l-12.5,29.3l-29.3,12.5l29.3,12.5l10.9,25.7c0.9,0.4,1.7,0.7,2.6,1.1l11-26.3l29.7-12.9l-29.3-12.5
   L332.6,959z" />
                <path class="st0" d="M271.5,1009.2l19.4-8.4l-29.3-12.5L249.1,959L237,987.5" />
                <polygon class="st0" points="290.9,917.3 261.6,904.8 249.1,875.5 236.7,904.8 207.4,917.3 236.7,929.8 249.1,959 261.2,930.2  " />
                <path class="st0" d="M174.6,937.7l3.1-7.4l29.7-12.9l-29.3-12.5l-12.5-29.3l-12.5,29.3l-8,3.4" />
                <polygon class="st0" points="207.4,833.8 178.1,821.3 165.6,792 153.1,821.3 123.8,833.8 153.1,846.2 165.6,875.5 177.7,846.7  " />
                <polygon class="st0" points="666.7,959 654.2,988.3 625,1000.8 654.2,1013.3 666.7,1042.6 678.8,1013.8 708.5,1000.8 679.2,988.3
   " />
                <path class="st0" d="M845.9,987.5l-12.1-28.5l-12.5,29.3l-29.3,12.5l19.5,8.3" />
                <path class="st0" d="M750.2,959l-12.5,29.3l-29.3,12.5l29.3,12.5l11.4,26.8c0.9-0.4,1.7-0.7,2.6-1.1l10.5-25.2l29.7-12.9
   l-29.3-12.5L750.2,959z" />
                <path class="st0" d="M95.5,846.1l28.3-12.3l-29.3-12.5L82.1,792l-8.3,19.5" />
                <polygon class="st0" points="499.7,959 487.2,988.3 457.9,1000.8 487.2,1013.3 499.7,1042.6 511.7,1013.8 541.4,1000.8
   512.2,988.3   " />
                <polygon class="st0" points="583.2,959 570.7,988.3 541.4,1000.8 570.7,1013.3 583.2,1042.6 595.3,1013.8 625,1000.8 595.7,988.3
   " />
                <polygon class="st0" points="416.2,959 403.7,988.3 374.4,1000.8 403.7,1013.3 416.2,1042.6 428.2,1013.8 457.9,1000.8
   428.6,988.3   " />
                <path class="st0" d="M123.8,332.7l-29.3-12.5l-12.5-29.3l-12.5,29.3l-25.7,10.9c-0.4,0.9-0.7,1.7-1.1,2.6l26.8,11.4l12.5,29.3
   l12.1-28.8L123.8,332.7z" />
                <polygon class="st0" points="165.6,290.9 177.7,262.1 207.4,249.1 178.1,236.7 165.6,207.4 153.1,236.7 123.8,249.1 153.1,261.6
   " />
                <path class="st0" d="M73.8,271.3l8.3,19.5l12.1-28.8l29.7-12.9L95.4,237" />
                <path class="st0" d="M145.1,174.7l8,3.4l12.5,29.3l12-28.8l29.7-12.9l-29.3-12.5l-3.4-8" />
                <path class="st0" d="M123.8,750.3l-29.3-12.5l-12.5-29.3l-12.5,29.3l-26.8,11.4c0.4,0.9,0.7,1.8,1.1,2.6l25.7,10.9L82.1,792
   l12.1-28.8L123.8,750.3z" />
                <polygon class="st0" points="249.1,207.4 261.2,178.6 290.9,165.6 261.6,153.1 249.1,123.9 236.7,153.1 207.4,165.6 236.7,178.1
   " />
                <polygon class="st0" points="123.8,416.2 94.6,403.7 82.1,374.4 69.6,403.7 40.3,416.2 69.6,428.7 82.1,457.9 94.1,429.1   " />
                <polygon class="st0" points="123.8,666.7 94.6,654.3 82.1,625 69.6,654.3 40.3,666.7 69.6,679.2 82.1,708.5 94.1,679.7   " />
                <polygon class="st0" points="123.8,583.2 94.6,570.7 82.1,541.5 69.6,570.7 40.3,583.2 69.6,595.7 82.1,625 94.1,596.2   " />
                <polygon class="st0" points="123.8,499.7 94.6,487.2 82.1,457.9 69.6,487.2 40.3,499.7 69.6,512.2 82.1,541.5 94.1,512.6   " />
                <polygon class="st0" points="833.8,875.5 821.3,904.8 792,917.3 821.3,929.8 833.8,959 845.8,930.2 875.5,917.3 846.2,904.8  " />
                <path class="st0" d="M750.2,123.9l12-28.8L792,82.1l-29.3-12.5l-10.9-25.7c-0.9-0.4-1.7-0.7-2.6-1.1l-11.4,26.8l-29.3,12.5
   l29.3,12.5L750.2,123.9z" />
                <path class="st0" d="M811.6,73.8L792,82.1l29.3,12.5l12.5,29.3l12-28.6" />
                <polygon class="st0" points="792,165.6 821.3,178.1 833.8,207.4 845.8,178.6 875.5,165.6 846.2,153.1 833.8,123.9 821.3,153.1  " />
                <polygon class="st0" points="666.7,123.9 678.8,95 708.5,82.1 679.2,69.6 666.7,40.3 654.2,69.6 625,82.1 654.2,94.6   " />
                <path class="st0" d="M908.2,145.1l-3.4,8l-29.3,12.5l29.3,12.5l12.5,29.3l12.1-28.8l8.6-3.7" />
                <path class="st0" d="M237,95.4l12.1,28.4l12-28.8l29.7-12.9l-19.5-8.3" />
                <path class="st0" d="M332.6,123.9l12-28.8l29.7-12.9l-29.3-12.5l-11.4-26.8c-0.9,0.4-1.8,0.7-2.6,1.1l-10.9,25.7l-29.3,12.5
   l29.3,12.5L332.6,123.9z" />
                <polygon class="st0" points="332.6,207.4 344.7,178.6 374.4,165.6 345.1,153.1 332.6,123.9 320.2,153.1 290.9,165.6 320.2,178.1
   " />
                <polygon class="st0" points="875.5,249.1 904.8,261.6 917.3,290.9 929.3,262.1 959,249.1 929.8,236.7 917.3,207.4 904.8,236.7  " />
                <polygon class="st0" points="416.2,123.9 428.2,95 457.9,82.1 428.6,69.6 416.2,40.3 403.7,69.6 374.4,82.1 403.7,94.6   " />
                <polygon class="st0" points="499.7,123.9 511.7,95 541.4,82.1 512.2,69.6 499.7,40.3 487.2,69.6 457.9,82.1 487.2,94.6   " />
                <path class="st0" d="M959,750.3l29.3,12.5l12.5,29.3l12.1-28.8l26.1-11.4c0.4-0.9,0.7-1.8,1.1-2.7l-26.8-11.4l-12.5-29.3
   l-12.5,29.3L959,750.3z" />
                <path class="st0" d="M1009.1,811.6l-8.3-19.5l-12.5,29.3L959,833.8l28.4,12.1" />
                <path class="st0" d="M987.5,237L959,249.1l29.3,12.5l12.5,29.3l8.2-19.7" />
                <path class="st0" d="M937.8,908.2l-8-3.4l-12.5-29.3l-12.5,29.3l-29.3,12.5l29.3,12.5l3.4,8" />
                <polygon class="st0" points="917.3,792 904.8,821.3 875.5,833.8 904.8,846.2 917.3,875.5 929.3,846.7 959,833.8 929.8,821.3  " />
                <polygon class="st0" points="959,666.7 988.3,679.2 1000.8,708.5 1012.9,679.7 1042.6,666.7 1013.3,654.3 1000.8,625 988.3,654.3
   " />
                <path class="st0" d="M959,332.7l29.3,12.5l12.5,29.3l12.1-28.8l27.2-11.9c-0.4-0.9-0.7-1.8-1.1-2.6l-25.7-10.9l-12.5-29.3
   l-12.5,29.3L959,332.7z" />
                <polygon class="st0" points="959,583.2 988.3,595.7 1000.8,625 1012.9,596.2 1042.6,583.2 1013.3,570.7 1000.8,541.5 988.3,570.7
   " />
                <polygon class="st0" points="959,416.2 988.3,428.7 1000.8,457.9 1012.9,429.1 1042.6,416.2 1013.3,403.7 1000.8,374.4
   988.3,403.7   " />
                <polygon class="st0" points="959,499.7 988.3,512.2 1000.8,541.5 1012.9,512.6 1042.6,499.7 1013.3,487.2 1000.8,457.9
   988.3,487.2   " />
                <polygon class="st0" points="332.6,290.9 344.7,262.1 374.4,249.1 345.1,236.7 332.6,207.4 320.2,236.7 290.9,249.1 320.2,261.6
   " />
                <polygon class="st0" points="416.2,290.9 428.2,262.1 457.9,249.1 428.6,236.7 416.2,207.4 403.7,236.7 374.4,249.1 403.7,261.6
   " />
                <polygon class="st0" points="583.2,290.9 595.3,262.1 625,249.1 595.7,236.7 583.2,207.4 570.7,236.7 541.4,249.1 570.7,261.6  " />
                <polygon class="st0" points="499.7,290.9 511.7,262.1 541.4,249.1 512.2,236.7 499.7,207.4 487.2,236.7 457.9,249.1 487.2,261.6
   " />
                <polygon class="st0" points="750.2,290.9 762.3,262.1 792,249.1 762.7,236.7 750.2,207.4 737.8,236.7 708.5,249.1 737.8,261.6  " />
                <polygon class="st0" points="416.2,207.4 428.2,178.6 457.9,165.6 428.6,153.1 416.2,123.9 403.7,153.1 374.4,165.6 403.7,178.1
   " />
                <polygon class="st0" points="207.4,499.7 178.1,487.2 165.6,457.9 153.1,487.2 123.8,499.7 153.1,512.2 165.6,541.5 177.7,512.6
   " />
                <polygon class="st0" points="792,332.7 821.3,345.1 833.8,374.4 845.8,345.6 875.5,332.7 846.2,320.2 833.8,290.9 821.3,320.2  " />
                <polygon class="st0" points="207.4,583.2 178.1,570.7 165.6,541.5 153.1,570.7 123.8,583.2 153.1,595.7 165.6,625 177.7,596.2  " />
                <polygon class="st0" points="207.4,416.2 178.1,403.7 165.6,374.4 153.1,403.7 123.8,416.2 153.1,428.7 165.6,457.9 177.7,429.1
   " />
                <polygon class="st0" points="207.4,332.7 178.1,320.2 165.6,290.9 153.1,320.2 123.8,332.7 153.1,345.1 165.6,374.4 177.7,345.6
   " />
                <polygon class="st0" points="249.1,290.9 261.2,262.1 290.9,249.1 261.6,236.7 249.1,207.4 236.7,236.7 207.4,249.1 236.7,261.6
   " />
                <polygon class="st0" points="332.6,792 320.2,821.3 290.9,833.8 320.2,846.2 332.6,875.5 344.7,846.7 374.4,833.8 345.1,821.3  " />
                <polygon class="st0" points="750.2,792 737.8,821.3 708.5,833.8 737.8,846.2 750.2,875.5 762.3,846.7 792,833.8 762.7,821.3  " />
                <polygon class="st0" points="666.7,792 654.2,821.3 625,833.8 654.2,846.2 666.7,875.5 678.8,846.7 708.5,833.8 679.2,821.3  " />
                <polygon class="st0" points="583.2,792 570.7,821.3 541.4,833.8 570.7,846.2 583.2,875.5 595.3,846.7 625,833.8 595.7,821.3  " />
                <polygon class="st0" points="792,416.2 821.3,428.7 833.8,457.9 845.8,429.1 875.5,416.2 846.2,403.7 833.8,374.4 821.3,403.7  " />
                <polygon class="st0" points="416.2,792 403.7,821.3 374.4,833.8 403.7,846.2 416.2,875.5 428.2,846.7 457.9,833.8 428.6,821.3  " />
                <polygon class="st0" points="499.7,792 487.2,821.3 457.9,833.8 487.2,846.2 499.7,875.5 511.7,846.7 541.4,833.8 512.2,821.3  " />
                <polygon class="st0" points="792,750.3 821.3,762.7 833.8,792 845.8,763.2 875.5,750.3 846.2,737.8 833.8,708.5 821.3,737.8  " />
                <polygon class="st0" points="792,583.2 821.3,595.7 833.8,625 845.8,596.2 875.5,583.2 846.2,570.7 833.8,541.5 821.3,570.7  " />
                <polygon class="st0" points="792,499.7 821.3,512.2 833.8,541.5 845.8,512.6 875.5,499.7 846.2,487.2 833.8,457.9 821.3,487.2  " />
                <polygon class="st0" points="792,666.7 821.3,679.2 833.8,708.5 845.8,679.7 875.5,666.7 846.2,654.3 833.8,625 821.3,654.3  " />
                <polygon class="st0" points="666.7,290.9 678.8,262.1 708.5,249.1 679.2,236.7 666.7,207.4 654.2,236.7 625,249.1 654.2,261.6  " />
                <polygon class="st0" points="875.5,332.7 904.8,345.1 917.3,374.4 929.3,345.6 959,332.7 929.8,320.2 917.3,290.9 904.8,320.2  " />
                <polygon class="st0" points="875.5,416.2 904.8,428.7 917.3,457.9 929.3,429.1 959,416.2 929.8,403.7 917.3,374.4 904.8,403.7  " />
                <polygon class="st0" points="875.5,499.7 904.8,512.2 917.3,541.5 929.3,512.6 959,499.7 929.8,487.2 917.3,457.9 904.8,487.2  " />
                <polygon class="st0" points="792,249.1 821.3,261.6 833.8,290.9 845.8,262.1 875.5,249.1 846.2,236.7 833.8,207.4 821.3,236.7  " />
                <polygon class="st0" points="875.5,583.2 904.8,595.7 917.3,625 929.3,596.2 959,583.2 929.8,570.7 917.3,541.5 904.8,570.7  " />
                <polygon class="st0" points="583.2,207.4 595.3,178.6 625,165.6 595.7,153.1 583.2,123.9 570.7,153.1 541.4,165.6 570.7,178.1  " />
                <polygon class="st0" points="499.7,207.4 511.7,178.6 541.4,165.6 512.2,153.1 499.7,123.9 487.2,153.1 457.9,165.6 487.2,178.1
   " />
                <polygon class="st0" points="875.5,666.7 904.8,679.2 917.3,708.5 929.3,679.7 959,666.7 929.8,654.3 917.3,625 904.8,654.3  " />
                <polygon class="st0" points="750.2,207.4 762.3,178.6 792,165.6 762.7,153.1 750.2,123.9 737.8,153.1 708.5,165.6 737.8,178.1  " />
                <polygon class="st0" points="666.7,207.4 678.8,178.6 708.5,165.6 679.2,153.1 666.7,123.9 654.2,153.1 625,165.6 654.2,178.1  " />
                <polygon class="st0" points="666.7,875.5 654.2,904.8 625,917.3 654.2,929.8 666.7,959 678.8,930.2 708.5,917.3 679.2,904.8  " />
                <polygon class="st0" points="875.5,750.3 904.8,762.7 917.3,792 929.3,763.2 959,750.3 929.8,737.8 917.3,708.5 904.8,737.8  " />
                <polygon class="st0" points="416.2,875.5 403.7,904.8 374.4,917.3 403.7,929.8 416.2,959 428.2,930.2 457.9,917.3 428.6,904.8  " />
                <polygon class="st0" points="499.7,875.5 487.2,904.8 457.9,917.3 487.2,929.8 499.7,959 511.7,930.2 541.4,917.3 512.2,904.8  " />
                <polygon class="st0" points="207.4,750.3 178.1,737.8 165.6,708.5 153.1,737.8 123.8,750.3 153.1,762.7 165.6,792 177.7,763.2  " />
                <polygon class="st0" points="290.9,833.8 261.6,821.3 249.1,792 236.7,821.3 207.4,833.8 236.7,846.2 249.1,875.5 261.2,846.7  " />
                <polygon class="st0" points="332.6,875.5 320.2,904.8 290.9,917.3 320.2,929.8 332.6,959 344.7,930.2 374.4,917.3 345.1,904.8  " />
                <polygon class="st0" points="583.2,875.5 570.7,904.8 541.4,917.3 570.7,929.8 583.2,959 595.3,930.2 625,917.3 595.7,904.8  " />
                <polygon class="st0" points="833.8,792 821.3,821.3 792,833.8 821.3,846.2 833.8,875.5 845.8,846.7 875.5,833.8 846.2,821.3  " />
                <polygon class="st0" points="750.2,875.5 737.8,904.8 708.5,917.3 737.8,929.8 750.2,959 762.3,930.2 792,917.3 762.7,904.8  " />
                <polygon class="st0" points="207.4,666.7 178.1,654.3 165.6,625 153.1,654.3 123.8,666.7 153.1,679.2 165.6,708.5 177.7,679.7  " />
              </g>
            </svg>