          <!-- Generator: Adobe Illustrator 24.2.1, SVG Export Plug-In  -->
          <svg class="animated-bg" version="1.1" xmlns="http://www.w3.org/2000/svg" xmlns:xlink="http://www.w3.org/1999/xlink" x="0px" y="0px" width="583.8px" height="643.3px" viewbox="0 0 583.8 643.3" style="overflow:visible;enable-background:new 0 0 583.8 643.3;" xml:space="preserve" id="overview-illustration">
            <style type="text/css">
              <!-- .st0 {
                fill: none;
                stroke: #FFFFFF;
                stroke-width: 1.1858;
                stroke-miterlimit: 10;
              }

              .st1 {
                fill: none;
                stroke: #FFFFFF;
                stroke-width: 1.7788;
                stroke-miterlimit: 10;
              }

              .st2 {
                fill: none;
                stroke: #FFFFFF;
                stroke-width: 1.1858;
                stroke-linecap: round;
                stroke-miterlimit: 10;
              } -->
            </style>
            <defs>
            </defs>
            <polygon class="st0" points="554.8,248.9 488.4,339.5 506.3,339.5 572.6,248.9 " />
            <g>
              <path class="st0" d="M501.9,321.1l12.3-16.8c-1.8-2.9-2.9-6.4-2.9-10.1c0-10.6,8.6-19.2,19.2-19.2c1.6,0,3.2,0.2,4.7,0.6l10.2-14
          		c-4.8-1.3-9.8-2-14.9-2c-23.6,0-43.8,14.2-52.7,34.5C482.8,305.5,491.3,314.9,501.9,321.1z" />
              <path class="st0" d="M559.1,267.3l-12.3,16.8c1.8,2.9,2.9,6.4,2.9,10.1c0,10.6-8.6,19.2-19.2,19.2c-1.6,0-3.2-0.2-4.7-0.6l-10.2,14
          		c4.8,1.3,9.8,2,14.9,2c23.6,0,43.8-14.2,52.7-34.5C578.3,282.8,569.8,273.4,559.1,267.3z" />
            </g>
            <g>
              <path class="st0" d="M297.9,629.6v-69.7h9.2l19.5-33.9l-19.5-33.9H263L243.4,526l19.5,33.9h9.2v24.8l6.5,6.5l-6.5,6.5v6.5l6.5,6.5
          		v6.5l-6.5,6.5v6.2l0,0l12.9,12.9L297.9,629.6z M285,517.6c-2.2,0-4.2-0.8-5.7-2.4c-1.9-1.9-2.7-4.5-2.2-7.2
          		c0.6-3.3,3.2-5.9,6.5-6.5c2.7-0.5,5.3,0.4,7.2,2.2c1.5,1.5,2.4,3.6,2.4,5.7s-0.8,4.2-2.4,5.7C289.2,516.8,287.2,517.6,285,517.6z" />
              <polygon class="st0" points="259.8,526 271.2,545.7 298.9,545.7 310.2,526 	" />
            </g>
            <g>
              <path class="st0" d="M340.2,87.2c14.3,0,25.9-11.6,25.9-25.9h-51.7C314.3,75.6,325.9,87.2,340.2,87.2z" />
              <path class="st0" d="M229.9,87.2c14.3,0,25.9-11.6,25.9-25.9H204C204,75.6,215.6,87.2,229.9,87.2z" />
              <polygon class="st0" points="292.2,45.4 277.8,45.4 277.8,81.4 253.1,106.2 317,106.2 292.2,81.4 	" />
              <polygon class="st0" points="340.2,45.7 349.1,61.3 365.2,61.3 365.6,61.1 340.2,16.7 340.1,16.8 301,16.8 285,0.8 269,16.8
          		229.9,16.8 229.9,16.7 204.4,61.1 204.9,61.3 220.9,61.3 229.9,45.7 238.8,61.3 254.9,61.3 255.3,61.1 238.2,31.2 331.9,31.2
          		314.8,61.1 315.2,61.3 331.2,61.3 	" />
            </g>
            <path class="st1" d="M345.3,175H224.7l-48.6,48.6v104.7c0,60,48.8,108.8,108.8,108.8s108.9-48.8,108.9-108.9V223.5L345.3,175z" />
            <path class="st1" d="M366.8,328.2c0,45.2-36.6,81.8-81.8,81.8c-45.2,0-81.8-36.6-81.8-81.8v-93.5l0,0L236,202h98.1v32.7h32.7V328.2z
          	" />
            <path class="st1" d="M307.5,301.9c-4.6-5.4-9.5-8.2-9.5-10.7c0-4.7,11.5-7.7,11.5-23.7c0-13.5-11-24.5-24.5-24.5
          	c-13.5,0-24.5,11-24.5,24.5c0,16,11.5,19,11.5,23.7c0,2.5-4.9,5.3-9.5,10.7c-5,5.5-8.1,12.8-8.1,20.8v34h61.3v-34
          	C315.7,314.7,312.6,307.4,307.5,301.9z" />
            <g>
              <rect x="0.6" y="276" class="st0" width="75.8" height="72" />
              <path class="st0" d="M24.4,276v-7.2c0-7.8,6.3-14.1,14.1-14.1s14.1,6.3,14.1,14.1v7.2H67v-7.2c0-15.7-12.8-28.5-28.5-28.5
          		S10,253.1,10,268.8v7.2H24.4z" />
              <path class="st0" d="M47.9,303.3c0-2.5-1-4.9-2.8-6.7s-4.1-2.8-6.7-2.8c-3.1,0-5.9,1.5-7.8,4.1c-2.2,3.2-2.2,7.5,0,10.7
          		c0.2,0.3,0.5,0.6,0.7,0.9v15.8h14.1v-15.9C47.1,307.8,47.9,305.6,47.9,303.3z" />
            </g>
            <path class="st2" d="M512.5,204.9c-20.2-49.5-56-90.9-101.4-118.1" />
            <path class="st2" d="M381,523.5C440.5,498.1,488,450,512.4,390" />
            <path class="st2" d="M57.6,390C82,450,129.5,498.2,189,523.5" />
            <path class="st2" d="M159,86.8C113.6,114,77.8,155.4,57.6,204.9" />
          </svg>