            <!-- Generator: Adobe Illustrator 24.2.1, SVG Export Plug-In  -->
            <svg class="animated-bg" version="1.1" xmlns="http://www.w3.org/2000/svg" xmlns:xlink="http://www.w3.org/1999/xlink" x="0px" y="0px" width="568.6px" height="595.5px" viewbox="0 0 568.6 595.5" style="overflow:visible;enable-background:new 0 0 568.6 595.5;" xml:space="preserve" id="ownership-bg">
              <style type="text/css">
                .st0 {}
              </style>
              <defs>
              </defs>
              <path class="st0" d="M252.9,593.9V221.5c0-17.3,14-31.3,31.4-31.4c17.3,0,31.4,14,31.4,31.4v372.3" />
              <line class="st0" x1="284.3" y1="595.5" x2="284.3" y2="221.5" />
              <path class="st0" d="M221.6,588.9V221.5c0-34.6,28.1-62.7,62.7-62.8c34.6,0,62.7,28.1,62.8,62.8v367.4" />
              <path class="st0" d="M190.2,580.4V221.5c0.1-52,42.2-94.1,94.1-94.1c52,0,94.1,42.2,94.1,94.1v358.8" />
              <path class="st0" d="M158.8,568V221.5C158.9,152.3,215,96.1,284.3,96c69.3,0.1,125.4,56.2,125.5,125.5V568" />
              <path class="st0" d="M127.4,551.1V221.5c0-86.6,70.2-156.9,156.9-156.9s156.9,70.2,156.9,156.9v329.5" />
              <path class="st0" d="M96.1,528.8V221.5c0-103.8,84.5-188.2,188.2-188.2s188.2,84.5,188.2,188.2v307.2" />
              <path class="st0" d="M64.7,499.4V221.5c0-121.1,98.5-219.6,219.6-219.6s219.6,98.5,219.6,219.6v277.8" />
              <path class="st0" d="M493.3,82.7c26.6,39.8,42,87.6,42,138.9V459" />
              <path class="st0" d="M33.3,459V221.5c0-51.3,15.5-99.1,42-138.9" />
              <path class="st0" d="M1.9,395V221.5c0-9.2,0.4-18.3,1.3-27.3" />
              <path class="st0" d="M565.4,194.3c0.9,9,1.3,18.1,1.3,27.3V395" />
            </svg>