<!-- Generator: Adobe Illustrator 24.2.1, SVG Export Plug-In  -->
            <svg class="animated-bg" version="1.1" xmlns="http://www.w3.org/2000/svg" xmlns:xlink="http://www.w3.org/1999/xlink" x="0px" y="0px" width="1081px" height="1080px" viewbox="0 0 1081 1080" style="overflow:visible;enable-background:new 0 0 1081 1080;" xml:space="preserve" id="privacy-bg">
              <style type="text/css">
                .st0 {}
              </style>
              <defs>
              </defs>
              <line class="st0" x1="322.6" y1="45.8" x2="758.4" y2="45.8" />
              <line class="st0" x1="741.3" y1="38.6" x2="741.3" y2="45.8" />
              <line class="st0" x1="580.7" y1="1.5" x2="580.7" y2="45.8" />
              <line class="st0" x1="420" y1="13.5" x2="420" y2="45.8" />
              <line class="st0" x1="211.6" y1="111.7" x2="869.4" y2="111.7" />
              <line class="st0" x1="821.6" y1="78.7" x2="821.6" y2="111.7" />
              <line class="st0" x1="661" y1="45.8" x2="661" y2="111.7" />
              <line class="st0" x1="500.3" y1="45.8" x2="500.3" y2="111.7" />
              <line class="st0" x1="339.7" y1="45.8" x2="339.7" y2="111.7" />
              <line class="st0" x1="140.2" y1="177.6" x2="940.8" y2="177.6" />
              <line class="st0" x1="901.9" y1="138.8" x2="901.9" y2="177.6" />
              <line class="st0" x1="741.3" y1="111.7" x2="741.3" y2="177.6" />
              <line class="st0" x1="580.7" y1="111.7" x2="580.7" y2="177.6" />
              <line class="st0" x1="420" y1="111.7" x2="420" y2="177.6" />
              <line class="st0" x1="259.4" y1="111.7" x2="259.4" y2="177.6" />
              <line class="st0" x1="89.1" y1="243.5" x2="991.9" y2="243.5" />
              <line class="st0" x1="982.2" y1="229.3" x2="982.2" y2="243.5" />
              <line class="st0" x1="821.6" y1="177.6" x2="821.6" y2="243.5" />
              <line class="st0" x1="661" y1="177.6" x2="661" y2="243.5" />
              <line class="st0" x1="500.3" y1="177.6" x2="500.3" y2="243.5" />
              <line class="st0" x1="339.7" y1="177.6" x2="339.7" y2="243.5" />
              <line class="st0" x1="179.1" y1="177.6" x2="179.1" y2="243.5" />
              <line class="st0" x1="52.1" y1="309.4" x2="1028.9" y2="309.4" />
              <line class="st0" x1="901.9" y1="243.5" x2="901.9" y2="309.4" />
              <line class="st0" x1="741.3" y1="243.5" x2="741.3" y2="309.4" />
              <line class="st0" x1="580.7" y1="243.5" x2="580.7" y2="309.4" />
              <line class="st0" x1="420" y1="243.5" x2="420" y2="309.4" />
              <line class="st0" x1="259.4" y1="243.5" x2="259.4" y2="309.4" />
              <line class="st0" x1="98.8" y1="243.5" x2="98.8" y2="309.4" />
              <line class="st0" x1="26.1" y1="375.3" x2="1054.9" y2="375.3" />
              <line class="st0" x1="982.2" y1="309.4" x2="982.2" y2="375.3" />
              <line class="st0" x1="821.6" y1="309.4" x2="821.6" y2="375.3" />
              <line class="st0" x1="661" y1="309.4" x2="661" y2="375.3" />
              <line class="st0" x1="500.3" y1="309.4" x2="500.3" y2="375.3" />
              <line class="st0" x1="339.7" y1="309.4" x2="339.7" y2="375.3" />
              <line class="st0" x1="179.1" y1="309.4" x2="179.1" y2="375.3" />
              <line class="st0" x1="9.5" y1="441.2" x2="1071.5" y2="441.2" />
              <line class="st0" x1="1062.5" y1="401.3" x2="1062.5" y2="441.2" />
              <line class="st0" x1="901.9" y1="375.3" x2="901.9" y2="441.2" />
              <line class="st0" x1="741.3" y1="375.3" x2="741.3" y2="441.2" />
              <line class="st0" x1="580.7" y1="375.3" x2="580.7" y2="441.2" />
              <line class="st0" x1="420" y1="375.3" x2="420" y2="441.2" />
              <line class="st0" x1="259.4" y1="375.3" x2="259.4" y2="441.2" />
              <line class="st0" x1="98.8" y1="375.3" x2="98.8" y2="441.2" />
              <line class="st0" x1="1.5" y1="507.1" x2="1079.5" y2="507.1" />
              <line class="st0" x1="982.2" y1="441.2" x2="982.2" y2="507.1" />
              <line class="st0" x1="821.6" y1="441.2" x2="821.6" y2="507.1" />
              <line class="st0" x1="661" y1="441.2" x2="661" y2="507.1" />
              <line class="st0" x1="500.3" y1="441.2" x2="500.3" y2="507.1" />
              <line class="st0" x1="339.7" y1="441.2" x2="339.7" y2="507.1" />
              <line class="st0" x1="179.1" y1="441.2" x2="179.1" y2="507.1" />
              <line class="st0" x1="18.5" y1="441.2" x2="18.5" y2="507.1" />
              <line class="st0" x1="1.5" y1="573" x2="1079.5" y2="573" />
              <line class="st0" x1="1062.5" y1="507.1" x2="1062.5" y2="573" />
              <line class="st0" x1="901.9" y1="507.1" x2="901.9" y2="573" />
              <line class="st0" x1="741.3" y1="507.1" x2="741.3" y2="573" />
              <line class="st0" x1="580.7" y1="507.1" x2="580.7" y2="573" />
              <line class="st0" x1="420" y1="507.1" x2="420" y2="573" />
              <line class="st0" x1="259.4" y1="507.1" x2="259.4" y2="573" />
              <line class="st0" x1="98.8" y1="507.1" x2="98.8" y2="573" />
              <line class="st0" x1="9.5" y1="638.9" x2="1071.5" y2="638.9" />
              <line class="st0" x1="982.2" y1="573" x2="982.2" y2="638.9" />
              <line class="st0" x1="821.6" y1="573" x2="821.6" y2="638.9" />
              <line class="st0" x1="661" y1="573" x2="661" y2="638.9" />
              <line class="st0" x1="500.3" y1="573" x2="500.3" y2="638.9" />
              <line class="st0" x1="339.7" y1="573" x2="339.7" y2="638.9" />
              <line class="st0" x1="179.1" y1="573" x2="179.1" y2="638.9" />
              <line class="st0" x1="18.5" y1="573" x2="18.5" y2="638.9" />
              <line class="st0" x1="26.1" y1="704.8" x2="1054.9" y2="704.8" />
              <line class="st0" x1="1062.5" y1="638.9" x2="1062.5" y2="678.7" />
              <line class="st0" x1="901.9" y1="638.9" x2="901.9" y2="704.8" />
              <line class="st0" x1="741.3" y1="638.9" x2="741.3" y2="704.8" />
              <line class="st0" x1="580.7" y1="638.9" x2="580.7" y2="704.8" />
              <line class="st0" x1="420" y1="638.9" x2="420" y2="704.8" />
              <line class="st0" x1="259.4" y1="638.9" x2="259.4" y2="704.8" />
              <line class="st0" x1="98.8" y1="638.9" x2="98.8" y2="704.8" />
              <line class="st0" x1="52.1" y1="770.7" x2="1028.9" y2="770.7" />
              <line class="st0" x1="982.2" y1="704.8" x2="982.2" y2="770.7" />
              <line class="st0" x1="821.6" y1="704.8" x2="821.6" y2="770.7" />
              <line class="st0" x1="661" y1="704.8" x2="661" y2="770.7" />
              <line class="st0" x1="500.3" y1="704.8" x2="500.3" y2="770.7" />
              <line class="st0" x1="339.7" y1="704.8" x2="339.7" y2="770.7" />
              <line class="st0" x1="179.1" y1="704.8" x2="179.1" y2="770.7" />
              <line class="st0" x1="89.1" y1="836.6" x2="991.9" y2="836.6" />
              <line class="st0" x1="901.9" y1="770.7" x2="901.9" y2="836.6" />
              <line class="st0" x1="741.3" y1="770.7" x2="741.3" y2="836.6" />
              <line class="st0" x1="580.7" y1="770.7" x2="580.7" y2="836.6" />
              <line class="st0" x1="420" y1="770.7" x2="420" y2="836.6" />
              <line class="st0" x1="259.4" y1="770.7" x2="259.4" y2="836.6" />
              <line class="st0" x1="98.8" y1="770.7" x2="98.8" y2="836.6" />
              <line class="st0" x1="140.2" y1="902.5" x2="940.8" y2="902.5" />
              <line class="st0" x1="982.2" y1="836.6" x2="982.2" y2="850.7" />
              <line class="st0" x1="821.6" y1="836.6" x2="821.6" y2="902.5" />
              <line class="st0" x1="661" y1="836.6" x2="661" y2="902.5" />
              <line class="st0" x1="500.3" y1="836.6" x2="500.3" y2="902.5" />
              <line class="st0" x1="339.7" y1="836.6" x2="339.7" y2="902.5" />
              <line class="st0" x1="179.1" y1="836.6" x2="179.1" y2="902.5" />
              <line class="st0" x1="211.6" y1="968.4" x2="869.4" y2="968.4" />
              <line class="st0" x1="901.9" y1="902.5" x2="901.9" y2="941.2" />
              <line class="st0" x1="741.3" y1="902.5" x2="741.3" y2="968.4" />
              <line class="st0" x1="580.7" y1="902.5" x2="580.7" y2="968.4" />
              <line class="st0" x1="420" y1="902.5" x2="420" y2="968.4" />
              <line class="st0" x1="259.4" y1="902.5" x2="259.4" y2="968.4" />
              <line class="st0" x1="322.6" y1="1034.3" x2="758.4" y2="1034.3" />
              <line class="st0" x1="821.6" y1="968.4" x2="821.6" y2="1001.3" />
              <line class="st0" x1="661" y1="968.4" x2="661" y2="1034.3" />
              <line class="st0" x1="500.3" y1="968.4" x2="500.3" y2="1034.3" />
              <line class="st0" x1="339.7" y1="968.4" x2="339.7" y2="1034.3" />
              <line class="st0" x1="741.3" y1="1034.3" x2="741.3" y2="1041.4" />
              <line class="st0" x1="580.7" y1="1034.3" x2="580.7" y2="1078.5" />
              <line class="st0" x1="420" y1="1034.3" x2="420" y2="1066.5" />
            </svg>