            <!-- Generator: Adobe Illustrator 24.2.1, SVG Export Plug-In  -->
            <svg class="animated-bg" version="1.1" xmlns="http://www.w3.org/2000/svg" xmlns:xlink="http://www.w3.org/1999/xlink" x="0px" y="0px" width="1079.5px" height="1082px" viewbox="0 0 1079.5 1082" style="overflow:visible;enable-background:new 0 0 1079.5 1082;" xml:space="preserve" id="security-bg">
              <style type="text/css">
                .st0 {

                }
              </style>
              <defs>
              </defs>
              <g>
                <g>
                  <path class="st0" d="M1068.5,430.8l-24.2-24.2c-5.3-5.3-5.3-13.9,0-19.2l10.2-10.2" />
                  <path class="st0" d="M1078,584.4l-33.8-33.8c-5.3-5.3-5.3-13.9,0-19.2l33.8-33.8" />
                  <path class="st0" d="M1054.4,704.8l-10.2-10.2c-5.3-5.3-5.3-13.9,0-19.2l24.2-24.2" />
                  <path class="st0" d="M1019.9,293.6l-21.8,21.8c-5.3,5.3-5.3,13.9,0,19.2l52.8,52.8c5.3,5.3,5.3,13.9,0,19.2l-52.8,52.8
                 c-5.3,5.3-5.3,13.9,0,19.2l52.8,52.8c5.3,5.3,5.3,13.9,0,19.2l-52.8,52.8c-5.3,5.3-5.3,13.9,0,19.2l52.8,52.8
                 c5.3,5.3,5.3,13.9,0,19.2l-52.8,52.8c-5.3,5.3-5.3,13.9,0,19.2l21.8,21.8" />
                  <path class="st0" d="M974.6,861.2l-22.7-22.7c-5.3-5.3-5.3-13.9,0-19.2l52.8-52.8c5.3-5.3,5.3-13.9,0-19.2l-52.8-52.8
                 c-5.3-5.3-5.3-13.9,0-19.2l52.8-52.8c5.3-5.3,5.3-13.9,0-19.2l-52.8-52.8c-5.3-5.3-5.3-13.9,0-19.2l52.8-52.8
                 c5.3-5.3,5.3-13.9,0-19.2l-52.8-52.8c-5.3-5.3-5.3-13.9,0-19.2l52.8-52.8c5.3-5.3,5.3-13.9,0-19.2l-52.8-52.8
                 c-5.3-5.3-5.3-13.9,0-19.2l22.7-22.6" />
                  <path class="st0" d="M919.8,157.4l-14,14c-5.3,5.3-5.3,13.9,0,19.2l52.8,52.8c5.3,5.3,5.3,13.9,0,19.2l-52.8,52.8
                 c-5.3,5.3-5.3,13.9,0,19.2l52.8,52.8c5.3,5.3,5.3,13.9,0,19.2l-52.8,52.8c-5.3,5.3-5.3,13.9,0,19.2l52.8,52.8
                 c5.3,5.3,5.3,13.9,0,19.2l-52.8,52.8c-5.3,5.3-5.3,13.9,0,19.2l52.8,52.8c5.3,5.3,5.3,13.9,0,19.2l-52.8,52.8
                 c-5.3,5.3-5.3,13.9,0,19.2l52.8,52.8c5.3,5.3,5.3,13.9,0,19.2l-52.8,52.8c-5.3,5.3-5.3,13.9,0,19.2l14,14" />
                </g>
                <g>
                  <path class="st0" d="M731.7,1045.9c0.2-3.8-1.1-7.6-4-10.5l-52.8-52.8c-5.3-5.3-5.3-13.9,0-19.2l52.8-52.8
                 c5.3-5.3,5.3-13.9,0-19.2l-52.8-52.8c-5.3-5.3-5.3-13.9,0-19.2l52.8-52.8c5.3-5.3,5.3-13.9,0-19.2l-52.8-52.8
                 c-5.3-5.3-5.3-13.9,0-19.2l52.8-52.8c5.3-5.3,5.3-13.9,0-19.2l-52.8-52.8c-5.3-5.3-5.3-13.9,0-19.2l52.8-52.8
                 c5.3-5.3,5.3-13.9,0-19.2l-52.8-52.8c-5.3-5.3-5.3-13.9,0-19.2l52.8-52.8c5.3-5.3,5.3-13.9,0-19.2l-52.8-52.8
                 c-5.3-5.3-5.3-13.9,0-19.2l52.8-52.8c5.3-5.3,5.3-13.9,0-19.2l-52.8-52.8c-5.3-5.3-5.3-13.9,0-19.2l52.8-52.8c2.7-2.7,4-6.1,4-9.6
                 c0-0.3,0-0.6,0-0.9" />
                  <path class="st0" d="M644.9,11.2l-16.2,16.2c-5.3,5.3-5.3,13.9,0,19.2l52.8,52.8c5.3,5.3,5.3,13.9,0,19.2l-52.8,52.8
                 c-5.3,5.3-5.3,13.9,0,19.2l52.8,52.8c5.3,5.3,5.3,13.9,0,19.2l-52.8,52.8c-5.3,5.3-5.3,13.9,0,19.2l52.8,52.8
                 c5.3,5.3,5.3,13.9,0,19.2l-52.8,52.8c-5.3,5.3-5.3,13.9,0,19.2l52.8,52.8c5.3,5.3,5.3,13.9,0,19.2l-52.8,52.8
                 c-5.3,5.3-5.3,13.9,0,19.2l52.8,52.8c5.3,5.3,5.3,13.9,0,19.2l-52.8,52.8c-5.3,5.3-5.3,13.9,0,19.2l52.8,52.8
                 c5.3,5.3,5.3,13.9,0,19.2l-52.8,52.8c-5.3,5.3-5.3,13.9,0,19.2l52.8,52.8c5.3,5.3,5.3,13.9,0,19.2l-52.8,52.8
                 c-5.3,5.3-5.3,13.9,0,19.2l16.2,16.2" />
                  <path class="st0" d="M614.1,1075.9l21.3-21.3c5.3-5.3,5.3-13.9,0-19.2l-52.8-52.8c-5.3-5.3-5.3-13.9,0-19.2l52.8-52.8
                 c5.3-5.3,5.3-13.9,0-19.2l-52.8-52.8c-5.3-5.3-5.3-13.9,0-19.2l52.8-52.8c5.3-5.3,5.3-13.9,0-19.2l-52.8-52.8
                 c-5.3-5.3-5.3-13.9,0-19.2l52.8-52.8c5.3-5.3,5.3-13.9,0-19.2l-52.8-52.8c-5.3-5.3-5.3-13.9,0-19.2l52.8-52.8
                 c5.3-5.3,5.3-13.9,0-19.2l-52.8-52.8c-5.3-5.3-5.3-13.9,0-19.2l52.8-52.8c5.3-5.3,5.3-13.9,0-19.2l-52.8-52.8
                 c-5.3-5.3-5.3-13.9,0-19.2l52.8-52.8c5.3-5.3,5.3-13.9,0-19.2l-52.8-52.8c-5.3-5.3-5.3-13.9,0-19.2l52.8-52.8
                 c5.3-5.3,5.3-13.9,0-19.2L614.1,6.1" />
                  <path class="st0" d="M562.4,1.5l-25.9,25.9c-5.3,5.3-5.3,13.9,0,19.2l52.8,52.8c5.3,5.3,5.3,13.9,0,19.2l-52.8,52.8
                 c-5.3,5.3-5.3,13.9,0,19.2l52.8,52.8c5.3,5.3,5.3,13.9,0,19.2l-52.8,52.8c-5.3,5.3-5.3,13.9,0,19.2l52.8,52.8
                 c5.3,5.3,5.3,13.9,0,19.2l-52.8,52.8c-5.3,5.3-5.3,13.9,0,19.2l52.8,52.8c5.3,5.3,5.3,13.9,0,19.2l-52.8,52.8
                 c-5.3,5.3-5.3,13.9,0,19.2l52.8,52.8c5.3,5.3,5.3,13.9,0,19.2l-52.8,52.8c-5.3,5.3-5.3,13.9,0,19.2l52.8,52.8
                 c5.3,5.3,5.3,13.9,0,19.2l-52.8,52.8c-5.3,5.3-5.3,13.9,0,19.2l52.8,52.8c5.3,5.3,5.3,13.9,0,19.2l-52.8,52.8
                 c-5.3,5.3-5.3,13.9,0,19.2l25.9,25.9" />
                  <path class="st0" d="M856.6,978.3c-2.1-4.9-1.1-10.8,2.9-14.9l52.8-52.8c5.3-5.3,5.3-13.9,0-19.2l-52.8-52.8
                 c-5.3-5.3-5.3-13.9,0-19.2l52.8-52.8c5.3-5.3,5.3-13.9,0-19.2l-52.8-52.8c-5.3-5.3-5.3-13.9,0-19.2l52.8-52.8
                 c5.3-5.3,5.3-13.9,0-19.2l-52.8-52.8c-5.3-5.3-5.3-13.9,0-19.2l52.8-52.8c5.3-5.3,5.3-13.9,0-19.2l-52.8-52.8
                 c-5.3-5.3-5.3-13.9,0-19.2l52.8-52.8c5.3-5.3,5.3-13.9,0-19.2l-52.8-52.8c-5.3-5.3-5.3-13.9,0-19.2l52.8-52.8
                 c5.3-5.3,5.3-13.9,0-19.2l-52.8-52.8c-4-4-5-9.8-3-14.7" />
                  <path class="st0" d="M869.5,113.3c-0.7,1.9-1.7,3.7-3.3,5.3l-52.8,52.8c-5.3,5.3-5.3,13.9,0,19.2l52.8,52.8
                 c5.3,5.3,5.3,13.9,0,19.2l-52.8,52.8c-5.3,5.3-5.3,13.9,0,19.2l52.8,52.8c5.3,5.3,5.3,13.9,0,19.2l-52.8,52.8
                 c-5.3,5.3-5.3,13.9,0,19.2l52.8,52.8c5.3,5.3,5.3,13.9,0,19.2l-52.8,52.8c-5.3,5.3-5.3,13.9,0,19.2l52.8,52.8
                 c5.3,5.3,5.3,13.9,0,19.2l-52.8,52.8c-5.3,5.3-5.3,13.9,0,19.2l52.8,52.8c5.3,5.3,5.3,13.9,0,19.2l-52.8,52.8
                 c-5.3,5.3-5.3,13.9,0,19.2l52.8,52.8c1.3,1.3,2.3,2.9,3,4.5c0.1,0.3,0.2,0.5,0.3,0.8" />
                  <path class="st0" d="M799.3,1014.6l-32-32.1c-5.3-5.3-5.3-13.9,0-19.2l52.8-52.8c5.3-5.3,5.3-13.9,0-19.2l-52.8-52.8
                 c-5.3-5.3-5.3-13.9,0-19.2l52.8-52.8c5.3-5.3,5.3-13.9,0-19.2l-52.8-52.8c-5.3-5.3-5.3-13.9,0-19.2l52.8-52.8
                 c5.3-5.3,5.3-13.9,0-19.2l-52.8-52.8c-5.3-5.3-5.3-13.9,0-19.2l52.8-52.8c5.3-5.3,5.3-13.9,0-19.2l-52.8-52.8
                 c-5.3-5.3-5.3-13.9,0-19.2l52.8-52.8c5.3-5.3,5.3-13.9,0-19.2l-52.8-52.8c-5.3-5.3-5.3-13.9,0-19.2l52.8-52.8
                 c5.3-5.3,5.3-13.9,0-19.2l-52.8-52.8c-5.3-5.3-5.3-13.9,0-19.2l32-32.1" />
                  <path class="st0" d="M718.4,31.2c-2.3,5-1.5,11.2,2.7,15.4l52.8,52.8c5.3,5.3,5.3,13.9,0,19.2l-52.8,52.8
                 c-5.3,5.3-5.3,13.9,0,19.2l52.8,52.8c5.3,5.3,5.3,13.9,0,19.2l-52.8,52.8c-5.3,5.3-5.3,13.9,0,19.2l52.8,52.8
                 c5.3,5.3,5.3,13.9,0,19.2l-52.8,52.8c-5.3,5.3-5.3,13.9,0,19.2l52.8,52.8c5.3,5.3,5.3,13.9,0,19.2l-52.8,52.8
                 c-5.3,5.3-5.3,13.9,0,19.2l52.8,52.8c5.3,5.3,5.3,13.9,0,19.2l-52.8,52.8c-5.3,5.3-5.3,13.9,0,19.2l52.8,52.8
                 c5.3,5.3,5.3,13.9,0,19.2l-52.8,52.8c-5.3,5.3-5.3,13.9,0,19.2l52.8,52.8c5.3,5.3,5.3,13.9,0,19.2l-52.8,52.8c-4,4-5,9.8-3,14.7
                 c0.1,0.2,0.2,0.4,0.3,0.6" />
                </g>
                <g>
                  <path class="st0" d="M361.1,1050.7c2.4-5,1.5-11.2-2.7-15.4l-52.8-52.8c-5.3-5.3-5.3-13.9,0-19.2l52.8-52.8
                 c5.3-5.3,5.3-13.9,0-19.2l-52.8-52.8c-5.3-5.3-5.3-13.9,0-19.2l52.8-52.8c5.3-5.3,5.3-13.9,0-19.2l-52.8-52.8
                 c-5.3-5.3-5.3-13.9,0-19.2l52.8-52.8c5.3-5.3,5.3-13.9,0-19.2l-52.8-52.8c-5.3-5.3-5.3-13.9,0-19.2l52.8-52.8
                 c5.3-5.3,5.3-13.9,0-19.2l-52.8-52.8c-5.3-5.3-5.3-13.9,0-19.2l52.8-52.8c5.3-5.3,5.3-13.9,0-19.2l-52.8-52.8
                 c-5.3-5.3-5.3-13.9,0-19.2l52.8-52.8c5.3-5.3,5.3-13.9,0-19.2l-52.8-52.8c-5.3-5.3-5.3-13.9,0-19.2l52.8-52.8c4-4,5-9.8,3-14.7" />
                  <path class="st0" d="M280.2,67.3l32,32c5.3,5.3,5.3,13.9,0,19.2l-52.8,52.8c-5.3,5.3-5.3,13.9,0,19.2l52.8,52.8
                 c5.3,5.3,5.3,13.9,0,19.2l-52.8,52.8c-5.3,5.3-5.3,13.9,0,19.2l52.8,52.8c5.3,5.3,5.3,13.9,0,19.2l-52.8,52.8
                 c-5.3,5.3-5.3,13.9,0,19.2l52.8,52.8c5.3,5.3,5.3,13.9,0,19.2l-52.8,52.8c-5.3,5.3-5.3,13.9,0,19.2l52.8,52.8
                 c5.3,5.3,5.3,13.9,0,19.2l-52.8,52.8c-5.3,5.3-5.3,13.9,0,19.2l52.8,52.8c5.3,5.3,5.3,13.9,0,19.2l-52.8,52.8
                 c-5.3,5.3-5.3,13.9,0,19.2l52.8,52.8c5.3,5.3,5.3,13.9,0,19.2l-32,32.1" />
                  <path class="st0" d="M210,968.7c0.6-1.9,1.7-3.7,3.3-5.3l52.8-52.8c5.3-5.3,5.3-13.9,0-19.2l-52.8-52.8c-5.3-5.3-5.3-13.9,0-19.2
                 l52.8-52.8c5.3-5.3,5.3-13.9,0-19.2l-52.8-52.8c-5.3-5.3-5.3-13.9,0-19.2l52.8-52.8c5.3-5.3,5.3-13.9,0-19.2l-52.8-52.8
                 c-5.3-5.3-5.3-13.9,0-19.2l52.8-52.8c5.3-5.3,5.3-13.9,0-19.2l-52.8-52.8c-5.3-5.3-5.3-13.9,0-19.2l52.8-52.8
                 c5.3-5.3,5.3-13.9,0-19.2l-52.8-52.8c-5.3-5.3-5.3-13.9,0-19.2l52.8-52.8c5.3-5.3,5.3-13.9,0-19.2l-52.8-52.8
                 c-1.3-1.3-2.3-2.9-3-4.5c-0.1-0.3-0.2-0.5-0.3-0.8" />
                  <path class="st0" d="M222.8,103.7c2.1,4.9,1.1,10.9-2.9,14.9l-52.8,52.8c-5.3,5.3-5.3,13.9,0,19.2l52.8,52.8
                 c5.3,5.3,5.3,13.9,0,19.2l-52.8,52.8c-5.3,5.3-5.3,13.9,0,19.2l52.8,52.8c5.3,5.3,5.3,13.9,0,19.2l-52.8,52.8
                 c-5.3,5.3-5.3,13.9,0,19.2l52.8,52.8c5.3,5.3,5.3,13.9,0,19.2l-52.8,52.8c-5.3,5.3-5.3,13.9,0,19.2l52.8,52.8
                 c5.3,5.3,5.3,13.9,0,19.2l-52.8,52.8c-5.3,5.3-5.3,13.9,0,19.2l52.8,52.8c5.3,5.3,5.3,13.9,0,19.2l-52.8,52.8
                 c-5.3,5.3-5.3,13.9,0,19.2l52.8,52.8c4,4,5,9.8,3,14.7" />
                  <path class="st0" d="M517.1,1080.5l25.9-25.9c5.3-5.3,5.3-13.9,0-19.2l-52.8-52.8c-5.3-5.3-5.3-13.9,0-19.2l52.8-52.8
                 c5.3-5.3,5.3-13.9,0-19.2l-52.8-52.8c-5.3-5.3-5.3-13.9,0-19.2l52.8-52.8c5.3-5.3,5.3-13.9,0-19.2l-52.8-52.8
                 c-5.3-5.3-5.3-13.9,0-19.2l52.8-52.8c5.3-5.3,5.3-13.9,0-19.2l-52.8-52.8c-5.3-5.3-5.3-13.9,0-19.2l52.8-52.8
                 c5.3-5.3,5.3-13.9,0-19.2l-52.8-52.8c-5.3-5.3-5.3-13.9,0-19.2l52.8-52.8c5.3-5.3,5.3-13.9,0-19.2l-52.8-52.8
                 c-5.3-5.3-5.3-13.9,0-19.2l52.8-52.8c5.3-5.3,5.3-13.9,0-19.2l-52.8-52.8c-5.3-5.3-5.3-13.9,0-19.2L543,46.6
                 c5.3-5.3,5.3-13.9,0-19.2L517.1,1.5" />
                  <path class="st0" d="M465.4,6.1l-21.3,21.3c-5.3,5.3-5.3,13.9,0,19.2l52.8,52.8c5.3,5.3,5.3,13.9,0,19.2l-52.8,52.8
                 c-5.3,5.3-5.3,13.9,0,19.2l52.8,52.8c5.3,5.3,5.3,13.9,0,19.2l-52.8,52.8c-5.3,5.3-5.3,13.9,0,19.2l52.8,52.8
                 c5.3,5.3,5.3,13.9,0,19.2l-52.8,52.8c-5.3,5.3-5.3,13.9,0,19.2l52.8,52.8c5.3,5.3,5.3,13.9,0,19.2l-52.8,52.8
                 c-5.3,5.3-5.3,13.9,0,19.2l52.8,52.8c5.3,5.3,5.3,13.9,0,19.2l-52.8,52.8c-5.3,5.3-5.3,13.9,0,19.2l52.8,52.8
                 c5.3,5.3,5.3,13.9,0,19.2l-52.8,52.8c-5.3,5.3-5.3,13.9,0,19.2l52.8,52.8c5.3,5.3,5.3,13.9,0,19.2l-52.8,52.8
                 c-5.3,5.3-5.3,13.9,0,19.2l21.3,21.3" />
                  <path class="st0" d="M434.5,1070.8l16.2-16.2c5.3-5.3,5.3-13.9,0-19.2l-52.8-52.8c-5.3-5.3-5.3-13.9,0-19.2l52.8-52.8
                 c5.3-5.3,5.3-13.9,0-19.2l-52.8-52.8c-5.3-5.3-5.3-13.9,0-19.2l52.8-52.8c5.3-5.3,5.3-13.9,0-19.2l-52.8-52.8
                 c-5.3-5.3-5.3-13.9,0-19.2l52.8-52.8c5.3-5.3,5.3-13.9,0-19.2l-52.8-52.8c-5.3-5.3-5.3-13.9,0-19.2l52.8-52.8
                 c5.3-5.3,5.3-13.9,0-19.2l-52.8-52.8c-5.3-5.3-5.3-13.9,0-19.2l52.8-52.8c5.3-5.3,5.3-13.9,0-19.2l-52.8-52.8
                 c-5.3-5.3-5.3-13.9,0-19.2l52.8-52.8c5.3-5.3,5.3-13.9,0-19.2l-52.8-52.8c-5.3-5.3-5.3-13.9,0-19.2l52.8-52.8
                 c5.3-5.3,5.3-13.9,0-19.2l-16.2-16.2" />
                  <path class="st0" d="M347.8,36.1c-0.2,3.8,1.1,7.6,4,10.5l52.8,52.8c5.3,5.3,5.3,13.9,0,19.2l-52.8,52.8c-5.3,5.3-5.3,13.9,0,19.2
                 l52.8,52.8c5.3,5.3,5.3,13.9,0,19.2l-52.8,52.8c-5.3,5.3-5.3,13.9,0,19.2l52.8,52.8c5.3,5.3,5.3,13.9,0,19.2l-52.8,52.8
                 c-5.3,5.3-5.3,13.9,0,19.2l52.8,52.8c5.3,5.3,5.3,13.9,0,19.2l-52.8,52.8c-5.3,5.3-5.3,13.9,0,19.2l52.8,52.8
                 c5.3,5.3,5.3,13.9,0,19.2l-52.8,52.8c-5.3,5.3-5.3,13.9,0,19.2l52.8,52.8c5.3,5.3,5.3,13.9,0,19.2l-52.8,52.8
                 c-5.3,5.3-5.3,13.9,0,19.2l52.8,52.8c5.3,5.3,5.3,13.9,0,19.2l-52.8,52.8c-2.6,2.7-4,6.1-4,9.6c0,0.3,0,0.6,0,0.9" />
                </g>
                <g>
                  <path class="st0" d="M159.7,924.6l14-14c5.3-5.3,5.3-13.9,0-19.2l-52.8-52.8c-5.3-5.3-5.3-13.9,0-19.2l52.8-52.8
                 c5.3-5.3,5.3-13.9,0-19.2l-52.8-52.8c-5.3-5.3-5.3-13.9,0-19.2l52.8-52.8c5.3-5.3,5.3-13.9,0-19.2l-52.8-52.8
                 c-5.3-5.3-5.3-13.9,0-19.2l52.8-52.8c5.3-5.3,5.3-13.9,0-19.2l-52.8-52.8c-5.3-5.3-5.3-13.9,0-19.2l52.8-52.8
                 c5.3-5.3,5.3-13.9,0-19.2l-52.8-52.8c-5.3-5.3-5.3-13.9,0-19.2l52.8-52.8c5.3-5.3,5.3-13.9,0-19.2l-14-14" />
                  <path class="st0" d="M104.9,220.7l22.6,22.6c5.3,5.3,5.3,13.9,0,19.2l-52.8,52.8c-5.3,5.3-5.3,13.9,0,19.2l52.8,52.8
                 c5.3,5.3,5.3,13.9,0,19.2l-52.8,52.8c-5.3,5.3-5.3,13.9,0,19.2l52.8,52.8c5.3,5.3,5.3,13.9,0,19.2l-52.8,52.8
                 c-5.3,5.3-5.3,13.9,0,19.2l52.8,52.8c5.3,5.3,5.3,13.9,0,19.2l-52.8,52.8c-5.3,5.3-5.3,13.9,0,19.2l52.8,52.8
                 c5.3,5.3,5.3,13.9,0,19.2l-22.6,22.7" />
                  <path class="st0" d="M59.6,788.4l21.8-21.8c5.3-5.3,5.3-13.9,0-19.2l-52.8-52.8c-5.3-5.3-5.3-13.9,0-19.2l52.8-52.8
                 c5.3-5.3,5.3-13.9,0-19.2l-52.8-52.8c-5.3-5.3-5.3-13.9,0-19.2l52.8-52.8c5.3-5.3,5.3-13.9,0-19.2l-52.8-52.8
                 c-5.3-5.3-5.3-13.9,0-19.2l52.8-52.8c5.3-5.3,5.3-13.9,0-19.2l-21.8-21.8" />
                  <path class="st0" d="M11,651.1l24.2,24.2c5.3,5.3,5.3,13.9,0,19.2L25,704.8" />
                  <path class="st0" d="M1.5,497.6l33.8,33.8c5.3,5.3,5.3,13.9,0,19.2L1.5,584.4" />
                  <path class="st0" d="M25,377.2l10.2,10.2c5.3,5.3,5.3,13.9,0,19.2L11,430.8" />
                </g>
              </g>
            </svg>