<?xml version="1.0" encoding="utf-8"?>
<!-- Generator: Adobe Illustrator 24.2.1, SVG Export Plug-In . SVG Version: 6.00 Build 0)  -->
<svg version="1.1" id="Layer_1" xmlns="http://www.w3.org/2000/svg" xmlns:xlink="http://www.w3.org/1999/xlink" x="0px" y="0px"
	 viewBox="0 0 105 90" style="enable-background:new 0 0 105 90;" xml:space="preserve">
<style type="text/css">
	.st0{fill:#6CCA8E;}
	.st1{fill:#FFFFFF;}
	.st2{fill:#0D2D33;}
</style>
<rect id="Rectangle_450" class="st0" width="105" height="90"/>
<g id="Group_4" transform="translate(2377.091 1104) rotate(45)">
	<path id="Path_8" class="st1" d="M-2371.2,909.4l-20.1-20.1l2.6-2.6l-4.1-15.4l-15.4-4.1l-12.7,12.7l4.1,15.4l15.4,4.1l2.6-2.6
		l7.1,7.1h3.7v3.7l1.9,1.9h3.7l1.9,1.9v3.7l1.8,1.8l0,0h7.4L-2371.2,909.4z M-2407.1,880.9c-1.3,1.3-3.4,1.3-4.7,0
		c-1.3-1.3-1.3-3.4,0-4.7c1.3-1.3,3.4-1.3,4.7,0c0.6,0.6,1,1.5,1,2.3C-2406.2,879.4-2406.5,880.3-2407.1,880.9L-2407.1,880.9z"/>
	<path id="Path_9" class="st2" d="M-2412,890.6l8.9,2.4l8-8l-2.4-8.9L-2412,890.6z"/>
</g>
</svg>
