<svg xmlns="http://www.w3.org/2000/svg" width="105" height="90" viewBox="0 0 105 90">
  <g id="Group_167" data-name="Group 167" transform="translate(-2325 -1094)">
    <rect id="Rectangle_450" data-name="Rectangle 450" width="105" height="90" transform="translate(2325 1094)" fill="#6cca8e"/>
    <g id="Group_4" data-name="Group 4" transform="translate(2377.091 1104) rotate(45)">
      <path id="Path_8" data-name="Path 8" d="M1164.33,2531.855l-20.057-20.057,2.638-2.639-4.12-15.375-15.376-4.12-12.7,12.7,4.119,15.376,15.376,4.12,2.638-2.639,7.128,7.128h3.713v3.713l1.857,1.857h3.713l1.857,1.856v3.714l1.8,1.8-.008-.016h7.427Zm-35.932-28.507a3.293,3.293,0,1,1,.965-2.329A3.27,3.27,0,0,1,1128.4,2503.348Z" transform="translate(-1114.712 -2489.664)" fill="#fff"/>
      <path id="Path_9" data-name="Path 9" d="M1133.045,2522.5l8.916,2.389,7.974-7.974-2.389-8.916Z" transform="translate(-1124.196 -2499.148)" fill="#0d2d33"/>
    </g>
  </g>
</svg>
