<svg xmlns="http://www.w3.org/2000/svg" width="105" height="90" viewBox="0 0 105 90">
  <g id="Group_168" data-name="Group 168" transform="translate(-2291 -979)">
    <rect id="Rectangle_449" data-name="Rectangle 449" width="105" height="90" transform="translate(2291 979)" fill="#6cca8e"/>
    <g id="Group_3" data-name="Group 3" transform="translate(2327.259 1001)">
      <rect id="Rectangle_20" data-name="Rectangle 20" width="31.747" height="30.166" transform="translate(0 14.948)" fill="#fff"/>
      <path id="Path_6" data-name="Path 6" d="M333.664,2509.589v-3.015a5.9,5.9,0,0,1,11.808,0v3.015H351.5v-3.015a11.933,11.933,0,0,0-23.866,0v3.015Z" transform="translate(-323.695 -2494.641)" fill="#0d2d33"/>
      <path id="Path_7" data-name="Path 7" d="M351.612,2543.771a3.953,3.953,0,1,0-7.208,2.242,4.22,4.22,0,0,0,.3.383v6.634h5.9v-6.638A3.918,3.918,0,0,0,351.612,2543.771Z" transform="translate(-331.786 -2517.386)" fill="#0d2d33"/>
    </g>
  </g>
</svg>
