<svg xmlns="http://www.w3.org/2000/svg" xmlns:xlink="http://www.w3.org/1999/xlink" width="598" height="598" viewBox="0 0 598 598">
  <defs>
    <clipPath id="clip-path">
      <circle id="Ellipse_3" data-name="Ellipse 3" cx="299" cy="299" r="299" fill="none"/>
    </clipPath>
  </defs>
  <g id="Group_161" data-name="Group 161" transform="translate(-1999.825 1962.854)">
    <g id="Group_160" data-name="Group 160" transform="translate(1999.825 -1962.853)" clip-path="url(#clip-path)">
      <g id="Group_159" data-name="Group 159" transform="translate(-70.958 -70.958)">
        <path id="Path_284" data-name="Path 284" d="M1894.8-2044.761l-6.909-16.213-16.213-6.909,16.213-6.909,6.909-16.213,6.909,16.213,16.213,6.909-16.448,7.167Z" transform="translate(-1871.673 2091.006)" fill="none" stroke="#000" stroke-miterlimit="10" stroke-width="2.976"/>
        <path id="Path_285" data-name="Path 285" d="M1978.314-2044.761l-6.909-16.213-16.213-6.909,16.213-6.909,6.909-16.213,6.909,16.213,16.213,6.909-16.449,7.167Z" transform="translate(-1908.947 2091.006)" fill="none" stroke="#000" stroke-miterlimit="10" stroke-width="2.976"/>
        <path id="Path_286" data-name="Path 286" d="M1894.8-1961.242l-6.909-16.213-16.213-6.909,16.213-6.909,6.909-16.213,6.909,16.213,16.213,6.909-16.448,7.167Z" transform="translate(-1871.673 2053.731)" fill="none" stroke="#000" stroke-miterlimit="10" stroke-width="2.976"/>
        <path id="Path_287" data-name="Path 287" d="M1978.314-1961.242l-6.909-16.213-16.213-6.909,16.213-6.909,6.909-16.213,6.909,16.213,16.213,6.909-16.449,7.167Z" transform="translate(-1908.947 2053.731)" fill="none" stroke="#000" stroke-miterlimit="10" stroke-width="2.976"/>
        <path id="Path_288" data-name="Path 288" d="M2061.833-2044.761l-6.909-16.213-16.213-6.909,16.213-6.909,6.909-16.213,6.909,16.213,16.213,6.909-16.449,7.167Z" transform="translate(-1946.221 2091.006)" fill="none" stroke="#000" stroke-miterlimit="10" stroke-width="2.976"/>
        <path id="Path_289" data-name="Path 289" d="M2145.352-2044.761l-6.909-16.213-16.213-6.909,16.213-6.909,6.909-16.213,6.909,16.213,16.213,6.909-16.448,7.167Z" transform="translate(-1983.495 2091.006)" fill="none" stroke="#000" stroke-miterlimit="10" stroke-width="2.976"/>
        <path id="Path_290" data-name="Path 290" d="M2061.833-1961.242l-6.909-16.213-16.213-6.909,16.213-6.909,6.909-16.213,6.909,16.213,16.213,6.909-16.449,7.167Z" transform="translate(-1946.221 2053.731)" fill="none" stroke="#000" stroke-miterlimit="10" stroke-width="2.976"/>
        <path id="Path_291" data-name="Path 291" d="M2145.352-1961.242l-6.909-16.213-16.213-6.909,16.213-6.909,6.909-16.213,6.909,16.213,16.213,6.909-16.448,7.167Z" transform="translate(-1983.495 2053.731)" fill="none" stroke="#000" stroke-miterlimit="10" stroke-width="2.976"/>
        <path id="Path_292" data-name="Path 292" d="M1894.8-1877.723l-6.909-16.213-16.213-6.909,16.213-6.909,6.909-16.213,6.909,16.213,16.213,6.909-16.448,7.167Z" transform="translate(-1871.673 2016.457)" fill="none" stroke="#000" stroke-miterlimit="10" stroke-width="2.976"/>
        <path id="Path_293" data-name="Path 293" d="M1978.314-1877.723l-6.909-16.213-16.213-6.909,16.213-6.909,6.909-16.213,6.909,16.213,16.213,6.909-16.449,7.167Z" transform="translate(-1908.947 2016.457)" fill="none" stroke="#000" stroke-miterlimit="10" stroke-width="2.976"/>
        <path id="Path_294" data-name="Path 294" d="M1894.8-1794.2l-6.909-16.213-16.213-6.909,16.213-6.909,6.909-16.213,6.909,16.213,16.213,6.909-16.448,7.167Z" transform="translate(-1871.673 1979.183)" fill="none" stroke="#000" stroke-miterlimit="10" stroke-width="2.976"/>
        <path id="Path_295" data-name="Path 295" d="M1978.314-1794.2l-6.909-16.213-16.213-6.909,16.213-6.909,6.909-16.213,6.909,16.213,16.213,6.909-16.449,7.167Z" transform="translate(-1908.947 1979.183)" fill="none" stroke="#000" stroke-miterlimit="10" stroke-width="2.976"/>
        <path id="Path_296" data-name="Path 296" d="M2061.833-1877.723l-6.909-16.213-16.213-6.909,16.213-6.909,6.909-16.213,6.909,16.213,16.213,6.909-16.449,7.167Z" transform="translate(-1946.221 2016.457)" fill="none" stroke="#000" stroke-miterlimit="10" stroke-width="2.976"/>
        <path id="Path_297" data-name="Path 297" d="M2145.352-1877.723l-6.909-16.213-16.213-6.909,16.213-6.909,6.909-16.213,6.909,16.213,16.213,6.909-16.448,7.167Z" transform="translate(-1983.495 2016.457)" fill="none" stroke="#000" stroke-miterlimit="10" stroke-width="2.976"/>
        <path id="Path_298" data-name="Path 298" d="M2061.833-1794.2l-6.909-16.213-16.213-6.909,16.213-6.909,6.909-16.213,6.909,16.213,16.213,6.909-16.449,7.167Z" transform="translate(-1946.221 1979.183)" fill="none" stroke="#000" stroke-miterlimit="10" stroke-width="2.976"/>
        <path id="Path_299" data-name="Path 299" d="M2145.352-1794.2l-6.909-16.213-16.213-6.909,16.213-6.909,6.909-16.213,6.909,16.213,16.213,6.909-16.448,7.167Z" transform="translate(-1983.495 1979.183)" fill="none" stroke="#000" stroke-miterlimit="10" stroke-width="2.976"/>
        <path id="Path_300" data-name="Path 300" d="M2228.871-2044.761l-6.909-16.213-16.213-6.909,16.213-6.909,6.909-16.213,6.91,16.213,16.213,6.909-16.448,7.167Z" transform="translate(-2020.77 2091.006)" fill="none" stroke="#000" stroke-miterlimit="10" stroke-width="2.976"/>
        <path id="Path_301" data-name="Path 301" d="M2312.39-2044.761l-6.909-16.213-16.213-6.909,16.213-6.909,6.909-16.213,6.91,16.213,16.213,6.909-16.448,7.167Z" transform="translate(-2058.044 2091.006)" fill="none" stroke="#000" stroke-miterlimit="10" stroke-width="2.976"/>
        <path id="Path_302" data-name="Path 302" d="M2228.871-1961.242l-6.909-16.213-16.213-6.909,16.213-6.909,6.909-16.213,6.91,16.213,16.213,6.909-16.448,7.167Z" transform="translate(-2020.77 2053.731)" fill="none" stroke="#000" stroke-miterlimit="10" stroke-width="2.976"/>
        <path id="Path_303" data-name="Path 303" d="M2312.39-1961.242l-6.909-16.213-16.213-6.909,16.213-6.909,6.909-16.213,6.91,16.213,16.213,6.909-16.448,7.167Z" transform="translate(-2058.044 2053.731)" fill="none" stroke="#000" stroke-miterlimit="10" stroke-width="2.976"/>
        <path id="Path_304" data-name="Path 304" d="M2395.909-2044.761,2389-2060.974l-16.213-6.909,16.213-6.909,6.909-16.213,6.91,16.213,16.213,6.909-16.449,7.167Z" transform="translate(-2095.318 2091.006)" fill="none" stroke="#000" stroke-miterlimit="10" stroke-width="2.976"/>
        <path id="Path_305" data-name="Path 305" d="M2479.428-2044.761l-6.909-16.213-16.213-6.909,16.213-6.909,6.909-16.213,6.91,16.213,16.213,6.909-16.448,7.167Z" transform="translate(-2132.592 2091.006)" fill="none" stroke="#000" stroke-miterlimit="10" stroke-width="2.976"/>
        <path id="Path_306" data-name="Path 306" d="M2395.909-1961.242,2389-1977.455l-16.213-6.909,16.213-6.909,6.909-16.213,6.91,16.213,16.213,6.909-16.449,7.167Z" transform="translate(-2095.318 2053.731)" fill="none" stroke="#000" stroke-miterlimit="10" stroke-width="2.976"/>
        <path id="Path_307" data-name="Path 307" d="M2479.428-1961.242l-6.909-16.213-16.213-6.909,16.213-6.909,6.909-16.213,6.91,16.213,16.213,6.909L2486.1-1977.2Z" transform="translate(-2132.592 2053.731)" fill="none" stroke="#000" stroke-miterlimit="10" stroke-width="2.976"/>
        <path id="Path_308" data-name="Path 308" d="M2228.871-1877.723l-6.909-16.213-16.213-6.909,16.213-6.909,6.909-16.213,6.91,16.213,16.213,6.909-16.448,7.167Z" transform="translate(-2020.77 2016.457)" fill="none" stroke="#000" stroke-miterlimit="10" stroke-width="2.976"/>
        <path id="Path_309" data-name="Path 309" d="M2312.39-1877.723l-6.909-16.213-16.213-6.909,16.213-6.909,6.909-16.213,6.91,16.213,16.213,6.909-16.448,7.167Z" transform="translate(-2058.044 2016.457)" fill="none" stroke="#000" stroke-miterlimit="10" stroke-width="2.976"/>
        <path id="Path_310" data-name="Path 310" d="M2228.871-1794.2l-6.909-16.213-16.213-6.909,16.213-6.909,6.909-16.213,6.91,16.213,16.213,6.909-16.448,7.167Z" transform="translate(-2020.77 1979.183)" fill="none" stroke="#000" stroke-miterlimit="10" stroke-width="2.976"/>
        <path id="Path_311" data-name="Path 311" d="M2312.39-1794.2l-6.909-16.213-16.213-6.909,16.213-6.909,6.909-16.213,6.91,16.213,16.213,6.909-16.448,7.167Z" transform="translate(-2058.044 1979.183)" fill="none" stroke="#000" stroke-miterlimit="10" stroke-width="2.976"/>
        <path id="Path_312" data-name="Path 312" d="M2395.909-1877.723,2389-1893.936l-16.213-6.909,16.213-6.909,6.909-16.213,6.91,16.213,16.213,6.909-16.449,7.167Z" transform="translate(-2095.318 2016.457)" fill="none" stroke="#000" stroke-miterlimit="10" stroke-width="2.976"/>
        <path id="Path_313" data-name="Path 313" d="M2479.428-1877.723l-6.909-16.213-16.213-6.909,16.213-6.909,6.909-16.213,6.91,16.213,16.213,6.909-16.448,7.167Z" transform="translate(-2132.592 2016.457)" fill="none" stroke="#000" stroke-miterlimit="10" stroke-width="2.976"/>
        <path id="Path_314" data-name="Path 314" d="M2395.909-1794.2,2389-1810.417l-16.213-6.909,16.213-6.909,6.909-16.213,6.91,16.213,16.213,6.909-16.449,7.167Z" transform="translate(-2095.318 1979.183)" fill="none" stroke="#000" stroke-miterlimit="10" stroke-width="2.976"/>
        <path id="Path_315" data-name="Path 315" d="M2479.428-1794.2l-6.909-16.213-16.213-6.909,16.213-6.909,6.909-16.213,6.91,16.213,16.213,6.909-16.448,7.167Z" transform="translate(-2132.592 1979.183)" fill="none" stroke="#000" stroke-miterlimit="10" stroke-width="2.976"/>
        <path id="Path_316" data-name="Path 316" d="M1894.8-1710.685l-6.909-16.213-16.213-6.909,16.213-6.909,6.909-16.213,6.909,16.213,16.213,6.909-16.448,7.167Z" transform="translate(-1871.673 1941.909)" fill="none" stroke="#000" stroke-miterlimit="10" stroke-width="2.976"/>
        <path id="Path_317" data-name="Path 317" d="M1978.314-1710.685,1971.4-1726.9l-16.213-6.909,16.213-6.909,6.909-16.213,6.909,16.213,16.213,6.909-16.449,7.167Z" transform="translate(-1908.947 1941.909)" fill="none" stroke="#000" stroke-miterlimit="10" stroke-width="2.976"/>
        <path id="Path_318" data-name="Path 318" d="M1894.8-1627.166l-6.909-16.213-16.213-6.909,16.213-6.909,6.909-16.213,6.909,16.213,16.213,6.909-16.448,7.167Z" transform="translate(-1871.673 1904.634)" fill="none" stroke="#000" stroke-miterlimit="10" stroke-width="2.976"/>
        <path id="Path_319" data-name="Path 319" d="M1978.314-1627.166l-6.909-16.213-16.213-6.909,16.213-6.909,6.909-16.213,6.909,16.213,16.213,6.909-16.449,7.167Z" transform="translate(-1908.947 1904.634)" fill="none" stroke="#000" stroke-miterlimit="10" stroke-width="2.976"/>
        <path id="Path_320" data-name="Path 320" d="M2061.833-1710.685l-6.909-16.213-16.213-6.909,16.213-6.909,6.909-16.213,6.909,16.213,16.213,6.909-16.449,7.167Z" transform="translate(-1946.221 1941.909)" fill="none" stroke="#000" stroke-miterlimit="10" stroke-width="2.976"/>
        <path id="Path_321" data-name="Path 321" d="M2145.352-1710.685l-6.909-16.213-16.213-6.909,16.213-6.909,6.909-16.213,6.909,16.213,16.213,6.909-16.448,7.167Z" transform="translate(-1983.495 1941.909)" fill="none" stroke="#000" stroke-miterlimit="10" stroke-width="2.976"/>
        <path id="Path_322" data-name="Path 322" d="M2061.833-1627.166l-6.909-16.213-16.213-6.909,16.213-6.909,6.909-16.213,6.909,16.213,16.213,6.909-16.449,7.167Z" transform="translate(-1946.221 1904.634)" fill="none" stroke="#000" stroke-miterlimit="10" stroke-width="2.976"/>
        <path id="Path_323" data-name="Path 323" d="M2145.352-1627.166l-6.909-16.213-16.213-6.909,16.213-6.909,6.909-16.213,6.909,16.213,16.213,6.909-16.448,7.167Z" transform="translate(-1983.495 1904.634)" fill="none" stroke="#000" stroke-miterlimit="10" stroke-width="2.976"/>
        <path id="Path_324" data-name="Path 324" d="M1894.8-1543.647l-6.909-16.213-16.213-6.909,16.213-6.909,6.909-16.213,6.909,16.213,16.213,6.909-16.448,7.167Z" transform="translate(-1871.673 1867.36)" fill="none" stroke="#000" stroke-miterlimit="10" stroke-width="2.976"/>
        <path id="Path_325" data-name="Path 325" d="M1978.314-1543.647l-6.909-16.213-16.213-6.909,16.213-6.909,6.909-16.213,6.909,16.213,16.213,6.909-16.449,7.167Z" transform="translate(-1908.947 1867.36)" fill="none" stroke="#000" stroke-miterlimit="10" stroke-width="2.976"/>
        <path id="Path_326" data-name="Path 326" d="M1894.8-1460.128l-6.909-16.213-16.213-6.909,16.213-6.909,6.909-16.213,6.909,16.213,16.213,6.909-16.448,7.167Z" transform="translate(-1871.673 1830.086)" fill="none" stroke="#000" stroke-miterlimit="10" stroke-width="2.976"/>
        <path id="Path_327" data-name="Path 327" d="M1978.314-1460.128l-6.909-16.213-16.213-6.909,16.213-6.909,6.909-16.213,6.909,16.213,16.213,6.909-16.449,7.167Z" transform="translate(-1908.947 1830.086)" fill="none" stroke="#000" stroke-miterlimit="10" stroke-width="2.976"/>
        <path id="Path_328" data-name="Path 328" d="M2061.833-1543.647l-6.909-16.213-16.213-6.909,16.213-6.909,6.909-16.213,6.909,16.213,16.213,6.909-16.449,7.167Z" transform="translate(-1946.221 1867.36)" fill="none" stroke="#000" stroke-miterlimit="10" stroke-width="2.976"/>
        <path id="Path_329" data-name="Path 329" d="M2145.352-1543.647l-6.909-16.213-16.213-6.909,16.213-6.909,6.909-16.213,6.909,16.213,16.213,6.909-16.448,7.167Z" transform="translate(-1983.495 1867.36)" fill="none" stroke="#000" stroke-miterlimit="10" stroke-width="2.976"/>
        <path id="Path_330" data-name="Path 330" d="M2061.833-1460.128l-6.909-16.213-16.213-6.909,16.213-6.909,6.909-16.213,6.909,16.213,16.213,6.909-16.449,7.167Z" transform="translate(-1946.221 1830.086)" fill="none" stroke="#000" stroke-miterlimit="10" stroke-width="2.976"/>
        <path id="Path_331" data-name="Path 331" d="M2145.352-1460.128l-6.909-16.213-16.213-6.909,16.213-6.909,6.909-16.213,6.909,16.213,16.213,6.909-16.448,7.167Z" transform="translate(-1983.495 1830.086)" fill="none" stroke="#000" stroke-miterlimit="10" stroke-width="2.976"/>
        <path id="Path_332" data-name="Path 332" d="M2228.871-1710.685l-6.909-16.213-16.213-6.909,16.213-6.909,6.909-16.213,6.91,16.213,16.213,6.909-16.448,7.167Z" transform="translate(-2020.77 1941.909)" fill="none" stroke="#000" stroke-miterlimit="10" stroke-width="2.976"/>
        <path id="Path_333" data-name="Path 333" d="M2312.39-1710.685l-6.909-16.213-16.213-6.909,16.213-6.909,6.909-16.213,6.91,16.213,16.213,6.909-16.448,7.167Z" transform="translate(-2058.044 1941.909)" fill="none" stroke="#000" stroke-miterlimit="10" stroke-width="2.976"/>
        <path id="Path_334" data-name="Path 334" d="M2228.871-1627.166l-6.909-16.213-16.213-6.909,16.213-6.909,6.909-16.213,6.91,16.213,16.213,6.909-16.448,7.167Z" transform="translate(-2020.77 1904.634)" fill="none" stroke="#000" stroke-miterlimit="10" stroke-width="2.976"/>
        <path id="Path_335" data-name="Path 335" d="M2312.39-1627.166l-6.909-16.213-16.213-6.909,16.213-6.909,6.909-16.213,6.91,16.213,16.213,6.909-16.448,7.167Z" transform="translate(-2058.044 1904.634)" fill="none" stroke="#000" stroke-miterlimit="10" stroke-width="2.976"/>
        <path id="Path_336" data-name="Path 336" d="M2395.909-1710.685,2389-1726.9l-16.213-6.909,16.213-6.909,6.909-16.213,6.91,16.213,16.213,6.909-16.449,7.167Z" transform="translate(-2095.318 1941.909)" fill="none" stroke="#000" stroke-miterlimit="10" stroke-width="2.976"/>
        <path id="Path_337" data-name="Path 337" d="M2479.428-1710.685l-6.909-16.213-16.213-6.909,16.213-6.909,6.909-16.213,6.91,16.213,16.213,6.909-16.448,7.167Z" transform="translate(-2132.592 1941.909)" fill="none" stroke="#000" stroke-miterlimit="10" stroke-width="2.976"/>
        <path id="Path_338" data-name="Path 338" d="M2395.909-1627.166,2389-1643.379l-16.213-6.909L2389-1657.2l6.909-16.213,6.91,16.213,16.213,6.909-16.449,7.167Z" transform="translate(-2095.318 1904.634)" fill="none" stroke="#000" stroke-miterlimit="10" stroke-width="2.976"/>
        <path id="Path_339" data-name="Path 339" d="M2479.428-1627.166l-6.909-16.213-16.213-6.909,16.213-6.909,6.909-16.213,6.91,16.213,16.213,6.909-16.448,7.167Z" transform="translate(-2132.592 1904.634)" fill="none" stroke="#000" stroke-miterlimit="10" stroke-width="2.976"/>
        <path id="Path_340" data-name="Path 340" d="M2228.871-1543.647l-6.909-16.213-16.213-6.909,16.213-6.909,6.909-16.213,6.91,16.213,16.213,6.909-16.448,7.167Z" transform="translate(-2020.77 1867.36)" fill="none" stroke="#000" stroke-miterlimit="10" stroke-width="2.976"/>
        <path id="Path_341" data-name="Path 341" d="M2312.39-1543.647l-6.909-16.213-16.213-6.909,16.213-6.909,6.909-16.213,6.91,16.213,16.213,6.909-16.448,7.167Z" transform="translate(-2058.044 1867.36)" fill="none" stroke="#000" stroke-miterlimit="10" stroke-width="2.976"/>
        <path id="Path_342" data-name="Path 342" d="M2228.871-1460.128l-6.909-16.213-16.213-6.909,16.213-6.909,6.909-16.213,6.91,16.213,16.213,6.909-16.448,7.167Z" transform="translate(-2020.77 1830.086)" fill="none" stroke="#000" stroke-miterlimit="10" stroke-width="2.976"/>
        <path id="Path_343" data-name="Path 343" d="M2312.39-1460.128l-6.909-16.213-16.213-6.909,16.213-6.909,6.909-16.213,6.91,16.213,16.213,6.909-16.448,7.167Z" transform="translate(-2058.044 1830.086)" fill="none" stroke="#000" stroke-miterlimit="10" stroke-width="2.976"/>
        <path id="Path_344" data-name="Path 344" d="M2395.909-1543.647,2389-1559.86l-16.213-6.909,16.213-6.909,6.909-16.213,6.91,16.213,16.213,6.909-16.449,7.167Z" transform="translate(-2095.318 1867.36)" fill="none" stroke="#000" stroke-miterlimit="10" stroke-width="2.976"/>
        <path id="Path_345" data-name="Path 345" d="M2479.428-1543.647l-6.909-16.213-16.213-6.909,16.213-6.909,6.909-16.213,6.91,16.213,16.213,6.909L2486.1-1559.6Z" transform="translate(-2132.592 1867.36)" fill="none" stroke="#000" stroke-miterlimit="10" stroke-width="2.976"/>
        <path id="Path_346" data-name="Path 346" d="M2395.909-1460.128,2389-1476.341l-16.213-6.909,16.213-6.909,6.909-16.213,6.91,16.213,16.213,6.909-16.449,7.167Z" transform="translate(-2095.318 1830.086)" fill="none" stroke="#000" stroke-miterlimit="10" stroke-width="2.976"/>
        <path id="Path_347" data-name="Path 347" d="M2479.428-1460.128l-6.909-16.213-16.213-6.909,16.213-6.909,6.909-16.213,6.91,16.213,16.213,6.909-16.448,7.167Z" transform="translate(-2132.592 1830.086)" fill="none" stroke="#000" stroke-miterlimit="10" stroke-width="2.976"/>
        <path id="Path_348" data-name="Path 348" d="M2562.948-2044.761l-6.909-16.213-16.213-6.909,16.213-6.909,6.909-16.213,6.909,16.213,16.213,6.909-16.449,7.167Z" transform="translate(-2169.867 2091.006)" fill="none" stroke="#000" stroke-miterlimit="10" stroke-width="2.976"/>
        <path id="Path_349" data-name="Path 349" d="M2646.466-2044.761l-6.909-16.213-16.213-6.909,16.213-6.909,6.909-16.213,6.91,16.213,16.213,6.909-16.449,7.167Z" transform="translate(-2207.141 2091.006)" fill="none" stroke="#000" stroke-miterlimit="10" stroke-width="2.976"/>
        <path id="Path_350" data-name="Path 350" d="M2562.948-1961.242l-6.909-16.213-16.213-6.909,16.213-6.909,6.909-16.213,6.909,16.213,16.213,6.909-16.449,7.167Z" transform="translate(-2169.867 2053.731)" fill="none" stroke="#000" stroke-miterlimit="10" stroke-width="2.976"/>
        <path id="Path_351" data-name="Path 351" d="M2646.466-1961.242l-6.909-16.213-16.213-6.909,16.213-6.909,6.909-16.213,6.91,16.213,16.213,6.909-16.449,7.167Z" transform="translate(-2207.141 2053.731)" fill="none" stroke="#000" stroke-miterlimit="10" stroke-width="2.976"/>
        <path id="Path_352" data-name="Path 352" d="M2729.986-2044.761l-6.909-16.213-16.213-6.909,16.213-6.909,6.909-16.213,6.909,16.213,16.213,6.909-16.449,7.167Z" transform="translate(-2244.415 2091.006)" fill="none" stroke="#000" stroke-miterlimit="10" stroke-width="2.976"/>
        <path id="Path_353" data-name="Path 353" d="M2813.5-2044.761l-6.909-16.213-16.213-6.909,16.213-6.909,6.909-16.213,6.91,16.213,16.213,6.909-16.449,7.167Z" transform="translate(-2281.689 2091.006)" fill="none" stroke="#000" stroke-miterlimit="10" stroke-width="2.976"/>
        <path id="Path_354" data-name="Path 354" d="M2729.986-1961.242l-6.909-16.213-16.213-6.909,16.213-6.909,6.909-16.213,6.909,16.213,16.213,6.909-16.449,7.167Z" transform="translate(-2244.415 2053.731)" fill="none" stroke="#000" stroke-miterlimit="10" stroke-width="2.976"/>
        <path id="Path_355" data-name="Path 355" d="M2813.5-1961.242l-6.909-16.213-16.213-6.909,16.213-6.909,6.909-16.213,6.91,16.213,16.213,6.909-16.449,7.167Z" transform="translate(-2281.689 2053.731)" fill="none" stroke="#000" stroke-miterlimit="10" stroke-width="2.976"/>
        <path id="Path_356" data-name="Path 356" d="M2562.948-1877.723l-6.909-16.213-16.213-6.909,16.213-6.909,6.909-16.213,6.909,16.213,16.213,6.909-16.449,7.167Z" transform="translate(-2169.867 2016.457)" fill="none" stroke="#000" stroke-miterlimit="10" stroke-width="2.976"/>
        <path id="Path_357" data-name="Path 357" d="M2646.466-1877.723l-6.909-16.213-16.213-6.909,16.213-6.909,6.909-16.213,6.91,16.213,16.213,6.909-16.449,7.167Z" transform="translate(-2207.141 2016.457)" fill="none" stroke="#000" stroke-miterlimit="10" stroke-width="2.976"/>
        <path id="Path_358" data-name="Path 358" d="M2562.948-1794.2l-6.909-16.213-16.213-6.909,16.213-6.909,6.909-16.213,6.909,16.213,16.213,6.909-16.449,7.167Z" transform="translate(-2169.867 1979.183)" fill="none" stroke="#000" stroke-miterlimit="10" stroke-width="2.976"/>
        <path id="Path_359" data-name="Path 359" d="M2646.466-1794.2l-6.909-16.213-16.213-6.909,16.213-6.909,6.909-16.213,6.91,16.213,16.213,6.909-16.449,7.167Z" transform="translate(-2207.141 1979.183)" fill="none" stroke="#000" stroke-miterlimit="10" stroke-width="2.976"/>
        <path id="Path_360" data-name="Path 360" d="M2729.986-1877.723l-6.909-16.213-16.213-6.909,16.213-6.909,6.909-16.213,6.909,16.213,16.213,6.909-16.449,7.167Z" transform="translate(-2244.415 2016.457)" fill="none" stroke="#000" stroke-miterlimit="10" stroke-width="2.976"/>
        <path id="Path_361" data-name="Path 361" d="M2813.5-1877.723l-6.909-16.213-16.213-6.909,16.213-6.909,6.909-16.213,6.91,16.213,16.213,6.909-16.449,7.167Z" transform="translate(-2281.689 2016.457)" fill="none" stroke="#000" stroke-miterlimit="10" stroke-width="2.976"/>
        <path id="Path_362" data-name="Path 362" d="M2729.986-1794.2l-6.909-16.213-16.213-6.909,16.213-6.909,6.909-16.213,6.909,16.213,16.213,6.909-16.449,7.167Z" transform="translate(-2244.415 1979.183)" fill="none" stroke="#000" stroke-miterlimit="10" stroke-width="2.976"/>
        <path id="Path_363" data-name="Path 363" d="M2813.5-1794.2l-6.909-16.213-16.213-6.909,16.213-6.909,6.909-16.213,6.91,16.213,16.213,6.909-16.449,7.167Z" transform="translate(-2281.689 1979.183)" fill="none" stroke="#000" stroke-miterlimit="10" stroke-width="2.976"/>
        <path id="Path_364" data-name="Path 364" d="M2897.023-2044.761l-6.909-16.213-16.213-6.909,16.213-6.909,6.909-16.213,6.909,16.213,16.213,6.909-16.449,7.167Z" transform="translate(-2318.964 2091.006)" fill="none" stroke="#000" stroke-miterlimit="10" stroke-width="2.976"/>
        <path id="Path_365" data-name="Path 365" d="M2980.542-2044.761l-6.909-16.213-16.213-6.909,16.213-6.909,6.909-16.213,6.909,16.213,16.213,6.909-16.449,7.167Z" transform="translate(-2356.238 2091.006)" fill="none" stroke="#000" stroke-miterlimit="10" stroke-width="2.976"/>
        <path id="Path_366" data-name="Path 366" d="M2897.023-1961.242l-6.909-16.213-16.213-6.909,16.213-6.909,6.909-16.213,6.909,16.213,16.213,6.909L2903.7-1977.2Z" transform="translate(-2318.964 2053.731)" fill="none" stroke="#000" stroke-miterlimit="10" stroke-width="2.976"/>
        <path id="Path_367" data-name="Path 367" d="M2980.542-1961.242l-6.909-16.213-16.213-6.909,16.213-6.909,6.909-16.213,6.909,16.213,16.213,6.909-16.449,7.167Z" transform="translate(-2356.238 2053.731)" fill="none" stroke="#000" stroke-miterlimit="10" stroke-width="2.976"/>
        <path id="Path_368" data-name="Path 368" d="M3064.062-2044.761l-6.909-16.213-16.213-6.909,16.213-6.909,6.909-16.213,6.909,16.213,16.213,6.909-16.449,7.167Z" transform="translate(-2393.512 2091.006)" fill="none" stroke="#000" stroke-miterlimit="10" stroke-width="2.976"/>
        <path id="Path_369" data-name="Path 369" d="M3147.581-2044.761l-6.909-16.213-16.213-6.909,16.213-6.909,6.909-16.213,6.909,16.213,16.213,6.909-16.449,7.167Z" transform="translate(-2430.787 2091.006)" fill="none" stroke="#000" stroke-miterlimit="10" stroke-width="2.976"/>
        <path id="Path_370" data-name="Path 370" d="M3064.062-1961.242l-6.909-16.213-16.213-6.909,16.213-6.909,6.909-16.213,6.909,16.213,16.213,6.909-16.449,7.167Z" transform="translate(-2393.512 2053.731)" fill="none" stroke="#000" stroke-miterlimit="10" stroke-width="2.976"/>
        <path id="Path_371" data-name="Path 371" d="M3147.581-1961.242l-6.909-16.213-16.213-6.909,16.213-6.909,6.909-16.213,6.909,16.213,16.213,6.909-16.449,7.167Z" transform="translate(-2430.787 2053.731)" fill="none" stroke="#000" stroke-miterlimit="10" stroke-width="2.976"/>
        <path id="Path_372" data-name="Path 372" d="M2897.023-1877.723l-6.909-16.213-16.213-6.909,16.213-6.909,6.909-16.213,6.909,16.213,16.213,6.909-16.449,7.167Z" transform="translate(-2318.964 2016.457)" fill="none" stroke="#000" stroke-miterlimit="10" stroke-width="2.976"/>
        <path id="Path_373" data-name="Path 373" d="M2980.542-1877.723l-6.909-16.213-16.213-6.909,16.213-6.909,6.909-16.213,6.909,16.213,16.213,6.909-16.449,7.167Z" transform="translate(-2356.238 2016.457)" fill="none" stroke="#000" stroke-miterlimit="10" stroke-width="2.976"/>
        <path id="Path_374" data-name="Path 374" d="M2897.023-1794.2l-6.909-16.213-16.213-6.909,16.213-6.909,6.909-16.213,6.909,16.213,16.213,6.909-16.449,7.167Z" transform="translate(-2318.964 1979.183)" fill="none" stroke="#000" stroke-miterlimit="10" stroke-width="2.976"/>
        <path id="Path_375" data-name="Path 375" d="M2980.542-1794.2l-6.909-16.213-16.213-6.909,16.213-6.909,6.909-16.213,6.909,16.213,16.213,6.909-16.449,7.167Z" transform="translate(-2356.238 1979.183)" fill="none" stroke="#000" stroke-miterlimit="10" stroke-width="2.976"/>
        <path id="Path_376" data-name="Path 376" d="M3064.062-1877.723l-6.909-16.213-16.213-6.909,16.213-6.909,6.909-16.213,6.909,16.213,16.213,6.909-16.449,7.167Z" transform="translate(-2393.512 2016.457)" fill="none" stroke="#000" stroke-miterlimit="10" stroke-width="2.976"/>
        <path id="Path_377" data-name="Path 377" d="M3147.581-1877.723l-6.909-16.213-16.213-6.909,16.213-6.909,6.909-16.213,6.909,16.213,16.213,6.909-16.449,7.167Z" transform="translate(-2430.787 2016.457)" fill="none" stroke="#000" stroke-miterlimit="10" stroke-width="2.976"/>
        <path id="Path_378" data-name="Path 378" d="M3064.062-1794.2l-6.909-16.213-16.213-6.909,16.213-6.909,6.909-16.213,6.909,16.213,16.213,6.909-16.449,7.167Z" transform="translate(-2393.512 1979.183)" fill="none" stroke="#000" stroke-miterlimit="10" stroke-width="2.976"/>
        <path id="Path_379" data-name="Path 379" d="M3147.581-1794.2l-6.909-16.213-16.213-6.909,16.213-6.909,6.909-16.213,6.909,16.213,16.213,6.909-16.449,7.167Z" transform="translate(-2430.787 1979.183)" fill="none" stroke="#000" stroke-miterlimit="10" stroke-width="2.976"/>
        <path id="Path_380" data-name="Path 380" d="M2562.948-1710.685l-6.909-16.213-16.213-6.909,16.213-6.909,6.909-16.213,6.909,16.213,16.213,6.909-16.449,7.167Z" transform="translate(-2169.867 1941.909)" fill="none" stroke="#000" stroke-miterlimit="10" stroke-width="2.976"/>
        <path id="Path_381" data-name="Path 381" d="M2646.466-1710.685l-6.909-16.213-16.213-6.909,16.213-6.909,6.909-16.213,6.91,16.213,16.213,6.909-16.449,7.167Z" transform="translate(-2207.141 1941.909)" fill="none" stroke="#000" stroke-miterlimit="10" stroke-width="2.976"/>
        <path id="Path_382" data-name="Path 382" d="M2562.948-1627.166l-6.909-16.213-16.213-6.909,16.213-6.909,6.909-16.213,6.909,16.213,16.213,6.909-16.449,7.167Z" transform="translate(-2169.867 1904.634)" fill="none" stroke="#000" stroke-miterlimit="10" stroke-width="2.976"/>
        <path id="Path_383" data-name="Path 383" d="M2646.466-1627.166l-6.909-16.213-16.213-6.909,16.213-6.909,6.909-16.213,6.91,16.213,16.213,6.909-16.449,7.167Z" transform="translate(-2207.141 1904.634)" fill="none" stroke="#000" stroke-miterlimit="10" stroke-width="2.976"/>
        <path id="Path_384" data-name="Path 384" d="M2729.986-1710.685l-6.909-16.213-16.213-6.909,16.213-6.909,6.909-16.213,6.909,16.213,16.213,6.909-16.449,7.167Z" transform="translate(-2244.415 1941.909)" fill="none" stroke="#000" stroke-miterlimit="10" stroke-width="2.976"/>
        <path id="Path_385" data-name="Path 385" d="M2813.5-1710.685,2806.6-1726.9l-16.213-6.909,16.213-6.909,6.909-16.213,6.91,16.213,16.213,6.909-16.449,7.167Z" transform="translate(-2281.689 1941.909)" fill="none" stroke="#000" stroke-miterlimit="10" stroke-width="2.976"/>
        <path id="Path_386" data-name="Path 386" d="M2729.986-1627.166l-6.909-16.213-16.213-6.909,16.213-6.909,6.909-16.213,6.909,16.213,16.213,6.909-16.449,7.167Z" transform="translate(-2244.415 1904.634)" fill="none" stroke="#000" stroke-miterlimit="10" stroke-width="2.976"/>
        <path id="Path_387" data-name="Path 387" d="M2813.5-1627.166l-6.909-16.213-16.213-6.909,16.213-6.909,6.909-16.213,6.91,16.213,16.213,6.909-16.449,7.167Z" transform="translate(-2281.689 1904.634)" fill="none" stroke="#000" stroke-miterlimit="10" stroke-width="2.976"/>
        <path id="Path_388" data-name="Path 388" d="M2562.948-1543.647l-6.909-16.213-16.213-6.909,16.213-6.909,6.909-16.213,6.909,16.213,16.213,6.909-16.449,7.167Z" transform="translate(-2169.867 1867.36)" fill="none" stroke="#000" stroke-miterlimit="10" stroke-width="2.976"/>
        <path id="Path_389" data-name="Path 389" d="M2646.466-1543.647l-6.909-16.213-16.213-6.909,16.213-6.909,6.909-16.213,6.91,16.213,16.213,6.909-16.449,7.167Z" transform="translate(-2207.141 1867.36)" fill="none" stroke="#000" stroke-miterlimit="10" stroke-width="2.976"/>
        <path id="Path_390" data-name="Path 390" d="M2562.948-1460.128l-6.909-16.213-16.213-6.909,16.213-6.909,6.909-16.213,6.909,16.213,16.213,6.909-16.449,7.167Z" transform="translate(-2169.867 1830.086)" fill="none" stroke="#000" stroke-miterlimit="10" stroke-width="2.976"/>
        <path id="Path_391" data-name="Path 391" d="M2646.466-1460.128l-6.909-16.213-16.213-6.909,16.213-6.909,6.909-16.213,6.91,16.213,16.213,6.909-16.449,7.167Z" transform="translate(-2207.141 1830.086)" fill="none" stroke="#000" stroke-miterlimit="10" stroke-width="2.976"/>
        <path id="Path_392" data-name="Path 392" d="M2729.986-1543.647l-6.909-16.213-16.213-6.909,16.213-6.909,6.909-16.213,6.909,16.213,16.213,6.909-16.449,7.167Z" transform="translate(-2244.415 1867.36)" fill="none" stroke="#000" stroke-miterlimit="10" stroke-width="2.976"/>
        <path id="Path_393" data-name="Path 393" d="M2813.5-1543.647l-6.909-16.213-16.213-6.909,16.213-6.909,6.909-16.213,6.91,16.213,16.213,6.909-16.449,7.167Z" transform="translate(-2281.689 1867.36)" fill="none" stroke="#000" stroke-miterlimit="10" stroke-width="2.976"/>
        <path id="Path_394" data-name="Path 394" d="M2729.986-1460.128l-6.909-16.213-16.213-6.909,16.213-6.909,6.909-16.213,6.909,16.213,16.213,6.909-16.449,7.167Z" transform="translate(-2244.415 1830.086)" fill="none" stroke="#000" stroke-miterlimit="10" stroke-width="2.976"/>
        <path id="Path_395" data-name="Path 395" d="M2813.5-1460.128l-6.909-16.213-16.213-6.909,16.213-6.909,6.909-16.213,6.91,16.213,16.213,6.909-16.449,7.167Z" transform="translate(-2281.689 1830.086)" fill="none" stroke="#000" stroke-miterlimit="10" stroke-width="2.976"/>
        <path id="Path_396" data-name="Path 396" d="M2897.023-1710.685l-6.909-16.213-16.213-6.909,16.213-6.909,6.909-16.213,6.909,16.213,16.213,6.909-16.449,7.167Z" transform="translate(-2318.964 1941.909)" fill="none" stroke="#000" stroke-miterlimit="10" stroke-width="2.976"/>
        <path id="Path_397" data-name="Path 397" d="M2980.542-1710.685l-6.909-16.213-16.213-6.909,16.213-6.909,6.909-16.213,6.909,16.213,16.213,6.909-16.449,7.167Z" transform="translate(-2356.238 1941.909)" fill="none" stroke="#000" stroke-miterlimit="10" stroke-width="2.976"/>
        <path id="Path_398" data-name="Path 398" d="M2897.023-1627.166l-6.909-16.213-16.213-6.909,16.213-6.909,6.909-16.213,6.909,16.213,16.213,6.909-16.449,7.167Z" transform="translate(-2318.964 1904.634)" fill="none" stroke="#000" stroke-miterlimit="10" stroke-width="2.976"/>
        <path id="Path_399" data-name="Path 399" d="M2980.542-1627.166l-6.909-16.213-16.213-6.909,16.213-6.909,6.909-16.213,6.909,16.213,16.213,6.909-16.449,7.167Z" transform="translate(-2356.238 1904.634)" fill="none" stroke="#000" stroke-miterlimit="10" stroke-width="2.976"/>
        <path id="Path_400" data-name="Path 400" d="M3064.062-1710.685l-6.909-16.213-16.213-6.909,16.213-6.909,6.909-16.213,6.909,16.213,16.213,6.909-16.449,7.167Z" transform="translate(-2393.512 1941.909)" fill="none" stroke="#000" stroke-miterlimit="10" stroke-width="2.976"/>
        <path id="Path_401" data-name="Path 401" d="M3147.581-1710.685l-6.909-16.213-16.213-6.909,16.213-6.909,6.909-16.213,6.909,16.213,16.213,6.909-16.449,7.167Z" transform="translate(-2430.787 1941.909)" fill="none" stroke="#000" stroke-miterlimit="10" stroke-width="2.976"/>
        <path id="Path_402" data-name="Path 402" d="M3064.062-1627.166l-6.909-16.213-16.213-6.909,16.213-6.909,6.909-16.213,6.909,16.213,16.213,6.909-16.449,7.167Z" transform="translate(-2393.512 1904.634)" fill="none" stroke="#000" stroke-miterlimit="10" stroke-width="2.976"/>
        <path id="Path_403" data-name="Path 403" d="M3147.581-1627.166l-6.909-16.213-16.213-6.909,16.213-6.909,6.909-16.213,6.909,16.213,16.213,6.909-16.449,7.167Z" transform="translate(-2430.787 1904.634)" fill="none" stroke="#000" stroke-miterlimit="10" stroke-width="2.976"/>
        <path id="Path_404" data-name="Path 404" d="M2897.023-1543.647l-6.909-16.213-16.213-6.909,16.213-6.909,6.909-16.213,6.909,16.213,16.213,6.909L2903.7-1559.6Z" transform="translate(-2318.964 1867.36)" fill="none" stroke="#000" stroke-miterlimit="10" stroke-width="2.976"/>
        <path id="Path_405" data-name="Path 405" d="M2980.542-1543.647l-6.909-16.213-16.213-6.909,16.213-6.909,6.909-16.213,6.909,16.213,16.213,6.909-16.449,7.167Z" transform="translate(-2356.238 1867.36)" fill="none" stroke="#000" stroke-miterlimit="10" stroke-width="2.976"/>
        <path id="Path_406" data-name="Path 406" d="M2897.023-1460.128l-6.909-16.213-16.213-6.909,16.213-6.909,6.909-16.213,6.909,16.213,16.213,6.909-16.449,7.167Z" transform="translate(-2318.964 1830.086)" fill="none" stroke="#000" stroke-miterlimit="10" stroke-width="2.976"/>
        <path id="Path_407" data-name="Path 407" d="M2980.542-1460.128l-6.909-16.213-16.213-6.909,16.213-6.909,6.909-16.213,6.909,16.213,16.213,6.909-16.449,7.167Z" transform="translate(-2356.238 1830.086)" fill="none" stroke="#000" stroke-miterlimit="10" stroke-width="2.976"/>
        <path id="Path_408" data-name="Path 408" d="M3064.062-1543.647l-6.909-16.213-16.213-6.909,16.213-6.909,6.909-16.213,6.909,16.213,16.213,6.909-16.449,7.167Z" transform="translate(-2393.512 1867.36)" fill="none" stroke="#000" stroke-miterlimit="10" stroke-width="2.976"/>
        <path id="Path_409" data-name="Path 409" d="M3147.581-1543.647l-6.909-16.213-16.213-6.909,16.213-6.909,6.909-16.213,6.909,16.213,16.213,6.909-16.449,7.167Z" transform="translate(-2430.787 1867.36)" fill="none" stroke="#000" stroke-miterlimit="10" stroke-width="2.976"/>
        <path id="Path_410" data-name="Path 410" d="M3064.062-1460.128l-6.909-16.213-16.213-6.909,16.213-6.909,6.909-16.213,6.909,16.213,16.213,6.909-16.449,7.167Z" transform="translate(-2393.512 1830.086)" fill="none" stroke="#000" stroke-miterlimit="10" stroke-width="2.976"/>
        <path id="Path_411" data-name="Path 411" d="M3147.581-1460.128l-6.909-16.213-16.213-6.909,16.213-6.909,6.909-16.213,6.909,16.213,16.213,6.909-16.449,7.167Z" transform="translate(-2430.787 1830.086)" fill="none" stroke="#000" stroke-miterlimit="10" stroke-width="2.976"/>
        <path id="Path_412" data-name="Path 412" d="M1894.8-1376.609l-6.909-16.213-16.213-6.909,16.213-6.909,6.909-16.213,6.909,16.213,16.213,6.909-16.448,7.167Z" transform="translate(-1871.673 1792.812)" fill="none" stroke="#000" stroke-miterlimit="10" stroke-width="2.976"/>
        <path id="Path_413" data-name="Path 413" d="M1978.314-1376.609l-6.909-16.213-16.213-6.909,16.213-6.909,6.909-16.213,6.909,16.213,16.213,6.909-16.449,7.167Z" transform="translate(-1908.947 1792.812)" fill="none" stroke="#000" stroke-miterlimit="10" stroke-width="2.976"/>
        <path id="Path_414" data-name="Path 414" d="M1894.8-1293.09l-6.909-16.213-16.213-6.909,16.213-6.909,6.909-16.213,6.909,16.213,16.213,6.909-16.448,7.167Z" transform="translate(-1871.673 1755.538)" fill="none" stroke="#000" stroke-miterlimit="10" stroke-width="2.976"/>
        <path id="Path_415" data-name="Path 415" d="M1978.314-1293.09,1971.4-1309.3l-16.213-6.909,16.213-6.909,6.909-16.213,6.909,16.213,16.213,6.909-16.449,7.167Z" transform="translate(-1908.947 1755.538)" fill="none" stroke="#000" stroke-miterlimit="10" stroke-width="2.976"/>
        <path id="Path_416" data-name="Path 416" d="M2061.833-1376.609l-6.909-16.213-16.213-6.909,16.213-6.909,6.909-16.213,6.909,16.213,16.213,6.909-16.449,7.167Z" transform="translate(-1946.221 1792.812)" fill="none" stroke="#000" stroke-miterlimit="10" stroke-width="2.976"/>
        <path id="Path_417" data-name="Path 417" d="M2145.352-1376.609l-6.909-16.213-16.213-6.909,16.213-6.909,6.909-16.213,6.909,16.213,16.213,6.909-16.448,7.167Z" transform="translate(-1983.495 1792.812)" fill="none" stroke="#000" stroke-miterlimit="10" stroke-width="2.976"/>
        <path id="Path_418" data-name="Path 418" d="M2061.833-1293.09l-6.909-16.213-16.213-6.909,16.213-6.909,6.909-16.213,6.909,16.213,16.213,6.909-16.449,7.167Z" transform="translate(-1946.221 1755.538)" fill="none" stroke="#000" stroke-miterlimit="10" stroke-width="2.976"/>
        <path id="Path_419" data-name="Path 419" d="M2145.352-1293.09l-6.909-16.213-16.213-6.909,16.213-6.909,6.909-16.213,6.909,16.213,16.213,6.909-16.448,7.167Z" transform="translate(-1983.495 1755.538)" fill="none" stroke="#000" stroke-miterlimit="10" stroke-width="2.976"/>
        <path id="Path_420" data-name="Path 420" d="M1894.8-1209.571l-6.909-16.213-16.213-6.909,16.213-6.909,6.909-16.213,6.909,16.213,16.213,6.909-16.448,7.167Z" transform="translate(-1871.673 1718.263)" fill="none" stroke="#000" stroke-miterlimit="10" stroke-width="2.976"/>
        <path id="Path_421" data-name="Path 421" d="M1978.314-1209.571l-6.909-16.213-16.213-6.909,16.213-6.909,6.909-16.213,6.909,16.213,16.213,6.909-16.449,7.167Z" transform="translate(-1908.947 1718.263)" fill="none" stroke="#000" stroke-miterlimit="10" stroke-width="2.976"/>
        <path id="Path_422" data-name="Path 422" d="M1894.8-1126.052l-6.909-16.213-16.213-6.909,16.213-6.909,6.909-16.213,6.909,16.213,16.213,6.909-16.448,7.167Z" transform="translate(-1871.673 1680.989)" fill="none" stroke="#000" stroke-miterlimit="10" stroke-width="2.976"/>
        <path id="Path_423" data-name="Path 423" d="M1978.314-1126.052l-6.909-16.213-16.213-6.909,16.213-6.909,6.909-16.213,6.909,16.213,16.213,6.909-16.449,7.167Z" transform="translate(-1908.947 1680.989)" fill="none" stroke="#000" stroke-miterlimit="10" stroke-width="2.976"/>
        <path id="Path_424" data-name="Path 424" d="M2061.833-1209.571l-6.909-16.213-16.213-6.909,16.213-6.909,6.909-16.213,6.909,16.213,16.213,6.909-16.449,7.167Z" transform="translate(-1946.221 1718.263)" fill="none" stroke="#000" stroke-miterlimit="10" stroke-width="2.976"/>
        <path id="Path_425" data-name="Path 425" d="M2145.352-1209.571l-6.909-16.213-16.213-6.909,16.213-6.909,6.909-16.213,6.909,16.213,16.213,6.909-16.448,7.167Z" transform="translate(-1983.495 1718.263)" fill="none" stroke="#000" stroke-miterlimit="10" stroke-width="2.976"/>
        <path id="Path_426" data-name="Path 426" d="M2061.833-1126.052l-6.909-16.213-16.213-6.909,16.213-6.909,6.909-16.213,6.909,16.213,16.213,6.909-16.449,7.167Z" transform="translate(-1946.221 1680.989)" fill="none" stroke="#000" stroke-miterlimit="10" stroke-width="2.976"/>
        <path id="Path_427" data-name="Path 427" d="M2145.352-1126.052l-6.909-16.213-16.213-6.909,16.213-6.909,6.909-16.213,6.909,16.213,16.213,6.909-16.448,7.167Z" transform="translate(-1983.495 1680.989)" fill="none" stroke="#000" stroke-miterlimit="10" stroke-width="2.976"/>
        <path id="Path_428" data-name="Path 428" d="M2228.871-1376.609l-6.909-16.213-16.213-6.909,16.213-6.909,6.909-16.213,6.91,16.213,16.213,6.909-16.448,7.167Z" transform="translate(-2020.77 1792.812)" fill="none" stroke="#000" stroke-miterlimit="10" stroke-width="2.976"/>
        <path id="Path_429" data-name="Path 429" d="M2312.39-1376.609l-6.909-16.213-16.213-6.909,16.213-6.909,6.909-16.213,6.91,16.213,16.213,6.909-16.448,7.167Z" transform="translate(-2058.044 1792.812)" fill="none" stroke="#000" stroke-miterlimit="10" stroke-width="2.976"/>
        <path id="Path_430" data-name="Path 430" d="M2228.871-1293.09l-6.909-16.213-16.213-6.909,16.213-6.909,6.909-16.213,6.91,16.213,16.213,6.909-16.448,7.167Z" transform="translate(-2020.77 1755.538)" fill="none" stroke="#000" stroke-miterlimit="10" stroke-width="2.976"/>
        <path id="Path_431" data-name="Path 431" d="M2312.39-1293.09l-6.909-16.213-16.213-6.909,16.213-6.909,6.909-16.213,6.91,16.213,16.213,6.909-16.448,7.167Z" transform="translate(-2058.044 1755.538)" fill="none" stroke="#000" stroke-miterlimit="10" stroke-width="2.976"/>
        <path id="Path_432" data-name="Path 432" d="M2395.909-1376.609,2389-1392.822l-16.213-6.909L2389-1406.64l6.909-16.213,6.91,16.213,16.213,6.909-16.449,7.167Z" transform="translate(-2095.318 1792.812)" fill="none" stroke="#000" stroke-miterlimit="10" stroke-width="2.976"/>
        <path id="Path_433" data-name="Path 433" d="M2479.428-1376.609l-6.909-16.213-16.213-6.909,16.213-6.909,6.909-16.213,6.91,16.213,16.213,6.909-16.448,7.167Z" transform="translate(-2132.592 1792.812)" fill="none" stroke="#000" stroke-miterlimit="10" stroke-width="2.976"/>
        <path id="Path_434" data-name="Path 434" d="M2395.909-1293.09,2389-1309.3l-16.213-6.909,16.213-6.909,6.909-16.213,6.91,16.213,16.213,6.909-16.449,7.167Z" transform="translate(-2095.318 1755.538)" fill="none" stroke="#000" stroke-miterlimit="10" stroke-width="2.976"/>
        <path id="Path_435" data-name="Path 435" d="M2479.428-1293.09l-6.909-16.213-16.213-6.909,16.213-6.909,6.909-16.213,6.91,16.213,16.213,6.909-16.448,7.167Z" transform="translate(-2132.592 1755.538)" fill="none" stroke="#000" stroke-miterlimit="10" stroke-width="2.976"/>
        <path id="Path_436" data-name="Path 436" d="M2228.871-1209.571l-6.909-16.213-16.213-6.909,16.213-6.909,6.909-16.213,6.91,16.213,16.213,6.909-16.448,7.167Z" transform="translate(-2020.77 1718.263)" fill="none" stroke="#000" stroke-miterlimit="10" stroke-width="2.976"/>
        <path id="Path_437" data-name="Path 437" d="M2312.39-1209.571l-6.909-16.213-16.213-6.909,16.213-6.909,6.909-16.213,6.91,16.213,16.213,6.909-16.448,7.167Z" transform="translate(-2058.044 1718.263)" fill="none" stroke="#000" stroke-miterlimit="10" stroke-width="2.976"/>
        <path id="Path_438" data-name="Path 438" d="M2228.871-1126.052l-6.909-16.213-16.213-6.909,16.213-6.909,6.909-16.213,6.91,16.213,16.213,6.909-16.448,7.167Z" transform="translate(-2020.77 1680.989)" fill="none" stroke="#000" stroke-miterlimit="10" stroke-width="2.976"/>
        <path id="Path_439" data-name="Path 439" d="M2312.39-1126.052l-6.909-16.213-16.213-6.909,16.213-6.909,6.909-16.213,6.91,16.213,16.213,6.909-16.448,7.167Z" transform="translate(-2058.044 1680.989)" fill="none" stroke="#000" stroke-miterlimit="10" stroke-width="2.976"/>
        <path id="Path_440" data-name="Path 440" d="M2395.909-1209.571,2389-1225.784l-16.213-6.909L2389-1239.6l6.909-16.213,6.91,16.213,16.213,6.909-16.449,7.167Z" transform="translate(-2095.318 1718.263)" fill="none" stroke="#000" stroke-miterlimit="10" stroke-width="2.976"/>
        <path id="Path_441" data-name="Path 441" d="M2479.428-1209.571l-6.909-16.213-16.213-6.909,16.213-6.909,6.909-16.213,6.91,16.213,16.213,6.909-16.448,7.167Z" transform="translate(-2132.592 1718.263)" fill="none" stroke="#000" stroke-miterlimit="10" stroke-width="2.976"/>
        <path id="Path_442" data-name="Path 442" d="M2395.909-1126.052,2389-1142.265l-16.213-6.909,16.213-6.909,6.909-16.213,6.91,16.213,16.213,6.909-16.449,7.167Z" transform="translate(-2095.318 1680.989)" fill="none" stroke="#000" stroke-miterlimit="10" stroke-width="2.976"/>
        <path id="Path_443" data-name="Path 443" d="M2479.428-1126.052l-6.909-16.213-16.213-6.909,16.213-6.909,6.909-16.213,6.91,16.213,16.213,6.909-16.448,7.167Z" transform="translate(-2132.592 1680.989)" fill="none" stroke="#000" stroke-miterlimit="10" stroke-width="2.976"/>
        <path id="Path_444" data-name="Path 444" d="M1894.8-1042.532l-6.909-16.213-16.213-6.909,16.213-6.909,6.909-16.213,6.909,16.213,16.213,6.909-16.448,7.167Z" transform="translate(-1871.673 1643.715)" fill="none" stroke="#000" stroke-miterlimit="10" stroke-width="2.976"/>
        <path id="Path_445" data-name="Path 445" d="M1978.314-1042.532l-6.909-16.213-16.213-6.909,16.213-6.909,6.909-16.213,6.909,16.213,16.213,6.909-16.449,7.167Z" transform="translate(-1908.947 1643.715)" fill="none" stroke="#000" stroke-miterlimit="10" stroke-width="2.976"/>
        <path id="Path_446" data-name="Path 446" d="M1894.8-959.013l-6.909-16.213-16.213-6.909,16.213-6.909,6.909-16.213,6.909,16.213,16.213,6.909-16.448,7.167Z" transform="translate(-1871.673 1606.441)" fill="none" stroke="#000" stroke-miterlimit="10" stroke-width="2.976"/>
        <path id="Path_447" data-name="Path 447" d="M1978.314-959.013l-6.909-16.213-16.213-6.909,16.213-6.909,6.909-16.213,6.909,16.213,16.213,6.909-16.449,7.167Z" transform="translate(-1908.947 1606.441)" fill="none" stroke="#000" stroke-miterlimit="10" stroke-width="2.976"/>
        <path id="Path_448" data-name="Path 448" d="M2061.833-1042.532l-6.909-16.213-16.213-6.909,16.213-6.909,6.909-16.213,6.909,16.213,16.213,6.909-16.449,7.167Z" transform="translate(-1946.221 1643.715)" fill="none" stroke="#000" stroke-miterlimit="10" stroke-width="2.976"/>
        <path id="Path_449" data-name="Path 449" d="M2145.352-1042.532l-6.909-16.213-16.213-6.909,16.213-6.909,6.909-16.213,6.909,16.213,16.213,6.909-16.448,7.167Z" transform="translate(-1983.495 1643.715)" fill="none" stroke="#000" stroke-miterlimit="10" stroke-width="2.976"/>
        <path id="Path_450" data-name="Path 450" d="M2061.833-959.013l-6.909-16.213-16.213-6.909,16.213-6.909,6.909-16.213,6.909,16.213,16.213,6.909-16.449,7.167Z" transform="translate(-1946.221 1606.441)" fill="none" stroke="#000" stroke-miterlimit="10" stroke-width="2.976"/>
        <path id="Path_451" data-name="Path 451" d="M2145.352-959.013l-6.909-16.213-16.213-6.909,16.213-6.909,6.909-16.213,6.909,16.213,16.213,6.909-16.448,7.167Z" transform="translate(-1983.495 1606.441)" fill="none" stroke="#000" stroke-miterlimit="10" stroke-width="2.976"/>
        <path id="Path_452" data-name="Path 452" d="M1894.8-875.494l-6.909-16.213-16.213-6.909,16.213-6.909,6.909-16.213,6.909,16.213,16.213,6.909-16.448,7.167Z" transform="translate(-1871.673 1569.166)" fill="none" stroke="#000" stroke-miterlimit="10" stroke-width="2.976"/>
        <path id="Path_453" data-name="Path 453" d="M1978.314-875.494l-6.909-16.213-16.213-6.909,16.213-6.909,6.909-16.213,6.909,16.213,16.213,6.909-16.449,7.167Z" transform="translate(-1908.947 1569.166)" fill="none" stroke="#000" stroke-miterlimit="10" stroke-width="2.976"/>
        <path id="Path_454" data-name="Path 454" d="M1894.8-791.975l-6.909-16.213-16.213-6.909,16.213-6.909,6.909-16.213,6.909,16.213,16.213,6.909-16.448,7.167Z" transform="translate(-1871.673 1531.892)" fill="none" stroke="#000" stroke-miterlimit="10" stroke-width="2.976"/>
        <path id="Path_455" data-name="Path 455" d="M1978.314-791.975l-6.909-16.213-16.213-6.909,16.213-6.909,6.909-16.213,6.909,16.213,16.213,6.909-16.449,7.167Z" transform="translate(-1908.947 1531.892)" fill="none" stroke="#000" stroke-miterlimit="10" stroke-width="2.976"/>
        <path id="Path_456" data-name="Path 456" d="M2061.833-875.494l-6.909-16.213-16.213-6.909,16.213-6.909,6.909-16.213,6.909,16.213,16.213,6.909-16.449,7.167Z" transform="translate(-1946.221 1569.166)" fill="none" stroke="#000" stroke-miterlimit="10" stroke-width="2.976"/>
        <path id="Path_457" data-name="Path 457" d="M2145.352-875.494l-6.909-16.213-16.213-6.909,16.213-6.909,6.909-16.213,6.909,16.213,16.213,6.909-16.448,7.167Z" transform="translate(-1983.495 1569.166)" fill="none" stroke="#000" stroke-miterlimit="10" stroke-width="2.976"/>
        <path id="Path_458" data-name="Path 458" d="M2061.833-791.975l-6.909-16.213-16.213-6.909,16.213-6.909,6.909-16.213,6.909,16.213,16.213,6.909-16.449,7.167Z" transform="translate(-1946.221 1531.892)" fill="none" stroke="#000" stroke-miterlimit="10" stroke-width="2.976"/>
        <path id="Path_459" data-name="Path 459" d="M2145.352-791.975l-6.909-16.213L2122.23-815.1l16.213-6.909,6.909-16.213,6.909,16.213,16.213,6.909-16.448,7.167Z" transform="translate(-1983.495 1531.892)" fill="none" stroke="#000" stroke-miterlimit="10" stroke-width="2.976"/>
        <path id="Path_460" data-name="Path 460" d="M2228.871-1042.532l-6.909-16.213-16.213-6.909,16.213-6.909,6.909-16.213,6.91,16.213,16.213,6.909-16.448,7.167Z" transform="translate(-2020.77 1643.715)" fill="none" stroke="#000" stroke-miterlimit="10" stroke-width="2.976"/>
        <path id="Path_461" data-name="Path 461" d="M2312.39-1042.532l-6.909-16.213-16.213-6.909,16.213-6.909,6.909-16.213,6.91,16.213,16.213,6.909-16.448,7.167Z" transform="translate(-2058.044 1643.715)" fill="none" stroke="#000" stroke-miterlimit="10" stroke-width="2.976"/>
        <path id="Path_462" data-name="Path 462" d="M2228.871-959.013l-6.909-16.213-16.213-6.909,16.213-6.909,6.909-16.213,6.91,16.213,16.213,6.909-16.448,7.167Z" transform="translate(-2020.77 1606.441)" fill="none" stroke="#000" stroke-miterlimit="10" stroke-width="2.976"/>
        <path id="Path_463" data-name="Path 463" d="M2312.39-959.013l-6.909-16.213-16.213-6.909,16.213-6.909,6.909-16.213,6.91,16.213,16.213,6.909-16.448,7.167Z" transform="translate(-2058.044 1606.441)" fill="none" stroke="#000" stroke-miterlimit="10" stroke-width="2.976"/>
        <path id="Path_464" data-name="Path 464" d="M2395.909-1042.532,2389-1058.745l-16.213-6.909,16.213-6.909,6.909-16.213,6.91,16.213,16.213,6.909-16.449,7.167Z" transform="translate(-2095.318 1643.715)" fill="none" stroke="#000" stroke-miterlimit="10" stroke-width="2.976"/>
        <path id="Path_465" data-name="Path 465" d="M2479.428-1042.532l-6.909-16.213-16.213-6.909,16.213-6.909,6.909-16.213,6.91,16.213,16.213,6.909-16.448,7.167Z" transform="translate(-2132.592 1643.715)" fill="none" stroke="#000" stroke-miterlimit="10" stroke-width="2.976"/>
        <path id="Path_466" data-name="Path 466" d="M2395.909-959.013,2389-975.226l-16.213-6.909L2389-989.045l6.909-16.213,6.91,16.213,16.213,6.909-16.449,7.167Z" transform="translate(-2095.318 1606.441)" fill="none" stroke="#000" stroke-miterlimit="10" stroke-width="2.976"/>
        <path id="Path_467" data-name="Path 467" d="M2479.428-959.013l-6.909-16.213-16.213-6.909,16.213-6.909,6.909-16.213,6.91,16.213,16.213,6.909-16.448,7.167Z" transform="translate(-2132.592 1606.441)" fill="none" stroke="#000" stroke-miterlimit="10" stroke-width="2.976"/>
        <path id="Path_468" data-name="Path 468" d="M2228.871-875.494l-6.909-16.213-16.213-6.909,16.213-6.909,6.909-16.213,6.91,16.213,16.213,6.909-16.448,7.167Z" transform="translate(-2020.77 1569.166)" fill="none" stroke="#000" stroke-miterlimit="10" stroke-width="2.976"/>
        <path id="Path_469" data-name="Path 469" d="M2312.39-875.494l-6.909-16.213-16.213-6.909,16.213-6.909,6.909-16.213,6.91,16.213,16.213,6.909-16.448,7.167Z" transform="translate(-2058.044 1569.166)" fill="none" stroke="#000" stroke-miterlimit="10" stroke-width="2.976"/>
        <path id="Path_470" data-name="Path 470" d="M2228.871-791.975l-6.909-16.213-16.213-6.909,16.213-6.909,6.909-16.213,6.91,16.213,16.213,6.909-16.448,7.167Z" transform="translate(-2020.77 1531.892)" fill="none" stroke="#000" stroke-miterlimit="10" stroke-width="2.976"/>
        <path id="Path_471" data-name="Path 471" d="M2312.39-791.975l-6.909-16.213-16.213-6.909,16.213-6.909,6.909-16.213,6.91,16.213,16.213,6.909-16.448,7.167Z" transform="translate(-2058.044 1531.892)" fill="none" stroke="#000" stroke-miterlimit="10" stroke-width="2.976"/>
        <path id="Path_472" data-name="Path 472" d="M2395.909-875.494,2389-891.707l-16.213-6.909L2389-905.526l6.909-16.213,6.91,16.213,16.213,6.909-16.449,7.167Z" transform="translate(-2095.318 1569.166)" fill="none" stroke="#000" stroke-miterlimit="10" stroke-width="2.976"/>
        <path id="Path_473" data-name="Path 473" d="M2479.428-875.494l-6.909-16.213-16.213-6.909,16.213-6.909,6.909-16.213,6.91,16.213,16.213,6.909L2486.1-891.45Z" transform="translate(-2132.592 1569.166)" fill="none" stroke="#000" stroke-miterlimit="10" stroke-width="2.976"/>
        <path id="Path_474" data-name="Path 474" d="M2395.909-791.975,2389-808.188l-16.213-6.909L2389-822.007l6.909-16.213,6.91,16.213,16.213,6.909-16.449,7.167Z" transform="translate(-2095.318 1531.892)" fill="none" stroke="#000" stroke-miterlimit="10" stroke-width="2.976"/>
        <path id="Path_475" data-name="Path 475" d="M2479.428-791.975l-6.909-16.213-16.213-6.909,16.213-6.909,6.909-16.213,6.91,16.213,16.213,6.909-16.448,7.167Z" transform="translate(-2132.592 1531.892)" fill="none" stroke="#000" stroke-miterlimit="10" stroke-width="2.976"/>
        <path id="Path_476" data-name="Path 476" d="M2562.948-1376.609l-6.909-16.213-16.213-6.909,16.213-6.909,6.909-16.213,6.909,16.213,16.213,6.909-16.449,7.167Z" transform="translate(-2169.867 1792.812)" fill="none" stroke="#000" stroke-miterlimit="10" stroke-width="2.976"/>
        <path id="Path_477" data-name="Path 477" d="M2646.466-1376.609l-6.909-16.213-16.213-6.909,16.213-6.909,6.909-16.213,6.91,16.213,16.213,6.909-16.449,7.167Z" transform="translate(-2207.141 1792.812)" fill="none" stroke="#000" stroke-miterlimit="10" stroke-width="2.976"/>
        <path id="Path_478" data-name="Path 478" d="M2562.948-1293.09l-6.909-16.213-16.213-6.909,16.213-6.909,6.909-16.213,6.909,16.213,16.213,6.909-16.449,7.167Z" transform="translate(-2169.867 1755.538)" fill="none" stroke="#000" stroke-miterlimit="10" stroke-width="2.976"/>
        <path id="Path_479" data-name="Path 479" d="M2646.466-1293.09l-6.909-16.213-16.213-6.909,16.213-6.909,6.909-16.213,6.91,16.213,16.213,6.909-16.449,7.167Z" transform="translate(-2207.141 1755.538)" fill="none" stroke="#000" stroke-miterlimit="10" stroke-width="2.976"/>
        <path id="Path_480" data-name="Path 480" d="M2729.986-1376.609l-6.909-16.213-16.213-6.909,16.213-6.909,6.909-16.213,6.909,16.213,16.213,6.909-16.449,7.167Z" transform="translate(-2244.415 1792.812)" fill="none" stroke="#000" stroke-miterlimit="10" stroke-width="2.976"/>
        <path id="Path_481" data-name="Path 481" d="M2813.5-1376.609l-6.909-16.213-16.213-6.909,16.213-6.909,6.909-16.213,6.91,16.213,16.213,6.909-16.449,7.167Z" transform="translate(-2281.689 1792.812)" fill="none" stroke="#000" stroke-miterlimit="10" stroke-width="2.976"/>
        <path id="Path_482" data-name="Path 482" d="M2729.986-1293.09l-6.909-16.213-16.213-6.909,16.213-6.909,6.909-16.213,6.909,16.213,16.213,6.909-16.449,7.167Z" transform="translate(-2244.415 1755.538)" fill="none" stroke="#000" stroke-miterlimit="10" stroke-width="2.976"/>
        <path id="Path_483" data-name="Path 483" d="M2813.5-1293.09,2806.6-1309.3l-16.213-6.909,16.213-6.909,6.909-16.213,6.91,16.213,16.213,6.909-16.449,7.167Z" transform="translate(-2281.689 1755.538)" fill="none" stroke="#000" stroke-miterlimit="10" stroke-width="2.976"/>
        <path id="Path_484" data-name="Path 484" d="M2562.948-1209.571l-6.909-16.213-16.213-6.909,16.213-6.909,6.909-16.213,6.909,16.213,16.213,6.909-16.449,7.167Z" transform="translate(-2169.867 1718.263)" fill="none" stroke="#000" stroke-miterlimit="10" stroke-width="2.976"/>
        <path id="Path_485" data-name="Path 485" d="M2646.466-1209.571l-6.909-16.213-16.213-6.909,16.213-6.909,6.909-16.213,6.91,16.213,16.213,6.909-16.449,7.167Z" transform="translate(-2207.141 1718.263)" fill="none" stroke="#000" stroke-miterlimit="10" stroke-width="2.976"/>
        <path id="Path_486" data-name="Path 486" d="M2562.948-1126.052l-6.909-16.213-16.213-6.909,16.213-6.909,6.909-16.213,6.909,16.213,16.213,6.909-16.449,7.167Z" transform="translate(-2169.867 1680.989)" fill="none" stroke="#000" stroke-miterlimit="10" stroke-width="2.976"/>
        <path id="Path_487" data-name="Path 487" d="M2646.466-1126.052l-6.909-16.213-16.213-6.909,16.213-6.909,6.909-16.213,6.91,16.213,16.213,6.909-16.449,7.167Z" transform="translate(-2207.141 1680.989)" fill="none" stroke="#000" stroke-miterlimit="10" stroke-width="2.976"/>
        <path id="Path_488" data-name="Path 488" d="M2729.986-1209.571l-6.909-16.213-16.213-6.909,16.213-6.909,6.909-16.213,6.909,16.213,16.213,6.909-16.449,7.167Z" transform="translate(-2244.415 1718.263)" fill="none" stroke="#000" stroke-miterlimit="10" stroke-width="2.976"/>
        <path id="Path_489" data-name="Path 489" d="M2813.5-1209.571l-6.909-16.213-16.213-6.909,16.213-6.909,6.909-16.213,6.91,16.213,16.213,6.909-16.449,7.167Z" transform="translate(-2281.689 1718.263)" fill="none" stroke="#000" stroke-miterlimit="10" stroke-width="2.976"/>
        <path id="Path_490" data-name="Path 490" d="M2729.986-1126.052l-6.909-16.213-16.213-6.909,16.213-6.909,6.909-16.213,6.909,16.213,16.213,6.909-16.449,7.167Z" transform="translate(-2244.415 1680.989)" fill="none" stroke="#000" stroke-miterlimit="10" stroke-width="2.976"/>
        <path id="Path_491" data-name="Path 491" d="M2813.5-1126.052l-6.909-16.213-16.213-6.909,16.213-6.909,6.909-16.213,6.91,16.213,16.213,6.909-16.449,7.167Z" transform="translate(-2281.689 1680.989)" fill="none" stroke="#000" stroke-miterlimit="10" stroke-width="2.976"/>
        <path id="Path_492" data-name="Path 492" d="M2897.023-1376.609l-6.909-16.213-16.213-6.909,16.213-6.909,6.909-16.213,6.909,16.213,16.213,6.909-16.449,7.167Z" transform="translate(-2318.964 1792.812)" fill="none" stroke="#000" stroke-miterlimit="10" stroke-width="2.976"/>
        <path id="Path_493" data-name="Path 493" d="M2980.542-1376.609l-6.909-16.213-16.213-6.909,16.213-6.909,6.909-16.213,6.909,16.213,16.213,6.909-16.449,7.167Z" transform="translate(-2356.238 1792.812)" fill="none" stroke="#000" stroke-miterlimit="10" stroke-width="2.976"/>
        <path id="Path_494" data-name="Path 494" d="M2897.023-1293.09l-6.909-16.213-16.213-6.909,16.213-6.909,6.909-16.213,6.909,16.213,16.213,6.909-16.449,7.167Z" transform="translate(-2318.964 1755.538)" fill="none" stroke="#000" stroke-miterlimit="10" stroke-width="2.976"/>
        <path id="Path_495" data-name="Path 495" d="M2980.542-1293.09l-6.909-16.213-16.213-6.909,16.213-6.909,6.909-16.213,6.909,16.213,16.213,6.909-16.449,7.167Z" transform="translate(-2356.238 1755.538)" fill="none" stroke="#000" stroke-miterlimit="10" stroke-width="2.976"/>
        <path id="Path_496" data-name="Path 496" d="M3064.062-1376.609l-6.909-16.213-16.213-6.909,16.213-6.909,6.909-16.213,6.909,16.213,16.213,6.909-16.449,7.167Z" transform="translate(-2393.512 1792.812)" fill="none" stroke="#000" stroke-miterlimit="10" stroke-width="2.976"/>
        <path id="Path_497" data-name="Path 497" d="M3147.581-1376.609l-6.909-16.213-16.213-6.909,16.213-6.909,6.909-16.213,6.909,16.213,16.213,6.909-16.449,7.167Z" transform="translate(-2430.787 1792.812)" fill="none" stroke="#000" stroke-miterlimit="10" stroke-width="2.976"/>
        <path id="Path_498" data-name="Path 498" d="M3064.062-1293.09l-6.909-16.213-16.213-6.909,16.213-6.909,6.909-16.213,6.909,16.213,16.213,6.909-16.449,7.167Z" transform="translate(-2393.512 1755.538)" fill="none" stroke="#000" stroke-miterlimit="10" stroke-width="2.976"/>
        <path id="Path_499" data-name="Path 499" d="M3147.581-1293.09l-6.909-16.213-16.213-6.909,16.213-6.909,6.909-16.213,6.909,16.213,16.213,6.909-16.449,7.167Z" transform="translate(-2430.787 1755.538)" fill="none" stroke="#000" stroke-miterlimit="10" stroke-width="2.976"/>
        <path id="Path_500" data-name="Path 500" d="M2897.023-1209.571l-6.909-16.213-16.213-6.909,16.213-6.909,6.909-16.213,6.909,16.213,16.213,6.909-16.449,7.167Z" transform="translate(-2318.964 1718.263)" fill="none" stroke="#000" stroke-miterlimit="10" stroke-width="2.976"/>
        <path id="Path_501" data-name="Path 501" d="M2980.542-1209.571l-6.909-16.213-16.213-6.909,16.213-6.909,6.909-16.213,6.909,16.213,16.213,6.909-16.449,7.167Z" transform="translate(-2356.238 1718.263)" fill="none" stroke="#000" stroke-miterlimit="10" stroke-width="2.976"/>
        <path id="Path_502" data-name="Path 502" d="M2897.023-1126.052l-6.909-16.213-16.213-6.909,16.213-6.909,6.909-16.213,6.909,16.213,16.213,6.909-16.449,7.167Z" transform="translate(-2318.964 1680.989)" fill="none" stroke="#000" stroke-miterlimit="10" stroke-width="2.976"/>
        <path id="Path_503" data-name="Path 503" d="M2980.542-1126.052l-6.909-16.213-16.213-6.909,16.213-6.909,6.909-16.213,6.909,16.213,16.213,6.909-16.449,7.167Z" transform="translate(-2356.238 1680.989)" fill="none" stroke="#000" stroke-miterlimit="10" stroke-width="2.976"/>
        <path id="Path_504" data-name="Path 504" d="M3064.062-1209.571l-6.909-16.213-16.213-6.909,16.213-6.909,6.909-16.213,6.909,16.213,16.213,6.909-16.449,7.167Z" transform="translate(-2393.512 1718.263)" fill="none" stroke="#000" stroke-miterlimit="10" stroke-width="2.976"/>
        <path id="Path_505" data-name="Path 505" d="M3147.581-1209.571l-6.909-16.213-16.213-6.909,16.213-6.909,6.909-16.213,6.909,16.213,16.213,6.909-16.449,7.167Z" transform="translate(-2430.787 1718.263)" fill="none" stroke="#000" stroke-miterlimit="10" stroke-width="2.976"/>
        <path id="Path_506" data-name="Path 506" d="M3064.062-1126.052l-6.909-16.213-16.213-6.909,16.213-6.909,6.909-16.213,6.909,16.213,16.213,6.909-16.449,7.167Z" transform="translate(-2393.512 1680.989)" fill="none" stroke="#000" stroke-miterlimit="10" stroke-width="2.976"/>
        <path id="Path_507" data-name="Path 507" d="M3147.581-1126.052l-6.909-16.213-16.213-6.909,16.213-6.909,6.909-16.213,6.909,16.213,16.213,6.909-16.449,7.167Z" transform="translate(-2430.787 1680.989)" fill="none" stroke="#000" stroke-miterlimit="10" stroke-width="2.976"/>
        <path id="Path_508" data-name="Path 508" d="M2562.948-1042.532l-6.909-16.213-16.213-6.909,16.213-6.909,6.909-16.213,6.909,16.213,16.213,6.909-16.449,7.167Z" transform="translate(-2169.867 1643.715)" fill="none" stroke="#000" stroke-miterlimit="10" stroke-width="2.976"/>
        <path id="Path_509" data-name="Path 509" d="M2646.466-1042.532l-6.909-16.213-16.213-6.909,16.213-6.909,6.909-16.213,6.91,16.213,16.213,6.909-16.449,7.167Z" transform="translate(-2207.141 1643.715)" fill="none" stroke="#000" stroke-miterlimit="10" stroke-width="2.976"/>
        <path id="Path_510" data-name="Path 510" d="M2562.948-959.013l-6.909-16.213-16.213-6.909,16.213-6.909,6.909-16.213,6.909,16.213,16.213,6.909-16.449,7.167Z" transform="translate(-2169.867 1606.441)" fill="none" stroke="#000" stroke-miterlimit="10" stroke-width="2.976"/>
        <path id="Path_511" data-name="Path 511" d="M2646.466-959.013l-6.909-16.213-16.213-6.909,16.213-6.909,6.909-16.213,6.91,16.213,16.213,6.909-16.449,7.167Z" transform="translate(-2207.141 1606.441)" fill="none" stroke="#000" stroke-miterlimit="10" stroke-width="2.976"/>
        <path id="Path_512" data-name="Path 512" d="M2729.986-1042.532l-6.909-16.213-16.213-6.909,16.213-6.909,6.909-16.213,6.909,16.213,16.213,6.909-16.449,7.167Z" transform="translate(-2244.415 1643.715)" fill="none" stroke="#000" stroke-miterlimit="10" stroke-width="2.976"/>
        <path id="Path_513" data-name="Path 513" d="M2813.5-1042.532l-6.909-16.213-16.213-6.909,16.213-6.909,6.909-16.213,6.91,16.213,16.213,6.909-16.449,7.167Z" transform="translate(-2281.689 1643.715)" fill="none" stroke="#000" stroke-miterlimit="10" stroke-width="2.976"/>
        <path id="Path_514" data-name="Path 514" d="M2729.986-959.013l-6.909-16.213-16.213-6.909,16.213-6.909,6.909-16.213,6.909,16.213,16.213,6.909-16.449,7.167Z" transform="translate(-2244.415 1606.441)" fill="none" stroke="#000" stroke-miterlimit="10" stroke-width="2.976"/>
        <path id="Path_515" data-name="Path 515" d="M2813.5-959.013l-6.909-16.213-16.213-6.909,16.213-6.909,6.909-16.213,6.91,16.213,16.213,6.909-16.449,7.167Z" transform="translate(-2281.689 1606.441)" fill="none" stroke="#000" stroke-miterlimit="10" stroke-width="2.976"/>
        <path id="Path_516" data-name="Path 516" d="M2562.948-875.494l-6.909-16.213-16.213-6.909,16.213-6.909,6.909-16.213,6.909,16.213,16.213,6.909-16.449,7.167Z" transform="translate(-2169.867 1569.166)" fill="none" stroke="#000" stroke-miterlimit="10" stroke-width="2.976"/>
        <path id="Path_517" data-name="Path 517" d="M2646.466-875.494l-6.909-16.213-16.213-6.909,16.213-6.909,6.909-16.213,6.91,16.213,16.213,6.909-16.449,7.167Z" transform="translate(-2207.141 1569.166)" fill="none" stroke="#000" stroke-miterlimit="10" stroke-width="2.976"/>
        <path id="Path_518" data-name="Path 518" d="M2562.948-791.975l-6.909-16.213-16.213-6.909,16.213-6.909,6.909-16.213,6.909,16.213,16.213,6.909-16.449,7.167Z" transform="translate(-2169.867 1531.892)" fill="none" stroke="#000" stroke-miterlimit="10" stroke-width="2.976"/>
        <path id="Path_519" data-name="Path 519" d="M2646.466-791.975l-6.909-16.213-16.213-6.909,16.213-6.909,6.909-16.213,6.91,16.213,16.213,6.909-16.449,7.167Z" transform="translate(-2207.141 1531.892)" fill="none" stroke="#000" stroke-miterlimit="10" stroke-width="2.976"/>
        <path id="Path_520" data-name="Path 520" d="M2729.986-875.494l-6.909-16.213-16.213-6.909,16.213-6.909,6.909-16.213,6.909,16.213,16.213,6.909-16.449,7.167Z" transform="translate(-2244.415 1569.166)" fill="none" stroke="#000" stroke-miterlimit="10" stroke-width="2.976"/>
        <path id="Path_521" data-name="Path 521" d="M2813.5-875.494l-6.909-16.213-16.213-6.909,16.213-6.909,6.909-16.213,6.91,16.213,16.213,6.909-16.449,7.167Z" transform="translate(-2281.689 1569.166)" fill="none" stroke="#000" stroke-miterlimit="10" stroke-width="2.976"/>
        <path id="Path_522" data-name="Path 522" d="M2729.986-791.975l-6.909-16.213-16.213-6.909,16.213-6.909,6.909-16.213,6.909,16.213,16.213,6.909-16.449,7.167Z" transform="translate(-2244.415 1531.892)" fill="none" stroke="#000" stroke-miterlimit="10" stroke-width="2.976"/>
        <path id="Path_523" data-name="Path 523" d="M2813.5-791.975l-6.909-16.213-16.213-6.909,16.213-6.909,6.909-16.213,6.91,16.213,16.213,6.909-16.449,7.167Z" transform="translate(-2281.689 1531.892)" fill="none" stroke="#000" stroke-miterlimit="10" stroke-width="2.976"/>
        <path id="Path_524" data-name="Path 524" d="M2897.023-1042.532l-6.909-16.213-16.213-6.909,16.213-6.909,6.909-16.213,6.909,16.213,16.213,6.909-16.449,7.167Z" transform="translate(-2318.964 1643.715)" fill="none" stroke="#000" stroke-miterlimit="10" stroke-width="2.976"/>
        <path id="Path_525" data-name="Path 525" d="M2980.542-1042.532l-6.909-16.213-16.213-6.909,16.213-6.909,6.909-16.213,6.909,16.213,16.213,6.909-16.449,7.167Z" transform="translate(-2356.238 1643.715)" fill="none" stroke="#000" stroke-miterlimit="10" stroke-width="2.976"/>
        <path id="Path_526" data-name="Path 526" d="M2897.023-959.013l-6.909-16.213-16.213-6.909,16.213-6.909,6.909-16.213,6.909,16.213,16.213,6.909-16.449,7.167Z" transform="translate(-2318.964 1606.441)" fill="none" stroke="#000" stroke-miterlimit="10" stroke-width="2.976"/>
        <path id="Path_527" data-name="Path 527" d="M2980.542-959.013l-6.909-16.213-16.213-6.909,16.213-6.909,6.909-16.213,6.909,16.213,16.213,6.909-16.449,7.167Z" transform="translate(-2356.238 1606.441)" fill="none" stroke="#000" stroke-miterlimit="10" stroke-width="2.976"/>
        <path id="Path_528" data-name="Path 528" d="M3064.062-1042.532l-6.909-16.213-16.213-6.909,16.213-6.909,6.909-16.213,6.909,16.213,16.213,6.909-16.449,7.167Z" transform="translate(-2393.512 1643.715)" fill="none" stroke="#000" stroke-miterlimit="10" stroke-width="2.976"/>
        <path id="Path_529" data-name="Path 529" d="M3147.581-1042.532l-6.909-16.213-16.213-6.909,16.213-6.909,6.909-16.213,6.909,16.213,16.213,6.909-16.449,7.167Z" transform="translate(-2430.787 1643.715)" fill="none" stroke="#000" stroke-miterlimit="10" stroke-width="2.976"/>
        <path id="Path_530" data-name="Path 530" d="M3064.062-959.013l-6.909-16.213-16.213-6.909,16.213-6.909,6.909-16.213,6.909,16.213,16.213,6.909-16.449,7.167Z" transform="translate(-2393.512 1606.441)" fill="none" stroke="#000" stroke-miterlimit="10" stroke-width="2.976"/>
        <path id="Path_531" data-name="Path 531" d="M3147.581-959.013l-6.909-16.213-16.213-6.909,16.213-6.909,6.909-16.213,6.909,16.213,16.213,6.909-16.449,7.167Z" transform="translate(-2430.787 1606.441)" fill="none" stroke="#000" stroke-miterlimit="10" stroke-width="2.976"/>
        <path id="Path_532" data-name="Path 532" d="M2897.023-875.494l-6.909-16.213-16.213-6.909,16.213-6.909,6.909-16.213,6.909,16.213,16.213,6.909L2903.7-891.45Z" transform="translate(-2318.964 1569.166)" fill="none" stroke="#000" stroke-miterlimit="10" stroke-width="2.976"/>
        <path id="Path_533" data-name="Path 533" d="M2980.542-875.494l-6.909-16.213-16.213-6.909,16.213-6.909,6.909-16.213,6.909,16.213,16.213,6.909-16.449,7.167Z" transform="translate(-2356.238 1569.166)" fill="none" stroke="#000" stroke-miterlimit="10" stroke-width="2.976"/>
        <path id="Path_534" data-name="Path 534" d="M2897.023-791.975l-6.909-16.213L2873.9-815.1l16.213-6.909,6.909-16.213,6.909,16.213,16.213,6.909-16.449,7.167Z" transform="translate(-2318.964 1531.892)" fill="none" stroke="#000" stroke-miterlimit="10" stroke-width="2.976"/>
        <path id="Path_535" data-name="Path 535" d="M2980.542-791.975l-6.909-16.213L2957.42-815.1l16.213-6.909,6.909-16.213,6.909,16.213,16.213,6.909-16.449,7.167Z" transform="translate(-2356.238 1531.892)" fill="none" stroke="#000" stroke-miterlimit="10" stroke-width="2.976"/>
        <path id="Path_536" data-name="Path 536" d="M3064.062-875.494l-6.909-16.213-16.213-6.909,16.213-6.909,6.909-16.213,6.909,16.213,16.213,6.909-16.449,7.167Z" transform="translate(-2393.512 1569.166)" fill="none" stroke="#000" stroke-miterlimit="10" stroke-width="2.976"/>
        <path id="Path_537" data-name="Path 537" d="M3147.581-875.494l-6.909-16.213-16.213-6.909,16.213-6.909,6.909-16.213,6.909,16.213,16.213,6.909-16.449,7.167Z" transform="translate(-2430.787 1569.166)" fill="none" stroke="#000" stroke-miterlimit="10" stroke-width="2.976"/>
        <path id="Path_538" data-name="Path 538" d="M3064.062-791.975l-6.909-16.213-16.213-6.909,16.213-6.909,6.909-16.213,6.909,16.213,16.213,6.909-16.449,7.167Z" transform="translate(-2393.512 1531.892)" fill="none" stroke="#000" stroke-miterlimit="10" stroke-width="2.976"/>
        <path id="Path_539" data-name="Path 539" d="M3147.581-791.975l-6.909-16.213-16.213-6.909,16.213-6.909,6.909-16.213,6.909,16.213L3170.7-815.1l-16.449,7.167Z" transform="translate(-2430.787 1531.892)" fill="none" stroke="#000" stroke-miterlimit="10" stroke-width="2.976"/>
      </g>
    </g>
  </g>
</svg>
