<svg xmlns="http://www.w3.org/2000/svg" xmlns:xlink="http://www.w3.org/1999/xlink" width="598" height="598" viewBox="0 0 598 598">
  <defs>
    <clipPath id="clip-path">
      <circle id="Ellipse_3" data-name="Ellipse 3" cx="299" cy="299" r="299" transform="translate(0 0)" fill="none"/>
    </clipPath>
  </defs>
  <g id="Group_151" data-name="Group 151" transform="translate(-1157.737 1952.844)">
    <g id="Group_150" data-name="Group 150" transform="translate(1157.737 -1952.844)" clip-path="url(#clip-path)">
      <path id="Path_266" data-name="Path 266" d="M1770.771-1851.672c0-207.6-168.9-376.5-376.5-376.5s-376.5,168.9-376.5,376.5v473.782c0,207.6,168.9,376.5,376.5,376.5s376.5-168.9,376.5-376.5Z" transform="translate(-1095.269 2075.723)" fill="none" stroke="#000" stroke-miterlimit="10" stroke-width="3.855"/>
      <path id="Path_267" data-name="Path 267" d="M1758.6-1801.094c0-173-140.747-313.751-313.751-313.751S1131.1-1974.1,1131.1-1801.094v473.782c0,173,140.747,313.751,313.751,313.751S1758.6-1154.308,1758.6-1327.312Z" transform="translate(-1145.847 2025.145)" fill="none" stroke="#000" stroke-miterlimit="10" stroke-width="3.855"/>
      <path id="Path_268" data-name="Path 268" d="M1746.426-1750.516c0-138.4-112.6-251-251-251s-251,112.6-251,251v473.782c0,138.4,112.6,251,251,251s251-112.6,251-251Z" transform="translate(-1196.425 1974.566)" fill="none" stroke="#000" stroke-miterlimit="10" stroke-width="3.855"/>
      <path id="Path_269" data-name="Path 269" d="M1740.34-1251.445c0,121.1-98.525,219.625-219.625,219.625s-219.626-98.525-219.626-219.625v-473.781c0-121.1,98.525-219.625,219.626-219.625s219.625,98.525,219.625,219.625Z" transform="translate(-1221.715 1949.277)" fill="none" stroke="#000" stroke-miterlimit="10" stroke-width="3.855"/>
      <path id="Path_270" data-name="Path 270" d="M1728.17-1200.87a156.875,156.875,0,0,1-156.875,156.875,156.875,156.875,0,0,1-156.875-156.875v-473.782a156.876,156.876,0,0,1,156.875-156.875,156.875,156.875,0,0,1,156.875,156.875Z" transform="translate(-1272.293 1898.701)" fill="none" stroke="#000" stroke-miterlimit="10" stroke-width="3.855"/>
      <path id="Path_271" data-name="Path 271" d="M1716-1150.29a94.232,94.232,0,0,1-94.125,94.125,94.232,94.232,0,0,1-94.125-94.125v-473.781a94.232,94.232,0,0,1,94.125-94.125A94.232,94.232,0,0,1,1716-1624.072Z" transform="translate(-1322.872 1848.122)" fill="none" stroke="#000" stroke-miterlimit="10" stroke-width="3.855"/>
      <path id="Path_272" data-name="Path 272" d="M1703.826-1099.712a31.412,31.412,0,0,1-31.375,31.375,31.412,31.412,0,0,1-31.375-31.375v-473.781a31.412,31.412,0,0,1,31.375-31.375,31.413,31.413,0,0,1,31.375,31.375Z" transform="translate(-1373.449 1797.544)" fill="none" stroke="#000" stroke-miterlimit="10" stroke-width="3.855"/>
      <path id="Path_273" data-name="Path 273" d="M1764.685-1352.6c0,190.3-154.823,345.126-345.126,345.126S1074.432-1162.3,1074.432-1352.6v-473.781c0-190.3,154.823-345.126,345.126-345.126s345.126,154.823,345.126,345.126Z" transform="translate(-1120.558 2050.434)" fill="none" stroke="#000" stroke-miterlimit="10" stroke-width="3.855"/>
      <path id="Path_274" data-name="Path 274" d="M1752.512-1302.023c0,155.7-126.674,282.376-282.376,282.376s-282.376-126.674-282.376-282.376V-1775.8c0-155.7,126.674-282.375,282.376-282.375s282.376,126.673,282.376,282.375Z" transform="translate(-1171.136 1999.855)" fill="none" stroke="#000" stroke-miterlimit="10" stroke-width="3.855"/>
      <path id="Path_275" data-name="Path 275" d="M1734.254-1699.938c0-103.8-84.449-188.25-188.251-188.25s-188.25,84.449-188.25,188.25v473.781c0,103.8,84.449,188.251,188.25,188.251s188.251-84.449,188.251-188.251Z" transform="translate(-1247.004 1923.989)" fill="none" stroke="#000" stroke-miterlimit="10" stroke-width="3.855"/>
      <path id="Path_276" data-name="Path 276" d="M1722.084-1649.361a125.644,125.644,0,0,0-125.5-125.5,125.644,125.644,0,0,0-125.5,125.5v473.781a125.644,125.644,0,0,0,125.5,125.5,125.644,125.644,0,0,0,125.5-125.5Z" transform="translate(-1297.582 1873.411)" fill="none" stroke="#000" stroke-miterlimit="10" stroke-width="3.855"/>
      <path id="Path_277" data-name="Path 277" d="M1709.912-1598.783a62.82,62.82,0,0,0-62.75-62.75,62.82,62.82,0,0,0-62.75,62.75V-1125a62.82,62.82,0,0,0,62.75,62.75,62.82,62.82,0,0,0,62.75-62.75Z" transform="translate(-1348.161 1822.833)" fill="none" stroke="#000" stroke-miterlimit="10" stroke-width="3.855"/>
      <line id="Line_38" data-name="Line 38" y2="473.781" transform="translate(299 224.05)" fill="none" stroke="#000" stroke-miterlimit="10" stroke-width="3.855"/>
    </g>
  </g>
</svg>
