<svg xmlns="http://www.w3.org/2000/svg" xmlns:xlink="http://www.w3.org/1999/xlink" width="598" height="598" viewBox="0 0 598 598">
  <defs>
    <clipPath id="clip-path">
      <circle id="Ellipse_2" data-name="Ellipse 2" cx="299" cy="299" r="299" fill="none"/>
    </clipPath>
  </defs>
  <g id="Group_77" data-name="Group 77" transform="translate(2624.073 3041.085)">
    <g id="Group_76" data-name="Group 76" transform="translate(-2624.073 -3041.085)" clip-path="url(#clip-path)">
      <g id="Group_75" data-name="Group 75" transform="translate(-318.4 -19.925)">
        <g id="Group_69" data-name="Group 69" transform="translate(1022.107)">
          <path id="Path_99" data-name="Path 99" d="M-1219.848-2439.447l34.536-34.537a7.517,7.517,0,0,0,0-10.631l-29.221-29.221a7.518,7.518,0,0,1,0-10.632l29.221-29.221a7.518,7.518,0,0,0,0-10.632l-29.221-29.221a7.518,7.518,0,0,1,0-10.632l29.221-29.221a7.518,7.518,0,0,0,0-10.632l-29.221-29.221a7.518,7.518,0,0,1,0-10.632l29.221-29.221a7.517,7.517,0,0,0,0-10.631l-29.221-29.221a7.517,7.517,0,0,1,0-10.631l29.221-29.221a7.518,7.518,0,0,0,0-10.632l-29.221-29.221a7.518,7.518,0,0,1,0-10.632l29.221-29.221a7.518,7.518,0,0,0,0-10.632l-29.221-29.22a7.518,7.518,0,0,1,0-10.632l29.221-29.221a7.518,7.518,0,0,0,0-10.632l-29.221-29.221a7.517,7.517,0,0,1,0-10.631l29.221-29.221a7.517,7.517,0,0,0,0-10.631l-34.536-34.537" transform="translate(1293.387 3077.084)" fill="none" stroke="#000" stroke-miterlimit="10" stroke-width="2.91"/>
          <path id="Path_100" data-name="Path 100" d="M-1223.631-3077.084l-34.536,34.537a7.517,7.517,0,0,0,0,10.631l29.221,29.221a7.517,7.517,0,0,1,0,10.631l-29.221,29.221a7.518,7.518,0,0,0,0,10.632l29.221,29.221a7.518,7.518,0,0,1,0,10.632l-29.221,29.22a7.518,7.518,0,0,0,0,10.632l29.221,29.221a7.518,7.518,0,0,1,0,10.632l-29.221,29.221a7.518,7.518,0,0,0,0,10.632l29.221,29.221a7.517,7.517,0,0,1,0,10.631l-29.221,29.221a7.517,7.517,0,0,0,0,10.631l29.221,29.221a7.518,7.518,0,0,1,0,10.632l-29.221,29.221a7.518,7.518,0,0,0,0,10.632l29.221,29.221a7.518,7.518,0,0,1,0,10.632l-29.221,29.221a7.518,7.518,0,0,0,0,10.632l29.221,29.221a7.518,7.518,0,0,1,0,10.632l-29.221,29.221a7.517,7.517,0,0,0,0,10.631l34.536,34.537" transform="translate(1311.479 3077.084)" fill="none" stroke="#000" stroke-miterlimit="10" stroke-width="2.91"/>
          <path id="Path_101" data-name="Path 101" d="M-1312.187-2439.447l34.536-34.537a7.517,7.517,0,0,0,0-10.631l-29.221-29.221a7.517,7.517,0,0,1,0-10.632l29.221-29.221a7.518,7.518,0,0,0,0-10.632l-29.221-29.221a7.517,7.517,0,0,1,0-10.632l29.221-29.221a7.518,7.518,0,0,0,0-10.632l-29.221-29.221a7.517,7.517,0,0,1,0-10.632l29.221-29.221a7.517,7.517,0,0,0,0-10.631l-29.221-29.221a7.516,7.516,0,0,1,0-10.631l29.221-29.221a7.518,7.518,0,0,0,0-10.632l-29.221-29.221a7.517,7.517,0,0,1,0-10.632l29.221-29.221a7.518,7.518,0,0,0,0-10.632l-29.221-29.22a7.517,7.517,0,0,1,0-10.632l29.221-29.221a7.518,7.518,0,0,0,0-10.632l-29.221-29.221a7.517,7.517,0,0,1,0-10.631l29.221-29.221a7.517,7.517,0,0,0,0-10.631l-34.536-34.537" transform="translate(1334.616 3077.084)" fill="none" stroke="#000" stroke-miterlimit="10" stroke-width="2.91"/>
          <path id="Path_102" data-name="Path 102" d="M-1315.97-3077.084l-34.536,34.537a7.517,7.517,0,0,0,0,10.631l29.221,29.221a7.517,7.517,0,0,1,0,10.631l-29.221,29.221a7.518,7.518,0,0,0,0,10.632l29.221,29.221a7.518,7.518,0,0,1,0,10.632l-29.221,29.22a7.518,7.518,0,0,0,0,10.632l29.221,29.221a7.518,7.518,0,0,1,0,10.632l-29.221,29.221a7.518,7.518,0,0,0,0,10.632l29.221,29.221a7.517,7.517,0,0,1,0,10.631l-29.221,29.221a7.517,7.517,0,0,0,0,10.631l29.221,29.221a7.518,7.518,0,0,1,0,10.632l-29.221,29.221a7.518,7.518,0,0,0,0,10.632l29.221,29.221a7.518,7.518,0,0,1,0,10.632l-29.221,29.221a7.518,7.518,0,0,0,0,10.632l29.221,29.221a7.518,7.518,0,0,1,0,10.632l-29.221,29.221a7.517,7.517,0,0,0,0,10.631l34.536,34.537" transform="translate(1352.708 3077.084)" fill="none" stroke="#000" stroke-miterlimit="10" stroke-width="2.91"/>
          <path id="Path_103" data-name="Path 103" d="M-1035.205-2439.447l34.537-34.537a7.517,7.517,0,0,0,0-10.631l-29.221-29.221a7.518,7.518,0,0,1,0-10.632l29.221-29.221a7.518,7.518,0,0,0,0-10.632l-29.221-29.221a7.518,7.518,0,0,1,0-10.632l29.221-29.221a7.518,7.518,0,0,0,0-10.632l-29.221-29.221a7.518,7.518,0,0,1,0-10.632l29.221-29.221a7.518,7.518,0,0,0,0-10.631l-29.221-29.221a7.517,7.517,0,0,1,0-10.631l29.221-29.221a7.518,7.518,0,0,0,0-10.632l-29.221-29.221a7.518,7.518,0,0,1,0-10.632l29.221-29.221a7.518,7.518,0,0,0,0-10.632l-29.221-29.22a7.518,7.518,0,0,1,0-10.632l29.221-29.221a7.518,7.518,0,0,0,0-10.632l-29.221-29.221a7.517,7.517,0,0,1,0-10.631l29.221-29.221a7.517,7.517,0,0,0,0-10.631l-34.537-34.537" transform="translate(1210.945 3077.084)" fill="none" stroke="#000" stroke-miterlimit="10" stroke-width="2.91"/>
          <path id="Path_104" data-name="Path 104" d="M-1038.988-3077.084l-34.537,34.537a7.517,7.517,0,0,0,0,10.631l29.221,29.221a7.518,7.518,0,0,1,0,10.631l-29.221,29.221a7.518,7.518,0,0,0,0,10.632l29.221,29.221a7.518,7.518,0,0,1,0,10.632l-29.221,29.22a7.518,7.518,0,0,0,0,10.632l29.221,29.221a7.518,7.518,0,0,1,0,10.632l-29.221,29.221a7.518,7.518,0,0,0,0,10.632l29.221,29.221a7.517,7.517,0,0,1,0,10.631l-29.221,29.221a7.518,7.518,0,0,0,0,10.631l29.221,29.221a7.518,7.518,0,0,1,0,10.632l-29.221,29.221a7.518,7.518,0,0,0,0,10.632l29.221,29.221a7.518,7.518,0,0,1,0,10.632l-29.221,29.221a7.518,7.518,0,0,0,0,10.632l29.221,29.221a7.518,7.518,0,0,1,0,10.632l-29.221,29.221a7.517,7.517,0,0,0,0,10.631l34.537,34.537" transform="translate(1229.037 3077.084)" fill="none" stroke="#000" stroke-miterlimit="10" stroke-width="2.91"/>
          <path id="Path_105" data-name="Path 105" d="M-1127.544-2439.447l34.536-34.537a7.517,7.517,0,0,0,0-10.631l-29.221-29.221a7.518,7.518,0,0,1,0-10.632l29.221-29.221a7.518,7.518,0,0,0,0-10.632l-29.221-29.221a7.518,7.518,0,0,1,0-10.632l29.221-29.221a7.518,7.518,0,0,0,0-10.632l-29.221-29.221a7.518,7.518,0,0,1,0-10.632l29.221-29.221a7.517,7.517,0,0,0,0-10.631l-29.221-29.221a7.517,7.517,0,0,1,0-10.631l29.221-29.221a7.518,7.518,0,0,0,0-10.632l-29.221-29.221a7.518,7.518,0,0,1,0-10.632l29.221-29.221a7.518,7.518,0,0,0,0-10.632l-29.221-29.22a7.518,7.518,0,0,1,0-10.632l29.221-29.221a7.518,7.518,0,0,0,0-10.632l-29.221-29.221a7.517,7.517,0,0,1,0-10.631l29.221-29.221a7.517,7.517,0,0,0,0-10.631l-34.536-34.537" transform="translate(1252.174 3077.084)" fill="none" stroke="#000" stroke-miterlimit="10" stroke-width="2.91"/>
          <path id="Path_106" data-name="Path 106" d="M-1131.327-3077.084l-34.537,34.537a7.517,7.517,0,0,0,0,10.631l29.221,29.221a7.517,7.517,0,0,1,0,10.631l-29.221,29.221a7.518,7.518,0,0,0,0,10.632l29.221,29.221a7.518,7.518,0,0,1,0,10.632l-29.221,29.22a7.518,7.518,0,0,0,0,10.632l29.221,29.221a7.518,7.518,0,0,1,0,10.632l-29.221,29.221a7.518,7.518,0,0,0,0,10.632l29.221,29.221a7.517,7.517,0,0,1,0,10.631l-29.221,29.221a7.517,7.517,0,0,0,0,10.631l29.221,29.221a7.518,7.518,0,0,1,0,10.632l-29.221,29.221a7.518,7.518,0,0,0,0,10.632l29.221,29.221a7.518,7.518,0,0,1,0,10.632l-29.221,29.221a7.518,7.518,0,0,0,0,10.632l29.221,29.221a7.518,7.518,0,0,1,0,10.632l-29.221,29.221a7.517,7.517,0,0,0,0,10.631l34.537,34.537" transform="translate(1270.266 3077.084)" fill="none" stroke="#000" stroke-miterlimit="10" stroke-width="2.91"/>
        </g>
        <g id="Group_70" data-name="Group 70" transform="translate(817.686)">
          <path id="Path_107" data-name="Path 107" d="M-1589.17-2439.447l34.537-34.537a7.516,7.516,0,0,0,0-10.631l-29.221-29.221a7.518,7.518,0,0,1,0-10.632l29.221-29.221a7.517,7.517,0,0,0,0-10.632l-29.221-29.221a7.518,7.518,0,0,1,0-10.632l29.221-29.221a7.517,7.517,0,0,0,0-10.632l-29.221-29.221a7.518,7.518,0,0,1,0-10.632l29.221-29.221a7.517,7.517,0,0,0,0-10.631l-29.221-29.221a7.517,7.517,0,0,1,0-10.631l29.221-29.221a7.517,7.517,0,0,0,0-10.632l-29.221-29.221a7.518,7.518,0,0,1,0-10.632l29.221-29.221a7.517,7.517,0,0,0,0-10.632l-29.221-29.22a7.518,7.518,0,0,1,0-10.632l29.221-29.221a7.517,7.517,0,0,0,0-10.632l-29.221-29.221a7.518,7.518,0,0,1,0-10.631l29.221-29.221a7.516,7.516,0,0,0,0-10.631l-34.537-34.537" transform="translate(1662.708 3077.084)" fill="none" stroke="#000" stroke-miterlimit="10" stroke-width="2.91"/>
          <path id="Path_108" data-name="Path 108" d="M-1592.952-3077.084l-34.536,34.537a7.517,7.517,0,0,0,0,10.631l29.221,29.221a7.517,7.517,0,0,1,0,10.631l-29.221,29.221a7.518,7.518,0,0,0,0,10.632l29.221,29.221a7.518,7.518,0,0,1,0,10.632l-29.221,29.22a7.518,7.518,0,0,0,0,10.632l29.221,29.221a7.518,7.518,0,0,1,0,10.632l-29.221,29.221a7.518,7.518,0,0,0,0,10.632l29.221,29.221a7.517,7.517,0,0,1,0,10.631l-29.221,29.221a7.517,7.517,0,0,0,0,10.631l29.221,29.221a7.518,7.518,0,0,1,0,10.632l-29.221,29.221a7.518,7.518,0,0,0,0,10.632l29.221,29.221a7.518,7.518,0,0,1,0,10.632l-29.221,29.221a7.518,7.518,0,0,0,0,10.632l29.221,29.221a7.518,7.518,0,0,1,0,10.632l-29.221,29.221a7.517,7.517,0,0,0,0,10.631l34.536,34.537" transform="translate(1680.8 3077.084)" fill="none" stroke="#000" stroke-miterlimit="10" stroke-width="2.91"/>
          <path id="Path_109" data-name="Path 109" d="M-1681.509-2439.447l34.537-34.537a7.517,7.517,0,0,0,0-10.631l-29.221-29.221a7.518,7.518,0,0,1,0-10.632l29.221-29.221a7.518,7.518,0,0,0,0-10.632l-29.221-29.221a7.518,7.518,0,0,1,0-10.632l29.221-29.221a7.518,7.518,0,0,0,0-10.632l-29.221-29.221a7.518,7.518,0,0,1,0-10.632l29.221-29.221a7.517,7.517,0,0,0,0-10.631l-29.221-29.221a7.517,7.517,0,0,1,0-10.631l29.221-29.221a7.518,7.518,0,0,0,0-10.632l-29.221-29.221a7.518,7.518,0,0,1,0-10.632l29.221-29.221a7.518,7.518,0,0,0,0-10.632l-29.221-29.22a7.518,7.518,0,0,1,0-10.632l29.221-29.221a7.518,7.518,0,0,0,0-10.632l-29.221-29.221a7.517,7.517,0,0,1,0-10.631l29.221-29.221a7.517,7.517,0,0,0,0-10.631l-34.537-34.537" transform="translate(1703.937 3077.084)" fill="none" stroke="#000" stroke-miterlimit="10" stroke-width="2.91"/>
          <path id="Path_110" data-name="Path 110" d="M-1685.291-3077.084l-34.536,34.537a7.517,7.517,0,0,0,0,10.631l29.221,29.221a7.518,7.518,0,0,1,0,10.631l-29.221,29.221a7.518,7.518,0,0,0,0,10.632l29.221,29.221a7.518,7.518,0,0,1,0,10.632l-29.221,29.22a7.518,7.518,0,0,0,0,10.632l29.221,29.221a7.518,7.518,0,0,1,0,10.632l-29.221,29.221a7.518,7.518,0,0,0,0,10.632l29.221,29.221a7.517,7.517,0,0,1,0,10.631l-29.221,29.221a7.518,7.518,0,0,0,0,10.631l29.221,29.221a7.518,7.518,0,0,1,0,10.632l-29.221,29.221a7.518,7.518,0,0,0,0,10.632l29.221,29.221a7.518,7.518,0,0,1,0,10.632l-29.221,29.221a7.518,7.518,0,0,0,0,10.632l29.221,29.221a7.518,7.518,0,0,1,0,10.632l-29.221,29.221a7.517,7.517,0,0,0,0,10.631l34.536,34.537" transform="translate(1722.029 3077.084)" fill="none" stroke="#000" stroke-miterlimit="10" stroke-width="2.91"/>
          <path id="Path_111" data-name="Path 111" d="M-1404.526-2439.447l34.536-34.537a7.517,7.517,0,0,0,0-10.631l-29.221-29.221a7.518,7.518,0,0,1,0-10.632l29.221-29.221a7.518,7.518,0,0,0,0-10.632l-29.221-29.221a7.518,7.518,0,0,1,0-10.632l29.221-29.221a7.518,7.518,0,0,0,0-10.632l-29.221-29.221a7.518,7.518,0,0,1,0-10.632l29.221-29.221a7.517,7.517,0,0,0,0-10.631l-29.221-29.221a7.517,7.517,0,0,1,0-10.631l29.221-29.221a7.518,7.518,0,0,0,0-10.632l-29.221-29.221a7.518,7.518,0,0,1,0-10.632l29.221-29.221a7.518,7.518,0,0,0,0-10.632l-29.221-29.22a7.518,7.518,0,0,1,0-10.632l29.221-29.221a7.518,7.518,0,0,0,0-10.632l-29.221-29.221a7.517,7.517,0,0,1,0-10.631l29.221-29.221a7.517,7.517,0,0,0,0-10.631l-34.536-34.537" transform="translate(1580.266 3077.084)" fill="none" stroke="#000" stroke-miterlimit="10" stroke-width="2.91"/>
          <path id="Path_112" data-name="Path 112" d="M-1408.309-3077.084l-34.536,34.537a7.517,7.517,0,0,0,0,10.631l29.221,29.221a7.517,7.517,0,0,1,0,10.631l-29.221,29.221a7.518,7.518,0,0,0,0,10.632l29.221,29.221a7.518,7.518,0,0,1,0,10.632l-29.221,29.22a7.518,7.518,0,0,0,0,10.632l29.221,29.221a7.518,7.518,0,0,1,0,10.632l-29.221,29.221a7.518,7.518,0,0,0,0,10.632l29.221,29.221a7.517,7.517,0,0,1,0,10.631l-29.221,29.221a7.517,7.517,0,0,0,0,10.631l29.221,29.221a7.518,7.518,0,0,1,0,10.632l-29.221,29.221a7.518,7.518,0,0,0,0,10.632l29.221,29.221a7.518,7.518,0,0,1,0,10.632l-29.221,29.221a7.518,7.518,0,0,0,0,10.632l29.221,29.221a7.518,7.518,0,0,1,0,10.632l-29.221,29.221a7.517,7.517,0,0,0,0,10.631l34.536,34.537" transform="translate(1598.358 3077.084)" fill="none" stroke="#000" stroke-miterlimit="10" stroke-width="2.91"/>
          <path id="Path_113" data-name="Path 113" d="M-1496.866-2439.447l34.536-34.537a7.516,7.516,0,0,0,0-10.631l-29.221-29.221a7.518,7.518,0,0,1,0-10.632l29.221-29.221a7.517,7.517,0,0,0,0-10.632l-29.221-29.221a7.518,7.518,0,0,1,0-10.632l29.221-29.221a7.517,7.517,0,0,0,0-10.632l-29.221-29.221a7.518,7.518,0,0,1,0-10.632l29.221-29.221a7.516,7.516,0,0,0,0-10.631l-29.221-29.221a7.517,7.517,0,0,1,0-10.631l29.221-29.221a7.517,7.517,0,0,0,0-10.632l-29.221-29.221a7.518,7.518,0,0,1,0-10.632l29.221-29.221a7.517,7.517,0,0,0,0-10.632l-29.221-29.22a7.518,7.518,0,0,1,0-10.632l29.221-29.221a7.517,7.517,0,0,0,0-10.632l-29.221-29.221a7.517,7.517,0,0,1,0-10.631l29.221-29.221a7.516,7.516,0,0,0,0-10.631l-34.536-34.537" transform="translate(1621.495 3077.084)" fill="none" stroke="#000" stroke-miterlimit="10" stroke-width="2.91"/>
          <path id="Path_114" data-name="Path 114" d="M-1500.648-3077.084l-34.537,34.537a7.517,7.517,0,0,0,0,10.631l29.221,29.221a7.518,7.518,0,0,1,0,10.631l-29.221,29.221a7.518,7.518,0,0,0,0,10.632l29.221,29.221a7.518,7.518,0,0,1,0,10.632l-29.221,29.22a7.518,7.518,0,0,0,0,10.632l29.221,29.221a7.518,7.518,0,0,1,0,10.632l-29.221,29.221a7.518,7.518,0,0,0,0,10.632l29.221,29.221a7.517,7.517,0,0,1,0,10.631l-29.221,29.221a7.517,7.517,0,0,0,0,10.631l29.221,29.221a7.518,7.518,0,0,1,0,10.632l-29.221,29.221a7.518,7.518,0,0,0,0,10.632l29.221,29.221a7.518,7.518,0,0,1,0,10.632l-29.221,29.221a7.518,7.518,0,0,0,0,10.632l29.221,29.221a7.518,7.518,0,0,1,0,10.632l-29.221,29.221a7.517,7.517,0,0,0,0,10.631l34.537,34.537" transform="translate(1639.587 3077.084)" fill="none" stroke="#000" stroke-miterlimit="10" stroke-width="2.91"/>
        </g>
        <g id="Group_71" data-name="Group 71" transform="translate(613.264)">
          <path id="Path_115" data-name="Path 115" d="M-1958.491-2439.447l34.536-34.537a7.517,7.517,0,0,0,0-10.631l-29.221-29.221a7.518,7.518,0,0,1,0-10.632l29.221-29.221a7.518,7.518,0,0,0,0-10.632l-29.221-29.221a7.518,7.518,0,0,1,0-10.632l29.221-29.221a7.518,7.518,0,0,0,0-10.632l-29.221-29.221a7.518,7.518,0,0,1,0-10.632l29.221-29.221a7.517,7.517,0,0,0,0-10.631l-29.221-29.221a7.517,7.517,0,0,1,0-10.631l29.221-29.221a7.518,7.518,0,0,0,0-10.632l-29.221-29.221a7.518,7.518,0,0,1,0-10.632l29.221-29.221a7.518,7.518,0,0,0,0-10.632l-29.221-29.22a7.518,7.518,0,0,1,0-10.632l29.221-29.221a7.518,7.518,0,0,0,0-10.632l-29.221-29.221a7.517,7.517,0,0,1,0-10.631l29.221-29.221a7.517,7.517,0,0,0,0-10.631l-34.536-34.537" transform="translate(2032.03 3077.084)" fill="none" stroke="#000" stroke-miterlimit="10" stroke-width="2.91"/>
          <path id="Path_116" data-name="Path 116" d="M-1962.274-3077.084l-34.537,34.537a7.517,7.517,0,0,0,0,10.631l29.221,29.221a7.517,7.517,0,0,1,0,10.631l-29.221,29.221a7.518,7.518,0,0,0,0,10.632l29.221,29.221a7.518,7.518,0,0,1,0,10.632l-29.221,29.22a7.518,7.518,0,0,0,0,10.632l29.221,29.221a7.518,7.518,0,0,1,0,10.632l-29.221,29.221a7.518,7.518,0,0,0,0,10.632l29.221,29.221a7.517,7.517,0,0,1,0,10.631l-29.221,29.221a7.517,7.517,0,0,0,0,10.631l29.221,29.221a7.518,7.518,0,0,1,0,10.632l-29.221,29.221a7.518,7.518,0,0,0,0,10.632l29.221,29.221a7.518,7.518,0,0,1,0,10.632l-29.221,29.221a7.518,7.518,0,0,0,0,10.632l29.221,29.221a7.518,7.518,0,0,1,0,10.632l-29.221,29.221a7.517,7.517,0,0,0,0,10.631l34.537,34.537" transform="translate(2050.123 3077.084)" fill="none" stroke="#000" stroke-miterlimit="10" stroke-width="2.91"/>
          <path id="Path_117" data-name="Path 117" d="M-2050.83-2439.447l34.537-34.537a7.517,7.517,0,0,0,0-10.631l-29.221-29.221a7.518,7.518,0,0,1,0-10.632l29.221-29.221a7.518,7.518,0,0,0,0-10.632l-29.221-29.221a7.518,7.518,0,0,1,0-10.632l29.221-29.221a7.518,7.518,0,0,0,0-10.632l-29.221-29.221a7.518,7.518,0,0,1,0-10.632l29.221-29.221a7.517,7.517,0,0,0,0-10.631l-29.221-29.221a7.517,7.517,0,0,1,0-10.631l29.221-29.221a7.518,7.518,0,0,0,0-10.632l-29.221-29.221a7.518,7.518,0,0,1,0-10.632l29.221-29.221a7.518,7.518,0,0,0,0-10.632l-29.221-29.22a7.518,7.518,0,0,1,0-10.632l29.221-29.221a7.518,7.518,0,0,0,0-10.632l-29.221-29.221a7.518,7.518,0,0,1,0-10.631l29.221-29.221a7.517,7.517,0,0,0,0-10.631l-34.537-34.537" transform="translate(2073.259 3077.084)" fill="none" stroke="#000" stroke-miterlimit="10" stroke-width="2.91"/>
          <path id="Path_118" data-name="Path 118" d="M-2054.613-3077.084l-34.537,34.537a7.518,7.518,0,0,0,0,10.631l29.221,29.221a7.517,7.517,0,0,1,0,10.631l-29.221,29.221a7.518,7.518,0,0,0,0,10.632l29.221,29.221a7.518,7.518,0,0,1,0,10.632l-29.221,29.22a7.518,7.518,0,0,0,0,10.632l29.221,29.221a7.517,7.517,0,0,1,0,10.632l-29.221,29.221a7.518,7.518,0,0,0,0,10.632l29.221,29.221a7.517,7.517,0,0,1,0,10.631l-29.221,29.221a7.518,7.518,0,0,0,0,10.631l29.221,29.221a7.517,7.517,0,0,1,0,10.632l-29.221,29.221a7.518,7.518,0,0,0,0,10.632l29.221,29.221a7.518,7.518,0,0,1,0,10.632l-29.221,29.221a7.518,7.518,0,0,0,0,10.632l29.221,29.221a7.518,7.518,0,0,1,0,10.632l-29.221,29.221a7.518,7.518,0,0,0,0,10.631l34.537,34.537" transform="translate(2091.351 3077.084)" fill="none" stroke="#000" stroke-miterlimit="10" stroke-width="2.91"/>
          <path id="Path_119" data-name="Path 119" d="M-1773.848-2439.447l34.536-34.537a7.517,7.517,0,0,0,0-10.631l-29.22-29.221a7.518,7.518,0,0,1,0-10.632l29.22-29.221a7.518,7.518,0,0,0,0-10.632l-29.22-29.221a7.518,7.518,0,0,1,0-10.632l29.22-29.221a7.518,7.518,0,0,0,0-10.632l-29.22-29.221a7.518,7.518,0,0,1,0-10.632l29.22-29.221a7.517,7.517,0,0,0,0-10.631l-29.22-29.221a7.517,7.517,0,0,1,0-10.631l29.22-29.221a7.518,7.518,0,0,0,0-10.632l-29.22-29.221a7.518,7.518,0,0,1,0-10.632l29.22-29.221a7.518,7.518,0,0,0,0-10.632l-29.22-29.22a7.518,7.518,0,0,1,0-10.632l29.22-29.221a7.518,7.518,0,0,0,0-10.632l-29.22-29.221a7.517,7.517,0,0,1,0-10.631l29.22-29.221a7.517,7.517,0,0,0,0-10.631l-34.536-34.537" transform="translate(1949.588 3077.084)" fill="none" stroke="#000" stroke-miterlimit="10" stroke-width="2.91"/>
          <path id="Path_120" data-name="Path 120" d="M-1777.63-3077.084l-34.536,34.537a7.516,7.516,0,0,0,0,10.631l29.221,29.221a7.517,7.517,0,0,1,0,10.631l-29.221,29.221a7.517,7.517,0,0,0,0,10.632l29.221,29.221a7.518,7.518,0,0,1,0,10.632l-29.221,29.22a7.517,7.517,0,0,0,0,10.632l29.221,29.221a7.518,7.518,0,0,1,0,10.632l-29.221,29.221a7.517,7.517,0,0,0,0,10.632l29.221,29.221a7.517,7.517,0,0,1,0,10.631l-29.221,29.221a7.516,7.516,0,0,0,0,10.631l29.221,29.221a7.518,7.518,0,0,1,0,10.632l-29.221,29.221a7.517,7.517,0,0,0,0,10.632l29.221,29.221a7.518,7.518,0,0,1,0,10.632l-29.221,29.221a7.517,7.517,0,0,0,0,10.632l29.221,29.221a7.518,7.518,0,0,1,0,10.632l-29.221,29.221a7.516,7.516,0,0,0,0,10.631l34.536,34.537" transform="translate(1967.68 3077.084)" fill="none" stroke="#000" stroke-miterlimit="10" stroke-width="2.91"/>
          <path id="Path_121" data-name="Path 121" d="M-1866.187-2439.447l34.537-34.537a7.517,7.517,0,0,0,0-10.631l-29.221-29.221a7.518,7.518,0,0,1,0-10.632l29.221-29.221a7.518,7.518,0,0,0,0-10.632l-29.221-29.221a7.518,7.518,0,0,1,0-10.632l29.221-29.221a7.518,7.518,0,0,0,0-10.632l-29.221-29.221a7.518,7.518,0,0,1,0-10.632l29.221-29.221a7.517,7.517,0,0,0,0-10.631l-29.221-29.221a7.518,7.518,0,0,1,0-10.631l29.221-29.221a7.518,7.518,0,0,0,0-10.632l-29.221-29.221a7.518,7.518,0,0,1,0-10.632l29.221-29.221a7.518,7.518,0,0,0,0-10.632l-29.221-29.22a7.518,7.518,0,0,1,0-10.632l29.221-29.221a7.518,7.518,0,0,0,0-10.632l-29.221-29.221a7.518,7.518,0,0,1,0-10.631l29.221-29.221a7.517,7.517,0,0,0,0-10.631l-34.537-34.537" transform="translate(1990.817 3077.084)" fill="none" stroke="#000" stroke-miterlimit="10" stroke-width="2.91"/>
          <path id="Path_122" data-name="Path 122" d="M-1869.97-3077.084l-34.537,34.537a7.517,7.517,0,0,0,0,10.631l29.221,29.221a7.518,7.518,0,0,1,0,10.631l-29.221,29.221a7.518,7.518,0,0,0,0,10.632l29.221,29.221a7.518,7.518,0,0,1,0,10.632l-29.221,29.22a7.518,7.518,0,0,0,0,10.632l29.221,29.221a7.518,7.518,0,0,1,0,10.632l-29.221,29.221a7.518,7.518,0,0,0,0,10.632l29.221,29.221a7.518,7.518,0,0,1,0,10.631l-29.221,29.221a7.517,7.517,0,0,0,0,10.631l29.221,29.221a7.518,7.518,0,0,1,0,10.632l-29.221,29.221a7.518,7.518,0,0,0,0,10.632l29.221,29.221a7.518,7.518,0,0,1,0,10.632l-29.221,29.221a7.518,7.518,0,0,0,0,10.632l29.221,29.221a7.518,7.518,0,0,1,0,10.632l-29.221,29.221a7.517,7.517,0,0,0,0,10.631l34.537,34.537" transform="translate(2008.909 3077.084)" fill="none" stroke="#000" stroke-miterlimit="10" stroke-width="2.91"/>
        </g>
        <g id="Group_72" data-name="Group 72" transform="translate(408.843)">
          <path id="Path_123" data-name="Path 123" d="M-2327.812-2439.447l34.536-34.537a7.517,7.517,0,0,0,0-10.631l-29.221-29.221a7.518,7.518,0,0,1,0-10.632l29.221-29.221a7.518,7.518,0,0,0,0-10.632l-29.221-29.221a7.518,7.518,0,0,1,0-10.632l29.221-29.221a7.518,7.518,0,0,0,0-10.632l-29.221-29.221a7.518,7.518,0,0,1,0-10.632l29.221-29.221a7.517,7.517,0,0,0,0-10.631l-29.221-29.221a7.517,7.517,0,0,1,0-10.631l29.221-29.221a7.518,7.518,0,0,0,0-10.632l-29.221-29.221a7.518,7.518,0,0,1,0-10.632l29.221-29.221a7.518,7.518,0,0,0,0-10.632l-29.221-29.22a7.518,7.518,0,0,1,0-10.632l29.221-29.221a7.518,7.518,0,0,0,0-10.632l-29.221-29.221a7.517,7.517,0,0,1,0-10.631l29.221-29.221a7.517,7.517,0,0,0,0-10.631l-34.536-34.537" transform="translate(2401.351 3077.084)" fill="none" stroke="#000" stroke-miterlimit="10" stroke-width="2.91"/>
          <path id="Path_124" data-name="Path 124" d="M-2331.595-3077.084l-34.536,34.537a7.517,7.517,0,0,0,0,10.631l29.221,29.221a7.517,7.517,0,0,1,0,10.631l-29.221,29.221a7.517,7.517,0,0,0,0,10.632l29.221,29.221a7.518,7.518,0,0,1,0,10.632l-29.221,29.22a7.518,7.518,0,0,0,0,10.632l29.221,29.221a7.518,7.518,0,0,1,0,10.632l-29.221,29.221a7.518,7.518,0,0,0,0,10.632l29.221,29.221a7.517,7.517,0,0,1,0,10.631l-29.221,29.221a7.517,7.517,0,0,0,0,10.631l29.221,29.221a7.518,7.518,0,0,1,0,10.632l-29.221,29.221a7.517,7.517,0,0,0,0,10.632l29.221,29.221a7.518,7.518,0,0,1,0,10.632l-29.221,29.221a7.517,7.517,0,0,0,0,10.632l29.221,29.221a7.518,7.518,0,0,1,0,10.632l-29.221,29.221a7.517,7.517,0,0,0,0,10.631l34.536,34.537" transform="translate(2419.443 3077.084)" fill="none" stroke="#000" stroke-miterlimit="10" stroke-width="2.91"/>
          <path id="Path_125" data-name="Path 125" d="M-2420.151-2439.447l34.537-34.537a7.518,7.518,0,0,0,0-10.631l-29.221-29.221a7.518,7.518,0,0,1,0-10.632l29.221-29.221a7.518,7.518,0,0,0,0-10.632l-29.221-29.221a7.518,7.518,0,0,1,0-10.632l29.221-29.221a7.518,7.518,0,0,0,0-10.632l-29.221-29.221a7.518,7.518,0,0,1,0-10.632l29.221-29.221a7.518,7.518,0,0,0,0-10.631l-29.221-29.221a7.518,7.518,0,0,1,0-10.631l29.221-29.221a7.518,7.518,0,0,0,0-10.632l-29.221-29.221a7.518,7.518,0,0,1,0-10.632l29.221-29.221a7.518,7.518,0,0,0,0-10.632l-29.221-29.22a7.518,7.518,0,0,1,0-10.632l29.221-29.221a7.518,7.518,0,0,0,0-10.632l-29.221-29.221a7.518,7.518,0,0,1,0-10.631l29.221-29.221a7.518,7.518,0,0,0,0-10.631l-34.537-34.537" transform="translate(2442.58 3077.084)" fill="none" stroke="#000" stroke-miterlimit="10" stroke-width="2.91"/>
          <path id="Path_126" data-name="Path 126" d="M-2423.934-3077.084l-34.537,34.537a7.517,7.517,0,0,0,0,10.631l29.221,29.221a7.517,7.517,0,0,1,0,10.631l-29.221,29.221a7.518,7.518,0,0,0,0,10.632l29.221,29.221a7.518,7.518,0,0,1,0,10.632l-29.221,29.22a7.518,7.518,0,0,0,0,10.632l29.221,29.221a7.518,7.518,0,0,1,0,10.632l-29.221,29.221a7.518,7.518,0,0,0,0,10.632l29.221,29.221a7.517,7.517,0,0,1,0,10.631l-29.221,29.221a7.517,7.517,0,0,0,0,10.631l29.221,29.221a7.518,7.518,0,0,1,0,10.632l-29.221,29.221a7.518,7.518,0,0,0,0,10.632l29.221,29.221a7.518,7.518,0,0,1,0,10.632l-29.221,29.221a7.518,7.518,0,0,0,0,10.632l29.221,29.221a7.518,7.518,0,0,1,0,10.632l-29.221,29.221a7.517,7.517,0,0,0,0,10.631l34.537,34.537" transform="translate(2460.672 3077.084)" fill="none" stroke="#000" stroke-miterlimit="10" stroke-width="2.91"/>
          <path id="Path_127" data-name="Path 127" d="M-2143.169-2439.447l34.536-34.537a7.517,7.517,0,0,0,0-10.631l-29.22-29.221a7.518,7.518,0,0,1,0-10.632l29.22-29.221a7.518,7.518,0,0,0,0-10.632l-29.22-29.221a7.518,7.518,0,0,1,0-10.632l29.22-29.221a7.518,7.518,0,0,0,0-10.632l-29.22-29.221a7.517,7.517,0,0,1,0-10.632l29.22-29.221a7.517,7.517,0,0,0,0-10.631l-29.22-29.221a7.517,7.517,0,0,1,0-10.631l29.22-29.221a7.518,7.518,0,0,0,0-10.632l-29.22-29.221a7.517,7.517,0,0,1,0-10.632l29.22-29.221a7.518,7.518,0,0,0,0-10.632l-29.22-29.22a7.518,7.518,0,0,1,0-10.632l29.22-29.221a7.518,7.518,0,0,0,0-10.632l-29.22-29.221a7.517,7.517,0,0,1,0-10.631l29.22-29.221a7.517,7.517,0,0,0,0-10.631l-34.536-34.537" transform="translate(2318.909 3077.084)" fill="none" stroke="#000" stroke-miterlimit="10" stroke-width="2.91"/>
          <path id="Path_128" data-name="Path 128" d="M-2146.952-3077.084l-34.536,34.537a7.516,7.516,0,0,0,0,10.631l29.22,29.221a7.517,7.517,0,0,1,0,10.631l-29.22,29.221a7.517,7.517,0,0,0,0,10.632l29.22,29.221a7.518,7.518,0,0,1,0,10.632l-29.22,29.22a7.517,7.517,0,0,0,0,10.632l29.22,29.221a7.517,7.517,0,0,1,0,10.632l-29.22,29.221a7.517,7.517,0,0,0,0,10.632l29.22,29.221a7.517,7.517,0,0,1,0,10.631l-29.22,29.221a7.517,7.517,0,0,0,0,10.631l29.22,29.221a7.517,7.517,0,0,1,0,10.632l-29.22,29.221a7.517,7.517,0,0,0,0,10.632l29.22,29.221a7.518,7.518,0,0,1,0,10.632l-29.22,29.221a7.517,7.517,0,0,0,0,10.632l29.22,29.221a7.518,7.518,0,0,1,0,10.632l-29.22,29.221a7.516,7.516,0,0,0,0,10.631l34.536,34.537" transform="translate(2337.001 3077.084)" fill="none" stroke="#000" stroke-miterlimit="10" stroke-width="2.91"/>
          <path id="Path_129" data-name="Path 129" d="M-2235.508-2439.447l34.537-34.537a7.517,7.517,0,0,0,0-10.631l-29.22-29.221a7.518,7.518,0,0,1,0-10.632l29.22-29.221a7.518,7.518,0,0,0,0-10.632l-29.22-29.221a7.518,7.518,0,0,1,0-10.632l29.22-29.221a7.518,7.518,0,0,0,0-10.632l-29.22-29.221a7.517,7.517,0,0,1,0-10.632l29.22-29.221a7.517,7.517,0,0,0,0-10.631l-29.22-29.221a7.517,7.517,0,0,1,0-10.631l29.22-29.221a7.518,7.518,0,0,0,0-10.632l-29.22-29.221a7.517,7.517,0,0,1,0-10.632l29.22-29.221a7.518,7.518,0,0,0,0-10.632l-29.22-29.22a7.518,7.518,0,0,1,0-10.632l29.22-29.221a7.518,7.518,0,0,0,0-10.632l-29.22-29.221a7.517,7.517,0,0,1,0-10.631l29.22-29.221a7.517,7.517,0,0,0,0-10.631l-34.537-34.537" transform="translate(2360.137 3077.084)" fill="none" stroke="#000" stroke-miterlimit="10" stroke-width="2.91"/>
          <path id="Path_130" data-name="Path 130" d="M-2239.291-3077.084l-34.537,34.537a7.517,7.517,0,0,0,0,10.631l29.221,29.221a7.518,7.518,0,0,1,0,10.631l-29.221,29.221a7.518,7.518,0,0,0,0,10.632l29.221,29.221a7.518,7.518,0,0,1,0,10.632l-29.221,29.22a7.518,7.518,0,0,0,0,10.632l29.221,29.221a7.518,7.518,0,0,1,0,10.632l-29.221,29.221a7.518,7.518,0,0,0,0,10.632l29.221,29.221a7.518,7.518,0,0,1,0,10.631l-29.221,29.221a7.517,7.517,0,0,0,0,10.631l29.221,29.221a7.518,7.518,0,0,1,0,10.632l-29.221,29.221a7.518,7.518,0,0,0,0,10.632l29.221,29.221a7.518,7.518,0,0,1,0,10.632l-29.221,29.221a7.518,7.518,0,0,0,0,10.632l29.221,29.221a7.518,7.518,0,0,1,0,10.632l-29.221,29.221a7.517,7.517,0,0,0,0,10.631l34.537,34.537" transform="translate(2378.23 3077.084)" fill="none" stroke="#000" stroke-miterlimit="10" stroke-width="2.91"/>
        </g>
        <g id="Group_73" data-name="Group 73" transform="translate(204.422)">
          <path id="Path_131" data-name="Path 131" d="M-2697.133-2439.447l34.536-34.537a7.517,7.517,0,0,0,0-10.631l-29.221-29.221a7.518,7.518,0,0,1,0-10.632l29.221-29.221a7.517,7.517,0,0,0,0-10.632l-29.221-29.221a7.518,7.518,0,0,1,0-10.632l29.221-29.221a7.517,7.517,0,0,0,0-10.632l-29.221-29.221a7.518,7.518,0,0,1,0-10.632l29.221-29.221a7.517,7.517,0,0,0,0-10.631l-29.221-29.221a7.517,7.517,0,0,1,0-10.631l29.221-29.221a7.518,7.518,0,0,0,0-10.632l-29.221-29.221a7.518,7.518,0,0,1,0-10.632l29.221-29.221a7.518,7.518,0,0,0,0-10.632l-29.221-29.22a7.518,7.518,0,0,1,0-10.632l29.221-29.221a7.517,7.517,0,0,0,0-10.632l-29.221-29.221a7.517,7.517,0,0,1,0-10.631l29.221-29.221a7.517,7.517,0,0,0,0-10.631l-34.536-34.537" transform="translate(2770.672 3077.084)" fill="none" stroke="#000" stroke-miterlimit="10" stroke-width="2.91"/>
          <path id="Path_132" data-name="Path 132" d="M-2700.916-3077.084l-34.537,34.537a7.517,7.517,0,0,0,0,10.631l29.22,29.221a7.517,7.517,0,0,1,0,10.631l-29.22,29.221a7.517,7.517,0,0,0,0,10.632l29.22,29.221a7.518,7.518,0,0,1,0,10.632l-29.22,29.22a7.518,7.518,0,0,0,0,10.632l29.22,29.221a7.517,7.517,0,0,1,0,10.632l-29.22,29.221a7.518,7.518,0,0,0,0,10.632l29.22,29.221a7.517,7.517,0,0,1,0,10.631l-29.22,29.221a7.517,7.517,0,0,0,0,10.631l29.22,29.221a7.517,7.517,0,0,1,0,10.632l-29.22,29.221a7.517,7.517,0,0,0,0,10.632l29.22,29.221a7.518,7.518,0,0,1,0,10.632l-29.22,29.221a7.517,7.517,0,0,0,0,10.632l29.22,29.221a7.518,7.518,0,0,1,0,10.632l-29.22,29.221a7.517,7.517,0,0,0,0,10.631l34.537,34.537" transform="translate(2788.764 3077.084)" fill="none" stroke="#000" stroke-miterlimit="10" stroke-width="2.91"/>
          <path id="Path_133" data-name="Path 133" d="M-2789.473-2439.447l34.536-34.537a7.516,7.516,0,0,0,0-10.631l-29.221-29.221a7.518,7.518,0,0,1,0-10.632l29.221-29.221a7.517,7.517,0,0,0,0-10.632l-29.221-29.221a7.518,7.518,0,0,1,0-10.632l29.221-29.221a7.517,7.517,0,0,0,0-10.632l-29.221-29.221a7.518,7.518,0,0,1,0-10.632l29.221-29.221a7.517,7.517,0,0,0,0-10.631l-29.221-29.221a7.517,7.517,0,0,1,0-10.631l29.221-29.221a7.517,7.517,0,0,0,0-10.632l-29.221-29.221a7.518,7.518,0,0,1,0-10.632l29.221-29.221a7.517,7.517,0,0,0,0-10.632l-29.221-29.22a7.518,7.518,0,0,1,0-10.632l29.221-29.221a7.517,7.517,0,0,0,0-10.632l-29.221-29.221a7.517,7.517,0,0,1,0-10.631l29.221-29.221a7.516,7.516,0,0,0,0-10.631l-34.536-34.537" transform="translate(2811.901 3077.084)" fill="none" stroke="#000" stroke-miterlimit="10" stroke-width="2.91"/>
          <path id="Path_134" data-name="Path 134" d="M-2793.255-3077.084l-34.536,34.537a7.517,7.517,0,0,0,0,10.631l29.221,29.221a7.518,7.518,0,0,1,0,10.631l-29.221,29.221a7.517,7.517,0,0,0,0,10.632l29.221,29.221a7.518,7.518,0,0,1,0,10.632l-29.221,29.22a7.518,7.518,0,0,0,0,10.632l29.221,29.221a7.518,7.518,0,0,1,0,10.632l-29.221,29.221a7.518,7.518,0,0,0,0,10.632l29.221,29.221a7.518,7.518,0,0,1,0,10.631l-29.221,29.221a7.517,7.517,0,0,0,0,10.631l29.221,29.221a7.518,7.518,0,0,1,0,10.632l-29.221,29.221a7.517,7.517,0,0,0,0,10.632l29.221,29.221a7.518,7.518,0,0,1,0,10.632l-29.221,29.221a7.517,7.517,0,0,0,0,10.632l29.221,29.221a7.518,7.518,0,0,1,0,10.632l-29.221,29.221a7.517,7.517,0,0,0,0,10.631l34.536,34.537" transform="translate(2829.993 3077.084)" fill="none" stroke="#000" stroke-miterlimit="10" stroke-width="2.91"/>
          <path id="Path_135" data-name="Path 135" d="M-2512.49-2439.447l34.536-34.537a7.517,7.517,0,0,0,0-10.631l-29.221-29.221a7.518,7.518,0,0,1,0-10.632l29.221-29.221a7.518,7.518,0,0,0,0-10.632l-29.221-29.221a7.518,7.518,0,0,1,0-10.632l29.221-29.221a7.518,7.518,0,0,0,0-10.632l-29.221-29.221a7.517,7.517,0,0,1,0-10.632l29.221-29.221a7.517,7.517,0,0,0,0-10.631l-29.221-29.221a7.517,7.517,0,0,1,0-10.631l29.221-29.221a7.518,7.518,0,0,0,0-10.632l-29.221-29.221a7.517,7.517,0,0,1,0-10.632l29.221-29.221a7.518,7.518,0,0,0,0-10.632l-29.221-29.22a7.518,7.518,0,0,1,0-10.632l29.221-29.221a7.518,7.518,0,0,0,0-10.632l-29.221-29.221a7.517,7.517,0,0,1,0-10.631l29.221-29.221a7.517,7.517,0,0,0,0-10.631l-34.536-34.537" transform="translate(2688.23 3077.084)" fill="none" stroke="#000" stroke-miterlimit="10" stroke-width="2.91"/>
          <path id="Path_136" data-name="Path 136" d="M-2516.272-3077.084l-34.537,34.537a7.517,7.517,0,0,0,0,10.631l29.22,29.221a7.517,7.517,0,0,1,0,10.631l-29.22,29.221a7.517,7.517,0,0,0,0,10.632l29.22,29.221a7.518,7.518,0,0,1,0,10.632l-29.22,29.22a7.518,7.518,0,0,0,0,10.632l29.22,29.221a7.517,7.517,0,0,1,0,10.632l-29.22,29.221a7.518,7.518,0,0,0,0,10.632l29.22,29.221a7.517,7.517,0,0,1,0,10.631l-29.22,29.221a7.517,7.517,0,0,0,0,10.631l29.22,29.221a7.517,7.517,0,0,1,0,10.632l-29.22,29.221a7.517,7.517,0,0,0,0,10.632l29.22,29.221a7.518,7.518,0,0,1,0,10.632l-29.22,29.221a7.517,7.517,0,0,0,0,10.632l29.22,29.221a7.518,7.518,0,0,1,0,10.632l-29.22,29.221a7.517,7.517,0,0,0,0,10.631l34.537,34.537" transform="translate(2706.322 3077.084)" fill="none" stroke="#000" stroke-miterlimit="10" stroke-width="2.91"/>
          <path id="Path_137" data-name="Path 137" d="M-2604.829-2439.447l34.536-34.537a7.517,7.517,0,0,0,0-10.631l-29.221-29.221a7.518,7.518,0,0,1,0-10.632l29.221-29.221a7.517,7.517,0,0,0,0-10.632l-29.221-29.221a7.518,7.518,0,0,1,0-10.632l29.221-29.221a7.517,7.517,0,0,0,0-10.632l-29.221-29.221a7.518,7.518,0,0,1,0-10.632l29.221-29.221a7.517,7.517,0,0,0,0-10.631l-29.221-29.221a7.517,7.517,0,0,1,0-10.631l29.221-29.221a7.518,7.518,0,0,0,0-10.632l-29.221-29.221a7.518,7.518,0,0,1,0-10.632l29.221-29.221a7.518,7.518,0,0,0,0-10.632l-29.221-29.22a7.518,7.518,0,0,1,0-10.632l29.221-29.221a7.517,7.517,0,0,0,0-10.632l-29.221-29.221a7.517,7.517,0,0,1,0-10.631l29.221-29.221a7.517,7.517,0,0,0,0-10.631l-34.536-34.537" transform="translate(2729.458 3077.084)" fill="none" stroke="#000" stroke-miterlimit="10" stroke-width="2.91"/>
          <path id="Path_138" data-name="Path 138" d="M-2608.612-3077.084l-34.536,34.537a7.517,7.517,0,0,0,0,10.631l29.221,29.221a7.518,7.518,0,0,1,0,10.631l-29.221,29.221a7.518,7.518,0,0,0,0,10.632l29.221,29.221a7.518,7.518,0,0,1,0,10.632l-29.221,29.22a7.518,7.518,0,0,0,0,10.632l29.221,29.221a7.518,7.518,0,0,1,0,10.632l-29.221,29.221a7.518,7.518,0,0,0,0,10.632l29.221,29.221a7.518,7.518,0,0,1,0,10.631l-29.221,29.221a7.517,7.517,0,0,0,0,10.631l29.221,29.221a7.518,7.518,0,0,1,0,10.632l-29.221,29.221a7.518,7.518,0,0,0,0,10.632l29.221,29.221a7.518,7.518,0,0,1,0,10.632l-29.221,29.221a7.518,7.518,0,0,0,0,10.632l29.221,29.221a7.518,7.518,0,0,1,0,10.632l-29.221,29.221a7.517,7.517,0,0,0,0,10.631l34.536,34.537" transform="translate(2747.551 3077.084)" fill="none" stroke="#000" stroke-miterlimit="10" stroke-width="2.91"/>
        </g>
        <g id="Group_74" data-name="Group 74">
          <path id="Path_139" data-name="Path 139" d="M-3066.455-2439.447l34.536-34.537a7.517,7.517,0,0,0,0-10.631l-29.22-29.221a7.518,7.518,0,0,1,0-10.632l29.22-29.221a7.517,7.517,0,0,0,0-10.632l-29.22-29.221a7.518,7.518,0,0,1,0-10.632l29.22-29.221a7.517,7.517,0,0,0,0-10.632l-29.22-29.221a7.518,7.518,0,0,1,0-10.632l29.22-29.221a7.517,7.517,0,0,0,0-10.631l-29.22-29.221a7.517,7.517,0,0,1,0-10.631l29.22-29.221a7.518,7.518,0,0,0,0-10.632l-29.22-29.221a7.518,7.518,0,0,1,0-10.632l29.22-29.221a7.518,7.518,0,0,0,0-10.632l-29.22-29.22a7.518,7.518,0,0,1,0-10.632l29.22-29.221a7.517,7.517,0,0,0,0-10.632l-29.22-29.221a7.517,7.517,0,0,1,0-10.631l29.22-29.221a7.517,7.517,0,0,0,0-10.631l-34.536-34.537" transform="translate(3139.994 3077.084)" fill="none" stroke="#000" stroke-miterlimit="10" stroke-width="2.91"/>
          <path id="Path_140" data-name="Path 140" d="M-3070.237-3077.084l-34.537,34.537a7.516,7.516,0,0,0,0,10.631l29.22,29.221a7.516,7.516,0,0,1,0,10.631l-29.22,29.221a7.516,7.516,0,0,0,0,10.632l29.22,29.221a7.517,7.517,0,0,1,0,10.632l-29.22,29.22a7.517,7.517,0,0,0,0,10.632l29.22,29.221a7.516,7.516,0,0,1,0,10.632l-29.22,29.221a7.517,7.517,0,0,0,0,10.632l29.22,29.221a7.516,7.516,0,0,1,0,10.631l-29.22,29.221a7.516,7.516,0,0,0,0,10.631l29.22,29.221a7.516,7.516,0,0,1,0,10.632l-29.22,29.221a7.516,7.516,0,0,0,0,10.632l29.22,29.221a7.517,7.517,0,0,1,0,10.632l-29.22,29.221a7.516,7.516,0,0,0,0,10.632l29.22,29.221a7.517,7.517,0,0,1,0,10.632l-29.22,29.221a7.516,7.516,0,0,0,0,10.631l34.537,34.537" transform="translate(3158.086 3077.084)" fill="none" stroke="#000" stroke-miterlimit="10" stroke-width="2.91"/>
          <path id="Path_141" data-name="Path 141" d="M-3158.794-2439.447l34.537-34.537a7.517,7.517,0,0,0,0-10.631l-29.221-29.221a7.518,7.518,0,0,1,0-10.632l29.221-29.221a7.518,7.518,0,0,0,0-10.632l-29.221-29.221a7.518,7.518,0,0,1,0-10.632l29.221-29.221a7.518,7.518,0,0,0,0-10.632l-29.221-29.221a7.518,7.518,0,0,1,0-10.632l29.221-29.221a7.517,7.517,0,0,0,0-10.631l-29.221-29.221a7.517,7.517,0,0,1,0-10.631l29.221-29.221a7.518,7.518,0,0,0,0-10.632l-29.221-29.221a7.518,7.518,0,0,1,0-10.632l29.221-29.221a7.518,7.518,0,0,0,0-10.632l-29.221-29.22a7.518,7.518,0,0,1,0-10.632l29.221-29.221a7.518,7.518,0,0,0,0-10.632l-29.221-29.221a7.517,7.517,0,0,1,0-10.631l29.221-29.221a7.517,7.517,0,0,0,0-10.631l-34.537-34.537" transform="translate(3181.223 3077.084)" fill="none" stroke="#000" stroke-miterlimit="10" stroke-width="2.91"/>
          <path id="Path_142" data-name="Path 142" d="M-3162.577-3077.084l-34.537,34.537a7.517,7.517,0,0,0,0,10.631l29.221,29.221a7.517,7.517,0,0,1,0,10.631l-29.221,29.221a7.517,7.517,0,0,0,0,10.632l29.221,29.221a7.518,7.518,0,0,1,0,10.632l-29.221,29.22a7.518,7.518,0,0,0,0,10.632l29.221,29.221a7.518,7.518,0,0,1,0,10.632l-29.221,29.221a7.518,7.518,0,0,0,0,10.632l29.221,29.221a7.517,7.517,0,0,1,0,10.631l-29.221,29.221a7.517,7.517,0,0,0,0,10.631l29.221,29.221a7.518,7.518,0,0,1,0,10.632l-29.221,29.221a7.517,7.517,0,0,0,0,10.632l29.221,29.221a7.518,7.518,0,0,1,0,10.632l-29.221,29.221a7.517,7.517,0,0,0,0,10.632l29.221,29.221a7.518,7.518,0,0,1,0,10.632l-29.221,29.221a7.517,7.517,0,0,0,0,10.631l34.537,34.537" transform="translate(3199.315 3077.084)" fill="none" stroke="#000" stroke-miterlimit="10" stroke-width="2.91"/>
          <path id="Path_143" data-name="Path 143" d="M-2881.812-2439.447l34.537-34.537a7.517,7.517,0,0,0,0-10.631l-29.22-29.221a7.518,7.518,0,0,1,0-10.632l29.22-29.221a7.518,7.518,0,0,0,0-10.632l-29.22-29.221a7.518,7.518,0,0,1,0-10.632l29.22-29.221a7.518,7.518,0,0,0,0-10.632l-29.22-29.221a7.518,7.518,0,0,1,0-10.632l29.22-29.221a7.517,7.517,0,0,0,0-10.631l-29.22-29.221a7.517,7.517,0,0,1,0-10.631l29.22-29.221a7.518,7.518,0,0,0,0-10.632l-29.22-29.221a7.518,7.518,0,0,1,0-10.632l29.22-29.221a7.518,7.518,0,0,0,0-10.632l-29.22-29.22a7.518,7.518,0,0,1,0-10.632l29.22-29.221a7.518,7.518,0,0,0,0-10.632l-29.22-29.221a7.517,7.517,0,0,1,0-10.631l29.22-29.221a7.517,7.517,0,0,0,0-10.631l-34.537-34.537" transform="translate(3057.552 3077.084)" fill="none" stroke="#000" stroke-miterlimit="10" stroke-width="2.91"/>
          <path id="Path_144" data-name="Path 144" d="M-2885.594-3077.084l-34.536,34.537a7.517,7.517,0,0,0,0,10.631l29.221,29.221a7.517,7.517,0,0,1,0,10.631l-29.221,29.221a7.518,7.518,0,0,0,0,10.632l29.221,29.221a7.518,7.518,0,0,1,0,10.632l-29.221,29.22a7.518,7.518,0,0,0,0,10.632l29.221,29.221a7.518,7.518,0,0,1,0,10.632l-29.221,29.221a7.518,7.518,0,0,0,0,10.632l29.221,29.221a7.517,7.517,0,0,1,0,10.631l-29.221,29.221a7.517,7.517,0,0,0,0,10.631l29.221,29.221a7.518,7.518,0,0,1,0,10.632l-29.221,29.221a7.518,7.518,0,0,0,0,10.632l29.221,29.221a7.518,7.518,0,0,1,0,10.632l-29.221,29.221a7.518,7.518,0,0,0,0,10.632l29.221,29.221a7.518,7.518,0,0,1,0,10.632l-29.221,29.221a7.517,7.517,0,0,0,0,10.631l34.536,34.537" transform="translate(3075.644 3077.084)" fill="none" stroke="#000" stroke-miterlimit="10" stroke-width="2.91"/>
          <path id="Path_145" data-name="Path 145" d="M-2974.151-2439.447l34.537-34.537a7.517,7.517,0,0,0,0-10.631l-29.221-29.221a7.518,7.518,0,0,1,0-10.632l29.221-29.221a7.518,7.518,0,0,0,0-10.632l-29.221-29.221a7.518,7.518,0,0,1,0-10.632l29.221-29.221a7.518,7.518,0,0,0,0-10.632l-29.221-29.221a7.518,7.518,0,0,1,0-10.632l29.221-29.221a7.517,7.517,0,0,0,0-10.631l-29.221-29.221a7.517,7.517,0,0,1,0-10.631l29.221-29.221a7.518,7.518,0,0,0,0-10.632l-29.221-29.221a7.518,7.518,0,0,1,0-10.632l29.221-29.221a7.518,7.518,0,0,0,0-10.632l-29.221-29.22a7.518,7.518,0,0,1,0-10.632l29.221-29.221a7.518,7.518,0,0,0,0-10.632l-29.221-29.221a7.517,7.517,0,0,1,0-10.631l29.221-29.221a7.517,7.517,0,0,0,0-10.631l-34.537-34.537" transform="translate(3098.78 3077.084)" fill="none" stroke="#000" stroke-miterlimit="10" stroke-width="2.91"/>
          <path id="Path_146" data-name="Path 146" d="M-2977.933-3077.084l-34.536,34.537a7.515,7.515,0,0,0,0,10.631l29.22,29.221a7.517,7.517,0,0,1,0,10.631l-29.22,29.221a7.516,7.516,0,0,0,0,10.632l29.22,29.221a7.518,7.518,0,0,1,0,10.632l-29.22,29.22a7.516,7.516,0,0,0,0,10.632l29.22,29.221a7.518,7.518,0,0,1,0,10.632l-29.22,29.221a7.516,7.516,0,0,0,0,10.632l29.22,29.221a7.517,7.517,0,0,1,0,10.631l-29.22,29.221a7.516,7.516,0,0,0,0,10.631l29.22,29.221a7.518,7.518,0,0,1,0,10.632l-29.22,29.221a7.516,7.516,0,0,0,0,10.632l29.22,29.221a7.518,7.518,0,0,1,0,10.632l-29.22,29.221a7.516,7.516,0,0,0,0,10.632l29.22,29.221a7.518,7.518,0,0,1,0,10.632l-29.22,29.221a7.515,7.515,0,0,0,0,10.631l34.536,34.537" transform="translate(3116.873 3077.084)" fill="none" stroke="#000" stroke-miterlimit="10" stroke-width="2.91"/>
        </g>
      </g>
    </g>
  </g>
</svg>
