<svg xmlns="http://www.w3.org/2000/svg" width="120.5" height="69.87" viewBox="0 0 120.5 69.87">
  <g id="Group_170" data-name="Group 170" transform="translate(-1451 -1600)">
    <g id="Union_2" data-name="Union 2" transform="translate(10216 1602)" fill="none">
      <path d="M-8749.448,42H-8756V36h-9V25h9V19h20.032L-8692-2V62l-41.875-20h-2.873l11.761,20.369-9.524,5.5Z" stroke="none"/>
      <path d="M -8733.7802734375 65.13790893554688 L -8727.71875 61.63712310791016 L -8738.48046875 42.99937057495117 L -8740.2119140625 39.99934768676758 L -8736.748046875 39.99934768676758 L -8733.875 39.99934768676758 L -8733.421875 39.99934768676758 L -8733.0126953125 40.19462585449219 L -8694 58.82762908935547 L -8694 1.172049760818481 L -8735.1044921875 20.80376052856445 L -8735.513671875 20.99902725219727 L -8735.966796875 20.99902725219727 L -8753.9990234375 20.99902725219727 L -8753.9990234375 24.9998722076416 L -8753.9990234375 26.9998722076416 L -8755.9990234375 26.9998722076416 L -8763 26.9998722076416 L -8763 34.00070571899414 L -8755.9990234375 34.00070571899414 L -8753.9990234375 34.00070571899414 L -8753.9990234375 36.00070571899414 L -8753.9990234375 39.99934768676758 L -8749.4482421875 39.99934768676758 L -8748.2939453125 39.99934768676758 L -8747.7158203125 40.99934768676758 L -8733.7802734375 65.13790893554688 M -8734.51171875 67.87031555175781 L -8749.4482421875 41.99934768676758 L -8755.9990234375 41.99934768676758 L -8755.9990234375 36.00070571899414 L -8765 36.00070571899414 L -8765 24.9998722076416 L -8755.9990234375 24.9998722076416 L -8755.9990234375 18.99902725219727 L -8735.966796875 18.99902725219727 L -8692 -1.999550461769104 L -8692 61.99924850463867 L -8733.875 41.99934768676758 L -8736.748046875 41.99934768676758 L -8724.9873046875 62.36880493164062 L -8734.51171875 67.87031555175781 Z" stroke="none" fill="#fff"/>
    </g>
    <line id="Line_49" data-name="Line 49" x2="35" transform="translate(1536.5 1632.5)" fill="none" stroke="#fff" stroke-width="2"/>
    <line id="Line_50" data-name="Line 50" y1="8" x2="28" transform="translate(1536.5 1611.5)" fill="none" stroke="#fff" stroke-width="2"/>
    <line id="Line_51" data-name="Line 51" x2="28" y2="8" transform="translate(1536.5 1645.5)" fill="none" stroke="#fff" stroke-width="2"/>
  </g>
</svg>
