<svg id="Group_86" data-name="Group 86" xmlns="http://www.w3.org/2000/svg" width="121.138" height="97.596" viewBox="0 0 121.138 97.596">
  <path id="triangle2" d="M329.65,605.85H285.322V541.1Z" transform="translate(-219.938 -541.103)" fill="#4f4f4f"/>
  <path id="triangle1" d="M275.431,592.771H238.1L275.431,541.1Z" transform="translate(-214.239 -541.103)" fill="#a0a0a0"/>
  <path id="logotype" d="M224.436,638.785h-9.078l-1.883,4.27h-2.512l8.363-18.477h1.155l8.4,18.477h-2.565Zm-.852-1.968-3.687-8.369-3.686,8.382Zm8.527,5.943a6.686,6.686,0,0,1-2.3-1.089l.978-1.849a6.983,6.983,0,0,0,2.072.971,8.4,8.4,0,0,0,2.466.367q3.076,0,3.077-1.759a1.141,1.141,0,0,0-.413-.924,2.617,2.617,0,0,0-1.037-.5q-.656-.158-1.771-.354a17.817,17.817,0,0,1-2.552-.564,3.931,3.931,0,0,1-1.7-1.075,2.991,2.991,0,0,1-.7-2.119,3.313,3.313,0,0,1,1.462-2.82,6.56,6.56,0,0,1,3.936-1.063,10.537,10.537,0,0,1,2.584.322,6.777,6.777,0,0,1,2.132.9l-1,1.849a6.728,6.728,0,0,0-3.732-1.023,4.283,4.283,0,0,0-2.269.492,1.469,1.469,0,0,0-.781,1.312,1.219,1.219,0,0,0,.44,1,2.7,2.7,0,0,0,1.089.538c.426.118,1.037.243,1.817.393a19.666,19.666,0,0,1,2.525.571,3.812,3.812,0,0,1,1.647,1.037,2.921,2.921,0,0,1,.656,2.053,3.235,3.235,0,0,1-1.5,2.794,7.1,7.1,0,0,1-4.087,1.036,10.95,10.95,0,0,1-3.024-.478ZM253.6,630.828a5.986,5.986,0,0,1,2.309,2.342,7.5,7.5,0,0,1,0,6.894,5.9,5.9,0,0,1-2.309,2.289,6.787,6.787,0,0,1-3.371.834,5.908,5.908,0,0,1-2.545-.538,5.277,5.277,0,0,1-1.968-1.561v7.687h-2.362V630.12H245.6v2.046a4.976,4.976,0,0,1,1.967-1.62,6.234,6.234,0,0,1,2.624-.551A6.789,6.789,0,0,1,253.6,630.828Zm-1.312,9.748a4.112,4.112,0,0,0,1.562-1.613,5.189,5.189,0,0,0,0-4.756,4.078,4.078,0,0,0-1.562-1.6,4.442,4.442,0,0,0-2.23-.557,4.319,4.319,0,0,0-2.211.571,4.111,4.111,0,0,0-1.561,1.6,4.707,4.707,0,0,0-.578,2.368,4.908,4.908,0,0,0,.565,2.375,3.984,3.984,0,0,0,1.561,1.613A4.631,4.631,0,0,0,252.286,640.576Zm7.215-13.388a1.43,1.43,0,0,1-.453-1.069,1.484,1.484,0,0,1,.453-1.089,1.544,1.544,0,0,1,1.135-.453,1.6,1.6,0,0,1,1.134.426,1.411,1.411,0,0,1,.453,1.063,1.5,1.5,0,0,1-.453,1.108,1.534,1.534,0,0,1-1.134.453A1.56,1.56,0,0,1,259.5,627.188Zm0,2.932h2.342v12.934H259.5Zm10.173.459a6.6,6.6,0,0,1,2.906-.584v2.269q-.269-.013-.538,0a3.933,3.933,0,0,0-2.99,1.135,4.507,4.507,0,0,0-1.082,3.233v6.448h-2.349V630.12h2.243v2.171a4.036,4.036,0,0,1,1.8-1.712Zm14.372.734a5.083,5.083,0,0,1,1.43,3.936v7.813h-2.23v-1.712a3.682,3.682,0,0,1-1.673,1.377,6.286,6.286,0,0,1-2.571.479,5.39,5.39,0,0,1-3.483-1.05,3.607,3.607,0,0,1-.473-5.08,3.555,3.555,0,0,1,.414-.423,6.107,6.107,0,0,1,3.936-1.037h3.719v-.478a2.966,2.966,0,0,0-.878-2.316,3.689,3.689,0,0,0-2.584-.806,6.725,6.725,0,0,0-2.244.38,5.79,5.79,0,0,0-1.856,1.01l-.964-1.752a7.126,7.126,0,0,1,2.393-1.233,10.078,10.078,0,0,1,2.952-.426,5.846,5.846,0,0,1,4.106,1.318Zm-2.329,9.479a3.353,3.353,0,0,0,1.4-1.719v-1.8h-3.608c-1.967,0-2.977.656-2.977,2a1.8,1.8,0,0,0,.754,1.535,3.463,3.463,0,0,0,2.1.564,4.355,4.355,0,0,0,2.328-.577Zm14.581,1.5a3.529,3.529,0,0,1-1.265.656,5.472,5.472,0,0,1-1.568.229,4.137,4.137,0,0,1-3.024-1.049,4.016,4.016,0,0,1-1.076-3v-7.077h-2.19V630.12h2.19v-2.853h2.349V630.1h3.706v1.929h-3.712v7.044a2.246,2.246,0,0,0,.524,1.607,1.97,1.97,0,0,0,1.5.565,2.829,2.829,0,0,0,1.83-.61Zm2.244-15.086a1.431,1.431,0,0,1-.453-1.069,1.483,1.483,0,0,1,.453-1.089,1.533,1.533,0,0,1,1.134-.452,1.6,1.6,0,0,1,1.135.427,1.407,1.407,0,0,1,.452,1.062,1.5,1.5,0,0,1-.452,1.109,1.667,1.667,0,0,1-2.269,0Zm-.04,2.932h2.322v12.935h-2.342Zm8.363,12.213a6.226,6.226,0,0,1-2.4-2.355,7.12,7.12,0,0,1,0-6.808,6.057,6.057,0,0,1,2.4-2.342,7.5,7.5,0,0,1,6.92,0,6.068,6.068,0,0,1,2.387,2.322,7.073,7.073,0,0,1,0,6.808,6.229,6.229,0,0,1-2.387,2.355,7.446,7.446,0,0,1-6.92,0Zm5.7-1.771a4.03,4.03,0,0,0,1.548-1.614,5.289,5.289,0,0,0,0-4.755,4,4,0,0,0-1.548-1.6,4.754,4.754,0,0,0-4.467,0,4.026,4.026,0,0,0-1.562,1.6,5.187,5.187,0,0,0,0,4.755,4.065,4.065,0,0,0,1.562,1.614A4.657,4.657,0,0,0,312.567,640.582Zm18.084-9.15a5.624,5.624,0,0,1,1.45,4.185v7.445h-2.342v-7.183a3.975,3.975,0,0,0-.906-2.833,3.385,3.385,0,0,0-2.584-.951,4.057,4.057,0,0,0-3,1.109,4.36,4.36,0,0,0-1.095,3.187v6.664h-2.322V630.12h2.243v1.968a4.593,4.593,0,0,1,1.915-1.535,6.667,6.667,0,0,1,2.749-.538,5.351,5.351,0,0,1,3.9,1.41Z" transform="translate(-210.963 -551.178)" fill="#202020"/>
</svg>
