<svg id="Canvas" xmlns="http://www.w3.org/2000/svg" width="185.14" height="56.474" viewBox="0 0 185.14 56.474">
  <g id="CyberITL_LogoHoriz_Black" data-name="CyberITL LogoHoriz Black" transform="translate(0 0)">
    <g id="Group">
      <g id="Group-2" data-name="Group" transform="translate(65.338 4.987)">
        <g id="Group-3" data-name="Group">
          <g id="Vector">
            <g id="Group_101" data-name="Group 101">
              <path id="path0_fill" data-name="path0 fill" d="M827.463,388.8a5.673,5.673,0,0,0-4.5-2.112,7.658,7.658,0,0,0-3.012.588,6.855,6.855,0,0,0-2.32,1.628,7.105,7.105,0,0,0-1.489,2.459,8.6,8.6,0,0,0-.52,3.012,9.458,9.458,0,0,0,.52,3.186,8,8,0,0,0,1.489,2.527,6.948,6.948,0,0,0,2.32,1.662,7.092,7.092,0,0,0,3.012.623,5.454,5.454,0,0,0,2.528-.623,6.7,6.7,0,0,0,2.285-1.973l3.151,2.25a8.221,8.221,0,0,1-3.566,2.909,10.729,10.729,0,0,1-4.466.9,12.918,12.918,0,0,1-4.571-.8,9.564,9.564,0,0,1-3.566-2.285,10.033,10.033,0,0,1-2.355-3.531,12.209,12.209,0,0,1-.865-4.571,11.847,11.847,0,0,1,.865-4.674,10.323,10.323,0,0,1,2.355-3.6,9.865,9.865,0,0,1,3.566-2.285,12.937,12.937,0,0,1,4.571-.8,10.414,10.414,0,0,1,4.051.761,9.325,9.325,0,0,1,3.463,2.632Z" transform="translate(-811.535 -383.29)" fill="#727272"/>
            </g>
          </g>
          <g id="Vector-2" data-name="Vector" transform="translate(26.211 0.45)">
            <g id="Group_102" data-name="Group 102">
              <path id="path1_fill" data-name="path1 fill" d="M849.412,396.094,841.344,383.8h4.813l5.3,8.552,5.332-8.552h4.571l-8.068,12.292V405.3h-3.809v-9.211Z" transform="translate(-841.344 -383.802)" fill="#727272"/>
            </g>
          </g>
          <g id="Vector-3" data-name="Vector" transform="translate(54.569 0.45)">
            <g id="Group_103" data-name="Group 103">
              <path id="path2_fill" data-name="path2 fill" d="M873.595,383.8h8.379a11.231,11.231,0,0,1,2.389.277,6.857,6.857,0,0,1,2.112.935,5.031,5.031,0,0,1,1.49,1.7,5.107,5.107,0,0,1,.588,2.494,4.429,4.429,0,0,1-1.038,3.012,5.745,5.745,0,0,1-2.7,1.7v.069a5.84,5.84,0,0,1,1.87.554,4.779,4.779,0,0,1,1.489,1.108,4.918,4.918,0,0,1,.97,1.592,5.1,5.1,0,0,1,.346,1.94,5.875,5.875,0,0,1-.692,2.943,5.014,5.014,0,0,1-1.835,1.869,7.122,7.122,0,0,1-2.6,1,14.26,14.26,0,0,1-2.977.312h-7.756V383.8Zm3.843,8.725h3.5a4.753,4.753,0,0,0,2.874-.727,2.4,2.4,0,0,0,.97-1.974,2.355,2.355,0,0,0-1-2.077,5.792,5.792,0,0,0-3.186-.693h-3.151Zm0,9.488h3.531a12.56,12.56,0,0,0,1.558-.1,5.181,5.181,0,0,0,1.524-.415,2.821,2.821,0,0,0,1.143-.97,2.743,2.743,0,0,0,.449-1.7,2.5,2.5,0,0,0-1.108-2.355,6.792,6.792,0,0,0-3.462-.658H877.4v6.2Z" transform="translate(-873.595 -383.802)" fill="#727272"/>
            </g>
          </g>
          <g id="Vector-4" data-name="Vector" transform="translate(79.638 0.45)">
            <g id="Group_104" data-name="Group 104">
              <path id="path3_fill" data-name="path3 fill" d="M902.1,383.8h14.231v3.462H905.913v5.3h9.868v3.463h-9.868v5.817H916.89V405.3H902.1Z" transform="translate(-902.105 -383.802)" fill="#727272"/>
            </g>
          </g>
          <g id="Vector-5" data-name="Vector" transform="translate(103.598 0.45)">
            <g id="Group_105" data-name="Group 105">
              <path id="path4_fill" data-name="path4 fill" d="M929.354,383.8h7.479a16.4,16.4,0,0,1,2.978.277,8.384,8.384,0,0,1,2.562.969,5.178,5.178,0,0,1,1.8,1.87,6.06,6.06,0,0,1,.659,3.012,5.916,5.916,0,0,1-1.281,3.912,5.508,5.508,0,0,1-3.705,1.9l5.713,9.488h-4.6l-4.986-9.107h-2.8v9.107h-3.809Zm6.822,9.106c.554,0,1.108-.034,1.628-.069a4.083,4.083,0,0,0,1.489-.381,2.754,2.754,0,0,0,1.108-.865,2.8,2.8,0,0,0,.416-1.662,2.838,2.838,0,0,0-.381-1.524,2.794,2.794,0,0,0-1.039-.865,4.494,4.494,0,0,0-1.419-.382,11.258,11.258,0,0,0-1.49-.1h-3.324v5.817h3.012Z" transform="translate(-929.354 -383.802)" fill="#727272"/>
            </g>
          </g>
        </g>
        <g id="Group-4" data-name="Group" transform="translate(13.816 28.635)">
          <g id="Vector-6" data-name="Vector" transform="translate(0 9.314)">
            <g id="Group_106" data-name="Group 106">
              <path id="path5_fill" data-name="path5 fill" d="M842.412,429.357H827.247v-2.909h15.165Z" transform="translate(-827.247 -426.448)" fill="#727272"/>
            </g>
          </g>
          <g id="Vector-7" data-name="Vector" transform="translate(23.545)">
            <g id="Group_107" data-name="Group 107">
              <path id="path6_fill" data-name="path6 fill" d="M854.024,415.856h3.809v21.5h-3.809Z" transform="translate(-854.024 -415.856)" fill="#727272"/>
            </g>
          </g>
          <g id="Vector-8" data-name="Vector" transform="translate(35.975)">
            <g id="Group_108" data-name="Group 108">
              <path id="path7_fill" data-name="path7 fill" d="M874.739,419.318H868.16v-3.462h17v3.462h-6.579v18.04h-3.809v-18.04Z" transform="translate(-868.16 -415.856)" fill="#727272"/>
            </g>
          </g>
          <g id="Vector-9" data-name="Vector" transform="translate(61.043)">
            <g id="Group_109" data-name="Group 109">
              <path id="path8_fill" data-name="path8 fill" d="M896.67,415.856h3.809V433.9h9.14v3.462H896.67Z" transform="translate(-896.67 -415.856)" fill="#727272"/>
            </g>
          </g>
          <g id="Vector-10" data-name="Vector" transform="translate(77.698 9.314)">
            <g id="Group_110" data-name="Group 110">
              <path id="path9_fill" data-name="path9 fill" d="M930.777,429.357H915.611v-2.909h15.166Z" transform="translate(-915.611 -426.448)" fill="#727272"/>
            </g>
          </g>
        </g>
      </g>
      <g id="Group-5" data-name="Group">
        <g id="Vector-11" data-name="Vector" transform="translate(44.32 20.602)">
          <g id="Group_111" data-name="Group 111">
            <path id="path10_fill" data-name="path10 fill" d="M791.13,421.374a16.514,16.514,0,0,0-3.5-4.017V404.685a3.636,3.636,0,0,1,3.636-3.636h.277a3.635,3.635,0,0,1,3.636,3.636v20.6C793.588,424.8,792.549,423.417,791.13,421.374Z" transform="translate(-787.632 -401.049)" fill="#727272"/>
          </g>
        </g>
        <g id="Vector-12" data-name="Vector" transform="translate(44.32 42.243)">
          <g id="Group_112" data-name="Group 112">
            <path id="path11_fill" data-name="path11 fill" d="M788.152,426.388c1.558,2.25,3.5,5.021,7.029,5.54v4.329a3.635,3.635,0,0,1-3.636,3.635h-.277a3.635,3.635,0,0,1-3.636-3.635v-10.6Z" transform="translate(-787.632 -425.661)" fill="#727272"/>
          </g>
        </g>
        <g id="Vector-13" data-name="Vector" transform="translate(22.298)">
          <g id="Group_113" data-name="Group 113">
            <path id="path12_fill" data-name="path12 fill" d="M770.135,388.422v-7.167a3.635,3.635,0,0,0-3.635-3.636h-.278a3.635,3.635,0,0,0-3.635,3.636v7.376a7.855,7.855,0,0,1,7.548-.208Z" transform="translate(-762.587 -377.619)" fill="#727272"/>
          </g>
        </g>
        <g id="Vector-14" data-name="Vector" transform="translate(22.333 13.574)">
          <g id="Group_114" data-name="Group 114">
            <path id="path13_fill" data-name="path13 fill" d="M766.229,422.868h.277a3.635,3.635,0,0,0,3.635-3.635V394.891a4.511,4.511,0,0,0-3.566-1.835c-1.7,0-2.8.865-3.947,2.32v23.857A3.606,3.606,0,0,0,766.229,422.868Z" transform="translate(-762.626 -393.056)" fill="#727272"/>
          </g>
        </g>
        <g id="Vector-15" data-name="Vector" transform="translate(11.115 7.272)">
          <g id="Group_115" data-name="Group 115">
            <path id="path14_fill" data-name="path14 fill" d="M756.759,394.234c.208-.312.45-.623.658-.97v-3.74a3.635,3.635,0,0,0-3.636-3.635H753.5a3.635,3.635,0,0,0-3.635,3.635v8.483a4.016,4.016,0,0,0,1.628.312C753.816,398.32,755.028,396.762,756.759,394.234Z" transform="translate(-749.869 -385.889)" fill="#727272"/>
          </g>
        </g>
        <g id="Vector-16" data-name="Vector" transform="translate(11.149 38.884)">
          <g id="Group_116" data-name="Group 116">
            <path id="path15_fill" data-name="path15 fill" d="M756.313,425.927c-1.766-2.528-2.943-4.086-5.263-4.086a3.961,3.961,0,0,0-1.143.173v6.232a3.636,3.636,0,0,0,3.636,3.636h.277a3.636,3.636,0,0,0,3.636-3.636v-.761Q756.832,426.706,756.313,425.927Z" transform="translate(-749.907 -421.841)" fill="#727272"/>
          </g>
        </g>
        <g id="Vector-17" data-name="Vector" transform="translate(0 20.602)">
          <g id="Group_117" data-name="Group 117">
            <path id="path16_fill" data-name="path16 fill" d="M741.279,421.374a16.509,16.509,0,0,1,3.5-4.017V404.685a3.635,3.635,0,0,0-3.635-3.636h-.277a3.636,3.636,0,0,0-3.636,3.636v20.6C738.786,424.8,739.86,423.417,741.279,421.374Z" transform="translate(-737.228 -401.049)" fill="#727272"/>
          </g>
        </g>
        <g id="Vector-18" data-name="Vector" transform="translate(11.149 20.671)">
          <g id="Group_118" data-name="Group 118">
            <path id="path17_fill" data-name="path17 fill" d="M751.05,415.74a8.208,8.208,0,0,1,6.406,3.186v-17.8a7.846,7.846,0,0,1-5.921,2.666,8.038,8.038,0,0,1-1.628-.173V415.81A11.11,11.11,0,0,1,751.05,415.74Z" transform="translate(-749.907 -401.128)" fill="#727272"/>
          </g>
        </g>
        <g id="Vector-19" data-name="Vector" transform="translate(0 42.243)">
          <g id="Group_119" data-name="Group 119">
            <path id="path18_fill" data-name="path18 fill" d="M744.257,426.388c-1.558,2.25-3.5,5.021-7.029,5.54v4.329a3.635,3.635,0,0,0,3.636,3.635h.277a3.635,3.635,0,0,0,3.635-3.635v-10.6Z" transform="translate(-737.228 -425.661)" fill="#727272"/>
          </g>
        </g>
        <g id="Vector-20" data-name="Vector" transform="translate(33.309 7.272)">
          <g id="Group_120" data-name="Group 120">
            <path id="path19_fill" data-name="path19 fill" d="M775.768,394.234c-.208-.312-.45-.623-.658-.97v-3.74a3.635,3.635,0,0,1,3.635-3.635h.277a3.635,3.635,0,0,1,3.636,3.635v8.483a4.016,4.016,0,0,1-1.628.312C778.711,398.32,777.533,396.762,775.768,394.234Z" transform="translate(-775.11 -385.889)" fill="#727272"/>
          </g>
        </g>
        <g id="Vector-21" data-name="Vector" transform="translate(33.274 20.671)">
          <g id="Group_121" data-name="Group 121">
            <path id="path20_fill" data-name="path20 fill" d="M781.476,415.74a8.207,8.207,0,0,0-6.406,3.186v-17.8a7.843,7.843,0,0,0,5.92,2.666,8.023,8.023,0,0,0,1.628-.173V415.81A11.106,11.106,0,0,0,781.476,415.74Z" transform="translate(-775.07 -401.128)" fill="#727272"/>
          </g>
        </g>
        <g id="Vector-22" data-name="Vector" transform="translate(33.274 38.884)">
          <g id="Group_122" data-name="Group 122">
            <path id="path21_fill" data-name="path21 fill" d="M776.212,425.927c1.766-2.528,2.943-4.086,5.263-4.086a3.959,3.959,0,0,1,1.142.173v6.232a3.636,3.636,0,0,1-3.636,3.636H778.7a3.635,3.635,0,0,1-3.635-3.636v-.761Q775.692,426.706,776.212,425.927Z" transform="translate(-775.07 -421.841)" fill="#727272"/>
          </g>
        </g>
      </g>
    </g>
  </g>
</svg>
