<?xml version="1.0" encoding="utf-8"?>
<!-- Generator: Adobe Illustrator 24.2.1, SVG Export Plug-In . SVG Version: 6.00 Build 0)  -->
<svg version="1.1" id="Group_85" xmlns="http://www.w3.org/2000/svg" xmlns:xlink="http://www.w3.org/1999/xlink" x="0px" y="0px"
	 viewBox="0 0 290.4 32.4" style="enable-background:new 0 0 290.4 32.4;" xml:space="preserve">
<style type="text/css">
	.st0{fill:#24ED67;}
</style>
<g id="Group_84" transform="translate(0 0)">
	<rect id="Rectangle_124" x="32.2" y="1.4" class="st0" width="8.4" height="30.1"/>
	<path id="Path_177" class="st0" d="M57.5,32.3c-3.9,0.2-7.7-1-10.9-3.3l3.8-6.4l2.6,1.6c2.5,1.5,5.6,1.3,5.6-1
		c0-4.2-11.3-3.8-11.3-13.4c0-5.9,4.6-9.2,10-9.2c3.3,0,6,0.5,8.8,2.8l-2.8,6.6c-4.3-3.9-8-2.7-8-0.2c0,3.3,11.7,2.9,11.7,13.4
		C67.1,29,63.3,32.4,57.5,32.3"/>
	<path id="Path_178" class="st0" d="M87.4,32.3c-8.5,0.3-15.6-6.3-15.9-14.7c0-0.4,0-0.7,0-1.1C71.2,8,77.8,0.9,86.2,0.6
		c0,0,0,0,0,0c0.4,0,0.8,0,1.1,0c3.8-0.2,7.6,1.2,10.5,3.8l-4.2,7.1c-2-2.5-3.9-3.3-6.3-3.3c-4.2,0-7.5,3.3-7.5,8.4s3.3,8.4,7.5,8.4
		c2.6-0.1,5-1.5,6.3-3.8l4.6,6.7C96.1,30.7,92,32.3,87.4,32.3"/>
	<path id="Path_179" class="st0" d="M116.6,32.3c-8.6,0.2-15.7-6.7-15.9-15.3c0-0.2,0-0.4,0-0.5c-0.3-8.8,6.6-16.1,15.3-16.4
		c8.7-0.3,16.1,6.5,16.4,15.2c0,0.4,0,0.8,0,1.2c0.1,8.6-6.8,15.7-15.4,15.9C116.9,32.3,116.8,32.3,116.6,32.3 M116.6,8.1
		c-4.2,0-7.5,3.3-7.5,8.4s3.3,8.4,7.5,8.4s7.5-3.3,7.5-8.4S120.8,8.1,116.6,8.1"/>
	<path id="Path_180" class="st0" d="M155.3,31.5l-9.5-14.2h-0.1v14.2h-8.4V1.4h7.5l9.5,14.2h0.1V1.4h8.4v30.1L155.3,31.5z"/>
	<path id="Path_181" class="st0" d="M188.9,31.5l-9.5-14.2h-0.1v14.2h-8.4V1.4h7.5l9.5,14.2h0.1V1.4h8.4v30.1L188.9,31.5z"/>
	<path id="Path_182" class="st0" d="M222.6,31.5h-18V1.4h18l0.8,7.5h-10.5v3.8h9.2v7.1h-9.2V24h10.5L222.6,31.5z"/>
	<path id="Path_183" class="st0" d="M244.7,32.3c-8.5,0.3-15.6-6.3-15.9-14.7c0-0.4,0-0.8,0-1.1c-0.3-8.5,6.3-15.6,14.8-15.9
		c0.4,0,0.7,0,1.1,0c3.8-0.2,7.6,1.2,10.4,3.8l-4.2,7.1c-2.1-2.5-3.9-3.3-6.3-3.3c-4.2,0-7.5,3.3-7.5,8.4s3.3,8.4,7.5,8.4
		c2.6-0.1,5-1.5,6.3-3.8l4.6,6.7C253.5,30.7,249.4,32.4,244.7,32.3"/>
	<path id="Path_184" class="st0" d="M272.7,9v22.6h-8.4V9h-6.3l0.8-7.5h19.2L279,9H272.7z"/>
	<path id="Path_185" class="st0" d="M26.3,16.5V17C26.3,16.8,26.3,16.7,26.3,16.5z"/>
	<path id="Path_186" class="st0" d="M11.7,1.4H0V24h8.4V9C13,9,18,10.2,18,16.5S13,24,8.4,24v7.5h3.3c5.2-0.2,10-3,12.6-7.5
		c1.2-2.1,1.9-4.5,2-7v-0.9C26.3,8,19.8,1.5,11.7,1.4C11.8,1.4,11.8,1.4,11.7,1.4L11.7,1.4z"/>
</g>
<rect id="Rectangle_125" x="282" y="24" class="st0" width="8.4" height="7.5"/>
</svg>
