<svg id="Group_85" data-name="Group 85" xmlns="http://www.w3.org/2000/svg" width="290.386" height="32.353" viewBox="0 0 290.386 32.353">
  <g id="Group_84" data-name="Group 84" transform="translate(0 0)">
    <rect id="Rectangle_124" data-name="Rectangle 124" width="8.362" height="30.099" transform="translate(32.19 1.421)" fill="#8a8a8a"/>
    <path id="Path_177" data-name="Path 177" d="M681.406,244.932a17.173,17.173,0,0,1-10.869-3.283l3.842-6.4,2.638,1.554c2.507,1.456,5.637,1.292,5.637-1.007,0-4.181-11.285-3.765-11.285-13.375,0-5.855,4.6-9.194,10.037-9.194,3.283,0,5.976.46,8.756,2.758l-2.846,6.567c-4.28-3.886-8-2.671-8-.164,0,3.349,11.7,2.922,11.7,13.375,0,5.855-3.755,9.194-9.61,9.194" transform="translate(-623.932 -212.602)" fill="#8a8a8a"/>
    <path id="Path_178" data-name="Path 178" d="M714.7,244.926a15.324,15.324,0,0,1-15.881-14.745q-.021-.557,0-1.115a15.323,15.323,0,0,1,14.744-15.881q.569-.021,1.138,0a14.575,14.575,0,0,1,10.452,3.765l-4.181,7.1c-2.046-2.506-3.874-3.349-6.271-3.349-4.181,0-7.52,3.349-7.52,8.362s3.283,8.362,7.52,8.362a7.53,7.53,0,0,0,6.271-3.765l4.6,6.688c-2.09,2.933-6.227,4.575-10.868,4.575" transform="translate(-627.345 -212.595)" fill="#8a8a8a"/>
    <path id="Path_179" data-name="Path 179" d="M747.966,244.847a15.619,15.619,0,0,1-15.913-15.318c0-.18,0-.361,0-.542a15.882,15.882,0,0,1,31.742-1.179c.014.393.014.787,0,1.179a15.619,15.619,0,0,1-15.375,15.859c-.15,0-.3,0-.452,0m0-24.244c-4.181,0-7.519,3.349-7.519,8.362s3.283,8.362,7.519,8.362,7.53-3.349,7.53-8.362-3.349-8.362-7.53-8.362" transform="translate(-631.356 -212.516)" fill="#8a8a8a"/>
    <path id="Path_180" data-name="Path 180" d="M791.65,244.232l-9.522-14.218h-.088v14.218h-8.362v-30.1h7.53l9.522,14.218h.088V214.133h8.362v30.1Z" transform="translate(-636.382 -212.711)" fill="#8a8a8a"/>
    <path id="Path_181" data-name="Path 181" d="M829.925,244.232l-9.533-14.218H820.3v14.218h-8.362v-30.1h7.53l9.533,14.218h.077V214.133h8.362v30.1Z" transform="translate(-641.001 -212.711)" fill="#8a8a8a"/>
    <path id="Path_182" data-name="Path 182" d="M868.191,244.232H850.219v-30.1h17.972l.832,7.53H858.57v3.754h9.2v7.114h-9.2v4.181h10.453Z" transform="translate(-645.621 -212.711)" fill="#8a8a8a"/>
    <path id="Path_183" data-name="Path 183" d="M893.67,244.926a15.324,15.324,0,0,1-15.882-14.744q-.021-.568,0-1.138a15.324,15.324,0,0,1,14.767-15.86q.558-.02,1.115,0a14.534,14.534,0,0,1,10.442,3.765l-4.17,7.1c-2.058-2.506-3.929-3.349-6.271-3.349-4.181,0-7.53,3.349-7.53,8.362s3.349,8.362,7.53,8.362a7.548,7.548,0,0,0,6.271-3.765l4.586,6.688c-2.08,2.933-6.217,4.6-10.858,4.6" transform="translate(-648.947 -212.595)" fill="#8a8a8a"/>
    <path id="Path_184" data-name="Path 184" d="M925.684,221.663v22.569h-8.362V221.663H911.05l.843-7.53h19.22l.843,7.53Z" transform="translate(-652.963 -212.711)" fill="#8a8a8a"/>
    <path id="Path_185" data-name="Path 185" d="M647.483,231.2v.536C647.473,231.57,647.483,231.383,647.483,231.2Z" transform="translate(-621.149 -214.726)" fill="#8a8a8a"/>
    <path id="Path_186" data-name="Path 186" d="M629.236,214.133h-11.7V236.7H625.9V221.663c4.6,0,9.61,1.248,9.61,7.519s-5.013,7.52-9.61,7.52v7.53h3.339a15.247,15.247,0,0,0,12.608-7.53,14.58,14.58,0,0,0,1.959-6.983V228.8a14.579,14.579,0,0,0-14.491-14.667Z" transform="translate(-617.535 -212.711)" fill="#8a8a8a"/>
  </g>
  <rect id="Rectangle_125" data-name="Rectangle 125" width="8.362" height="7.53" transform="translate(282.024 23.99)" fill="#8a8a8a"/>
</svg>
