<svg id="Group_123" data-name="Group 123" xmlns="http://www.w3.org/2000/svg" width="421.967" height="51.515" viewBox="0 0 421.967 51.515">
  <path id="Path_208" data-name="Path 208" d="M730.053,597.628c0,6.752-4.194,7.988-7.907,7.988s-7.886-1.247-7.886-7.988V581.687h-2.628v16.247c0,4.308,1.621,10.309,10.515,10.309s10.536-5.972,10.536-10.309V581.687h-2.628m-178.38,25.9h3.5V596.377h14.005v-3.283H555.17v-8.118h14.878v-3.289H551.673Zm34.82-26.562a13.607,13.607,0,1,0,13.5,13.6,13.179,13.179,0,0,0-13.5-13.6m0,23.919c-5.927,0-9.766-4.647-9.766-10.314s3.838-10.308,9.766-10.308,9.771,4.637,9.771,10.308-3.844,10.314-9.771,10.314m39.734-16.021c0-3.254-1.693-7.24-8.3-7.24H604.608v25.9h3.5V596.168h8.129l6.576,11.423h4.394l-7.365-11.82a6.94,6.94,0,0,0,6.38-6.844m-18.114,4.167v-8.333h8.814c2.779,0,5.569.657,5.569,4.166s-2.789,4.167-5.569,4.167Zm33.449-11.407h-9.035v25.9h8.441c9.266,0,14.2-6.334,14.2-12.957,0-4.795-2.684-12.947-13.609-12.947m-1.11,22.6h-4.41V584.976h5.265c8.412,0,10.127,6.368,10.127,9.657,0,6.408-5.051,9.652-10.982,9.652M660,607.591h2.638V595.335h14.18v-2.417h-14.18V584.1h15.086v-2.411H660Zm33.63-26.562a13.607,13.607,0,1,0,13.5,13.6,13.185,13.185,0,0,0-13.5-13.6m0,24.8c-6.657,0-10.647-5.232-10.647-11.193s3.989-11.186,10.647-11.186,10.649,5.232,10.649,11.186-3.98,11.193-10.649,11.193m64.439-2.186H758l-15.438-21.953h-3.282v25.9h2.637V585.418h.062l15.432,22.173H760.7v-25.9h-2.633Zm17.894-21.953h-8.6v25.9h8.6c6.465,0,13.6-4.323,13.6-12.957s-7.134-12.947-13.6-12.947m-.842,23.482H770V584.1h5.124c7.9,0,11.592,5.209,11.592,10.536,0,5.344-3.689,10.535-11.592,10.535m27.071-23.482-11.26,25.9H794l2.843-6.8h13.241l2.863,6.8h3.069l-11.266-25.9Zm-4.353,16.689,5.631-13.615,5.606,13.615ZM814.051,584.1h8.666v23.493h2.638V584.1h8.661v-2.411H814.051Zm24,23.493h2.621v-25.9h-2.621Zm21.727-26.562a13.607,13.607,0,1,0,13.492,13.6,13.178,13.178,0,0,0-13.492-13.6m0,24.8c-6.662,0-10.647-5.232-10.647-11.193s3.986-11.186,10.647-11.186,10.636,5.232,10.636,11.186-3.984,11.193-10.636,11.193m37.56-24.139V603.64h-.072l-15.432-21.953h-3.295v25.9h2.638V585.418h.069l15.435,22.173h3.29v-25.9Z" transform="translate(-478.005 -568.962)" fill="#4f4f4f"/>
  <path id="Path_209" data-name="Path 209" d="M511.135,573.97a5.956,5.956,0,0,1-5.954-5.956c0-.041,0-.084,0-.125.368.1.73.211,1.09.329a4.87,4.87,0,0,0,7.507,3.887c.3.227.6.459.9.7a5.929,5.929,0,0,1-3.541,1.166" transform="translate(-472.393 -567.376)" fill="#757575"/>
  <path id="Path_210" data-name="Path 210" d="M498.485,573.509a7.354,7.354,0,0,0-4.251,0,5.958,5.958,0,0,1-3.828-5.566c0-.136.005-.272.014-.405q.55-.127,1.111-.232a4.929,4.929,0,0,0-.042.637,4.871,4.871,0,0,0,9.743,0,5.087,5.087,0,0,0-.041-.637c.374.069.746.148,1.114.232.009.134.014.269.014.405a5.964,5.964,0,0,1-3.832,5.566" transform="translate(-470.609 -567.306)" fill="#979797"/>
  <path id="Path_211" data-name="Path 211" d="M481.948,573.708a5.675,5.675,0,0,1-3.323-1.069c.149-.12.3-.236.45-.352a5.14,5.14,0,0,0,8.011-4.149q.269-.084.542-.164v.05a5.68,5.68,0,0,1-5.68,5.683" transform="translate(-469.188 -567.387)" fill="#818181"/>
  <path id="Path_212" data-name="Path 212" d="M525.347,588.3a6.5,6.5,0,0,1-4.893-10.114q.741.942,1.4,1.951a4.329,4.329,0,0,0,2.835,5.857q.381,1.13.662,2.306" transform="translate(-474.102 -568.619)" fill="#818181"/>
  <path id="Path_213" data-name="Path 213" d="M511.155,576.625a4.872,4.872,0,1,0,4.875,4.877,4.878,4.878,0,0,0-4.875-4.877m0,10.828a5.961,5.961,0,0,1-5.8-4.622,7.368,7.368,0,0,0,0-2.663,5.955,5.955,0,1,1,5.8,7.285" transform="translate(-472.413 -568.3)" fill="#a4a4a4"/>
  <path id="Path_214" data-name="Path 214" d="M496.19,577.836a3.519,3.519,0,1,0,3.518,3.522,3.526,3.526,0,0,0-3.518-3.522m-2.444,10.408a7.317,7.317,0,0,1-4.746-5.56,5.942,5.942,0,0,0,.149-1.327A6.007,6.007,0,0,0,489,580.03a7.322,7.322,0,0,1,5.063-5.671,5.97,5.97,0,0,0,4.251,0,7.316,7.316,0,0,1,5.061,5.664,6.025,6.025,0,0,0,0,2.663,7.316,7.316,0,0,1-4.745,5.555,6.177,6.177,0,0,0-4.887,0" transform="translate(-470.44 -568.157)" fill="#888"/>
  <path id="Path_215" data-name="Path 215" d="M496.885,574.708a5.939,5.939,0,0,1-2.126-.39,7.354,7.354,0,0,1,4.251,0,5.937,5.937,0,0,1-2.125.39" transform="translate(-471.135 -568.115)" fill="#606060"/>
  <path id="Path_216" data-name="Path 216" d="M505.33,583.466a6.007,6.007,0,0,1,0-2.663,7.368,7.368,0,0,1,0,2.663" transform="translate(-472.393 -568.935)" fill="#5d5d5d"/>
  <path id="Path_217" data-name="Path 217" d="M481.584,576.625a4.872,4.872,0,1,0,4.872,4.877,4.885,4.885,0,0,0-4.872-4.877m0,10.828a5.955,5.955,0,1,1,5.8-7.281,7.373,7.373,0,0,0,0,2.655,5.958,5.958,0,0,1-5.8,4.626" transform="translate(-468.826 -568.3)" fill="#979797"/>
  <path id="Path_218" data-name="Path 218" d="M488.984,583.463a7.314,7.314,0,0,1-.12-1.326,7.417,7.417,0,0,1,.12-1.328,6,6,0,0,1,0,2.654" transform="translate(-470.423 -568.936)" fill="#646464"/>
  <path id="Path_219" data-name="Path 219" d="M468.429,587.552c.052-.191.107-.383.164-.572a5.139,5.139,0,0,0,3.642-7.529c.115-.164.23-.324.348-.484a5.686,5.686,0,0,1-4.154,8.585" transform="translate(-467.957 -568.714)" fill="#9a9a9a"/>
  <path id="Path_220" data-name="Path 220" d="M525.456,601.718a5.955,5.955,0,0,1,0-11.874c.082.354.157.713.225,1.074a4.871,4.871,0,0,0,0,9.73c-.067.359-.143.717-.224,1.07" transform="translate(-474.177 -570.026)" fill="#979797"/>
  <path id="Path_221" data-name="Path 221" d="M511.172,590.674a5.143,5.143,0,1,0,5.144,5.144,5.155,5.155,0,0,0-5.144-5.144m0,10.829a5.685,5.685,0,1,1,5.688-5.685,5.684,5.684,0,0,1-5.688,5.685" transform="translate(-472.43 -570.061)" fill="#757575"/>
  <path id="Path_222" data-name="Path 222" d="M496.329,591.164a4.656,4.656,0,1,0,4.658,4.659,4.661,4.661,0,0,0-4.658-4.659m0,10.828a6.172,6.172,0,0,1-2.444-11.841,7.357,7.357,0,0,0,4.887,0,6.173,6.173,0,0,1-2.443,11.841" transform="translate(-470.579 -570.063)" fill="#818181"/>
  <path id="Path_223" data-name="Path 223" d="M496.841,590.5a7.327,7.327,0,0,1-2.444-.418,6.187,6.187,0,0,1,4.887,0,7.321,7.321,0,0,1-2.443.418" transform="translate(-471.091 -569.994)" fill="#545454"/>
  <path id="Path_224" data-name="Path 224" d="M481.509,591.376a4.331,4.331,0,1,0,4.331,4.333,4.336,4.336,0,0,0-4.331-4.333m2.861,10.165a7.329,7.329,0,0,0-5.721,0,6.5,6.5,0,1,1,5.721,0" transform="translate(-468.752 -569.95)" fill="#9d9d9d"/>
  <path id="Path_225" data-name="Path 225" d="M468.116,601.718c-.082-.353-.157-.711-.224-1.07a4.871,4.871,0,0,0,0-9.73c.068-.36.143-.717.225-1.074a5.955,5.955,0,0,1,0,11.874" transform="translate(-467.892 -570.026)" fill="#979797"/>
  <path id="Path_226" data-name="Path 226" d="M520.709,613.4a6.174,6.174,0,0,1,4.6-9.511q-.2.814-.459,1.607a4.655,4.655,0,0,0-3.167,6.545c-.31.463-.637.917-.974,1.359" transform="translate(-474.147 -571.722)" fill="#818181"/>
  <path id="Path_227" data-name="Path 227" d="M511.06,605.661a4.331,4.331,0,1,0,4.332,4.333,4.339,4.339,0,0,0-4.332-4.333M508.2,615.825a6.5,6.5,0,1,1,5.723,0,7.32,7.32,0,0,0-5.723,0" transform="translate(-472.318 -571.674)" fill="#979797"/>
  <path id="Path_228" data-name="Path 228" d="M496.4,604.957a5.145,5.145,0,1,0,5.145,5.148,5.155,5.155,0,0,0-5.145-5.148m0,10.83a5.684,5.684,0,0,1-5.685-5.583c0-.033,0-.067,0-.1s0-.067,0-.1a5.686,5.686,0,1,1,5.685,5.782" transform="translate(-470.646 -571.785)" fill="#8b8b8b"/>
  <path id="Path_229" data-name="Path 229" d="M481.414,606.442a3.519,3.519,0,1,0,3.52,3.521,3.524,3.524,0,0,0-3.52-3.521m2.441,10.408a6.181,6.181,0,0,0-4.883,0,7.316,7.316,0,0,1-4.745-5.558,5.994,5.994,0,0,0,0-2.661,7.319,7.319,0,0,1,4.327-5.4,6.525,6.525,0,0,0,5.721,0,7.311,7.311,0,0,1,4.447,6.628v.2a7.311,7.311,0,0,1-4.867,6.788" transform="translate(-468.657 -571.643)" fill="#9e9e9e"/>
  <path id="Path_230" data-name="Path 230" d="M482.009,603.814a6.484,6.484,0,0,1-2.86-.66,7.332,7.332,0,0,1,5.722,0,6.485,6.485,0,0,1-2.861.66" transform="translate(-469.251 -571.563)" fill="#646464"/>
  <path id="Path_231" data-name="Path 231" d="M490.713,610.972c0-.033,0-.067,0-.1s0-.067,0-.1c0,.033,0,.067,0,.1s0,.067,0,.1" transform="translate(-470.646 -572.553)" fill="#50793a"/>
  <path id="Path_232" data-name="Path 232" d="M472.748,613.25c-.238-.318-.47-.639-.695-.968a4.868,4.868,0,0,0-3.382-6.988c-.118-.379-.227-.758-.326-1.143a5.959,5.959,0,0,1,5.173,4.59,7.364,7.364,0,0,0,0,2.663,5.931,5.931,0,0,1-.77,1.847" transform="translate(-467.947 -571.753)" fill="#818181"/>
  <path id="Path_233" data-name="Path 233" d="M474.211,612.034a7.364,7.364,0,0,1,0-2.663,6,6,0,0,1,0,2.663" transform="translate(-468.64 -572.383)" fill="#5d5d5d"/>
  <path id="Path_234" data-name="Path 234" d="M503.917,624.65c.01-.134.014-.268.014-.4a5.944,5.944,0,0,0-.149-1.328,7.317,7.317,0,0,1,4.324-5.4,6.507,6.507,0,0,0,5.723,0,7.288,7.288,0,0,1,1.725,1.038,26.355,26.355,0,0,1-3.182,2.467,3.516,3.516,0,0,0-4.85,2.511,25.931,25.931,0,0,1-3.605,1.118" transform="translate(-472.224 -573.366)" fill="#818181"/>
  <path id="Path_235" data-name="Path 235" d="M511.559,618.1a6.467,6.467,0,0,1-2.859-.662,7.32,7.32,0,0,1,5.723,0,6.471,6.471,0,0,1-2.864.663" transform="translate(-472.818 -573.287)" fill="#434343"/>
  <path id="Path_236" data-name="Path 236" d="M501.189,624.988a5.068,5.068,0,0,0,.043-.637,4.872,4.872,0,1,0-9.744,0,5.08,5.08,0,0,0,.042.637c-.374-.068-.742-.146-1.11-.232-.01-.133-.013-.267-.013-.405a5.956,5.956,0,0,1,11.761-1.328,7.262,7.262,0,0,0-.121,1.328c0,.155.005.309.015.459q-.434.1-.873.178" transform="translate(-470.61 -573.473)" fill="#a4a4a4"/>
  <path id="Path_237" data-name="Path 237" d="M503.659,625.447c-.01-.152-.014-.306-.014-.46a7.338,7.338,0,0,1,.12-1.328,6.056,6.056,0,0,1,.149,1.328c0,.136-.005.271-.015.4l-.241.055" transform="translate(-472.208 -574.108)" fill="#525252"/>
  <path id="Path_238" data-name="Path 238" d="M488.06,624.574q-.77-.207-1.521-.459a4.652,4.652,0,0,0-7.1-3.681q-.642-.469-1.256-.979a6.166,6.166,0,0,1,1.27-.737,7.359,7.359,0,0,0,4.883,0,6.176,6.176,0,0,1,3.731,5.671c0,.062,0,.122,0,.184" transform="translate(-469.134 -573.512)" fill="#757575"/>
  <path id="Path_239" data-name="Path 239" d="M482.067,619.067a7.314,7.314,0,0,1-2.442-.418,6.181,6.181,0,0,1,4.883,0,7.326,7.326,0,0,1-2.441.417" transform="translate(-469.308 -573.443)" fill="#5c5c5c"/>
</svg>
