<svg id="Group_124" data-name="Group 124" xmlns="http://www.w3.org/2000/svg" width="388.614" height="28.365" viewBox="0 0 388.614 28.365">
  <path id="Path_240" data-name="Path 240" d="M389.346,753.468a17.231,17.231,0,0,0,2.008.506,1.58,1.58,0,0,0,.843-.245,1.279,1.279,0,0,0,.552-.767h.659l.291,7.053h-.72a10.194,10.194,0,0,0-1.641-3.388,6.3,6.3,0,0,0-5.2-2.422,6.6,6.6,0,0,0-5.39,2.605,11.161,11.161,0,0,0-2.093,7.176,9.81,9.81,0,0,0,2.2,6.708,7.093,7.093,0,0,0,5.573,2.507,8.945,8.945,0,0,0,4.493-1.165,13.5,13.5,0,0,0,2.591-1.993l.583.583a10.559,10.559,0,0,1-2.592,2.315,11.152,11.152,0,0,1-13.753-1.549,10.624,10.624,0,0,1-2.743-7.466,10.867,10.867,0,0,1,2.9-7.7,10.369,10.369,0,0,1,7.942-3.266A12.838,12.838,0,0,1,389.346,753.468Z" transform="translate(-375.011 -752.579)" fill="#909090"/>
  <path id="Path_241" data-name="Path 241" d="M398.1,774.517a3.709,3.709,0,0,0,1.87-.5,2.058,2.058,0,0,0,.46-1.6V765.5a5.924,5.924,0,0,0-.283-2.169,1.035,1.035,0,0,0-1.035-.652,2.855,2.855,0,0,0-.407.038c-.168.026-.345.06-.528.1v-.506l1.788-.629q.918-.321,1.269-.46.765-.29,1.575-.659c.07,0,.114.026.129.076a1.381,1.381,0,0,1,.023.323v2.515a11.73,11.73,0,0,1,1.9-2.131,2.931,2.931,0,0,1,1.9-.767,1.777,1.777,0,0,1,1.277.468,1.66,1.66,0,0,1,.116,2.231,1.2,1.2,0,0,1-.943.429,1.766,1.766,0,0,1-1.173-.536,1.657,1.657,0,0,0-.928-.536q-.537,0-1.319.866a2.654,2.654,0,0,0-.782,1.787V772.2a2.291,2.291,0,0,0,.613,1.832,3.074,3.074,0,0,0,2.04.483v.506H398.1Z" transform="translate(-377.798 -753.496)" fill="#909090"/>
  <path id="Path_242" data-name="Path 242" d="M413.364,768.251a33.45,33.45,0,0,1,5.627-2.5v-1.3a5.386,5.386,0,0,0-.306-2.176,2.189,2.189,0,0,0-2.162-1.028,2.988,2.988,0,0,0-1.488.4,1.268,1.268,0,0,0-.705,1.135,4.084,4.084,0,0,0,.077.621,4.562,4.562,0,0,1,.076.559,1.273,1.273,0,0,1-.567,1.2,1.428,1.428,0,0,1-.766.2,1.285,1.285,0,0,1-1.058-.452,1.551,1.551,0,0,1-.369-1,3.194,3.194,0,0,1,1.327-2.247,5.7,5.7,0,0,1,3.886-1.173q2.976,0,4.032,1.933a6.66,6.66,0,0,1,.567,3.081v6.149a4.1,4.1,0,0,0,.123,1.226.8.8,0,0,0,.827.6,1.37,1.37,0,0,0,.583-.107,5.84,5.84,0,0,0,.8-.521v.8a5.025,5.025,0,0,1-1.058.98,3.078,3.078,0,0,1-1.748.583,1.707,1.707,0,0,1-1.511-.675,3.008,3.008,0,0,1-.513-1.609,14.474,14.474,0,0,1-1.994,1.5,5.23,5.23,0,0,1-2.653.828,3.187,3.187,0,0,1-2.284-.928,3.124,3.124,0,0,1-.966-2.355A4.368,4.368,0,0,1,413.364,768.251Zm5.627-1.733a14.082,14.082,0,0,0-2.913,1.288q-2.208,1.365-2.208,3.1a2.358,2.358,0,0,0,.92,2.055,2.237,2.237,0,0,0,1.334.43,3.666,3.666,0,0,0,1.94-.568,1.664,1.664,0,0,0,.928-1.441Z" transform="translate(-379.372 -753.486)" fill="#909090"/>
  <path id="Path_243" data-name="Path 243" d="M426.38,773.64a3.9,3.9,0,0,0,2.07-.559q.429-.406.43-2.2v-7.314a4.668,4.668,0,0,0-.138-1.38.927.927,0,0,0-.966-.629,1.777,1.777,0,0,0-.33.031q-.161.03-.928.245v-.476l.659-.215q2.683-.873,3.741-1.318a2.029,2.029,0,0,1,.552-.185.849.849,0,0,1,.031.23v11.009a3.592,3.592,0,0,0,.422,2.192,3.14,3.14,0,0,0,1.909.567v.43H426.38Zm2.438-20.5a1.518,1.518,0,0,1,1.134-.473,1.6,1.6,0,1,1-1.6,1.6A1.566,1.566,0,0,1,428.818,753.139Z" transform="translate(-381.211 -752.543)" fill="#909090"/>
  <path id="Path_244" data-name="Path 244" d="M438.623,768.231a4.736,4.736,0,0,1-.774-2.653,5.2,5.2,0,0,1,5.459-5.013,6.823,6.823,0,0,1,2.468.528,7.091,7.091,0,0,0,2.591.529q.322,0,.973-.023c.434-.016.748-.023.943-.023h.185v1.242h-2.653q.276.644.429,1.119a5.992,5.992,0,0,1,.261,1.686,4.489,4.489,0,0,1-1.449,3.212,5.242,5.242,0,0,1-3.9,1.464,11.871,11.871,0,0,1-1.38-.138q-.444,0-1.181.751a2.065,2.065,0,0,0-.736,1.227q0,.491,1.074.72a7.362,7.362,0,0,0,1.567.153,21.058,21.058,0,0,1,5.358.445,2.983,2.983,0,0,1,2.319,3.1q0,2.423-2.706,3.864A11.523,11.523,0,0,1,442,781.862a6.894,6.894,0,0,1-3.987-1.02,2.767,2.767,0,0,1-1.473-2.138,1.8,1.8,0,0,1,.39-1.082,12.7,12.7,0,0,1,1.534-1.571l1.009-.9.183-.184a4.738,4.738,0,0,1-1.051-.536,1.369,1.369,0,0,1-.608-1.089,2.11,2.11,0,0,1,.529-1.249,20.243,20.243,0,0,1,2.262-2.215A4.012,4.012,0,0,1,438.623,768.231Zm1.626,11.408a10.358,10.358,0,0,0,3.319.49,8.51,8.51,0,0,0,4.14-.882,2.54,2.54,0,0,0,1.6-2.169q0-1.026-1.292-1.364a15.766,15.766,0,0,0-3.026-.23q-.568-.014-1.2-.039t-1.152-.054c-.226-.01-.589-.052-1.091-.122s-.876-.133-1.121-.185q-.185,0-.9.966a3.123,3.123,0,0,0-.727,1.809A1.817,1.817,0,0,0,440.249,779.639Zm4.868-10.534a3.105,3.105,0,0,0,.92-2.561,8.835,8.835,0,0,0-.743-3.281,2.555,2.555,0,0,0-2.476-1.825,2.066,2.066,0,0,0-2.07,1.426,5.156,5.156,0,0,0-.292,1.855,6.334,6.334,0,0,0,.9,3.358,2.686,2.686,0,0,0,2.346,1.488A2.167,2.167,0,0,0,445.116,769.1Z" transform="translate(-382.438 -753.496)" fill="#909090"/>
  <path id="Path_245" data-name="Path 245" d="M462.789,773.573a3.76,3.76,0,0,0,2.5-.881,5.747,5.747,0,0,0,.552-3.163V755.694l-.43-.506a3.449,3.449,0,0,0-1.173-1,4.533,4.533,0,0,0-1.448-.222v-.583h5.358L480.268,768.4V757.969q0-2.575-.767-3.351a3.873,3.873,0,0,0-2.238-.655v-.583h7.375v.583a3.647,3.647,0,0,0-2.392.874q-.6.69-.6,3.159v16.528h-.537L467.22,757.305v12.224q0,2.575.752,3.355a3.823,3.823,0,0,0,2.193.688v.583h-7.376Z" transform="translate(-385.606 -752.629)" fill="#909090"/>
  <path id="Path_246" data-name="Path 246" d="M499.24,762.146a5.474,5.474,0,0,1,1.625,4.24h-9.736q.153,3.549,1.61,5.171a4.5,4.5,0,0,0,3.449,1.621,4.346,4.346,0,0,0,2.714-.841,8.431,8.431,0,0,0,2.039-2.386l.537.183a8.736,8.736,0,0,1-2.354,3.609A5.864,5.864,0,0,1,494.9,775.4a5.166,5.166,0,0,1-4.454-2.177,8.341,8.341,0,0,1-1.572-5.014,8.154,8.154,0,0,1,1.825-5.32,5.843,5.843,0,0,1,4.753-2.24A5.426,5.426,0,0,1,499.24,762.146ZM491.9,763.32a6.089,6.089,0,0,0-.705,2.086h6.471a6.368,6.368,0,0,0-.583-2.285,2.646,2.646,0,0,0-2.515-1.35A2.931,2.931,0,0,0,491.9,763.32Z" transform="translate(-388.755 -753.507)" fill="#909090"/>
  <path id="Path_247" data-name="Path 247" d="M518.721,761.238a4.883,4.883,0,0,0-1.365.31.8.8,0,0,0-.445.806,2.441,2.441,0,0,0,.1.675q.1.349.268.814l2.789,7.258,2.722-6.629a11.755,11.755,0,0,0,.4-1.126,3.986,3.986,0,0,0,.215-1.05.8.8,0,0,0-.353-.768,2.983,2.983,0,0,0-1.027-.291v-.429h3.894v.429a1.071,1.071,0,0,0-.629.368,6.212,6.212,0,0,0-.69,1.379l-4.906,12.1a1.259,1.259,0,0,1-.108.2.161.161,0,0,1-.137.061.524.524,0,0,1-.215-.165l-3.747-9.267-3.751,9.248a.367.367,0,0,1-.084.13.174.174,0,0,1-.13.054.511.511,0,0,1-.215-.153l-4.584-11.3a15.365,15.365,0,0,0-1-2.211,1.417,1.417,0,0,0-.965-.441v-.429h5.692v.429a2.98,2.98,0,0,0-1.082.256.838.838,0,0,0-.378.827,9.573,9.573,0,0,0,.632,2.2q.371.98.943,2.384l1.763,4.287,2.711-5.8.03-.18a3.987,3.987,0,0,0-.327-1.149q-.327-.84-.63-1.5a2.275,2.275,0,0,0-.7-.981,2.248,2.248,0,0,0-1.1-.338v-.429h6.4Z" transform="translate(-390.672 -753.526)" fill="#909090"/>
  <path id="Path_248" data-name="Path 248" d="M530.392,774.639a3.49,3.49,0,0,0,1.6-.4,2.092,2.092,0,0,0,.614-1.779v-7.927a2.49,2.49,0,0,0-.3-1.487,1.233,1.233,0,0,0-.989-.353,2.005,2.005,0,0,0-.858.138V762.3l1.1-.368q.6-.2,1.963-.721t1.441-.521a.086.086,0,0,1,.092.076,1.884,1.884,0,0,1,.015.292v2.07a11.687,11.687,0,0,1,2.622-1.909,5.192,5.192,0,0,1,2.269-.528,3.169,3.169,0,0,1,2.515,1.073,4.661,4.661,0,0,1,.812,1.58,12.681,12.681,0,0,1,1.978-1.7,5.38,5.38,0,0,1,2.975-.951,3.217,3.217,0,0,1,3.3,2.008,9.934,9.934,0,0,1,.476,3.588v6.363a1.833,1.833,0,0,0,.483,1.48,3.388,3.388,0,0,0,1.741.514v.4h-6.916v-.43a3.025,3.025,0,0,0,1.756-.536,2.427,2.427,0,0,0,.422-1.686v-6.608a5.586,5.586,0,0,0-.323-2.193,2.2,2.2,0,0,0-2.223-1.257,3.521,3.521,0,0,0-1.978.66,9.79,9.79,0,0,0-1.4,1.226v7.85a3.361,3.361,0,0,0,.437,1.885,2.21,2.21,0,0,0,1.847.69v.4h-7.037v-.4a2.8,2.8,0,0,0,1.854-.705,5.063,5.063,0,0,0,.4-2.575v-4.285a11.428,11.428,0,0,0-.307-3.244,2.058,2.058,0,0,0-2.145-1.5,3.691,3.691,0,0,0-1.84.513,5.8,5.8,0,0,0-1.6,1.342v8.387a2.414,2.414,0,0,0,.406,1.61,2.509,2.509,0,0,0,1.772.46v.4h-6.977Z" transform="translate(-393.766 -753.511)" fill="#909090"/>
  <path id="Path_249" data-name="Path 249" d="M561.125,768.251a33.468,33.468,0,0,1,5.628-2.5v-1.3a5.367,5.367,0,0,0-.307-2.176,2.186,2.186,0,0,0-2.161-1.028,2.989,2.989,0,0,0-1.488.4,1.268,1.268,0,0,0-.705,1.135,4.166,4.166,0,0,0,.077.621,4.455,4.455,0,0,1,.076.559,1.275,1.275,0,0,1-.567,1.2,1.429,1.429,0,0,1-.767.2,1.286,1.286,0,0,1-1.058-.452,1.554,1.554,0,0,1-.368-1,3.194,3.194,0,0,1,1.327-2.247,5.7,5.7,0,0,1,3.886-1.173q2.974,0,4.032,1.933a6.671,6.671,0,0,1,.567,3.081v6.149a4.072,4.072,0,0,0,.123,1.226.8.8,0,0,0,.827.6,1.371,1.371,0,0,0,.583-.107,5.842,5.842,0,0,0,.8-.521v.8a5.023,5.023,0,0,1-1.058.98,3.078,3.078,0,0,1-1.748.583,1.706,1.706,0,0,1-1.511-.675,3.017,3.017,0,0,1-.513-1.609,14.423,14.423,0,0,1-1.993,1.5,5.232,5.232,0,0,1-2.653.828,3.19,3.19,0,0,1-2.284-.928,3.126,3.126,0,0,1-.966-2.355A4.369,4.369,0,0,1,561.125,768.251Zm5.628-1.733a14.058,14.058,0,0,0-2.913,1.288q-2.208,1.365-2.208,3.1a2.355,2.355,0,0,0,.92,2.055,2.237,2.237,0,0,0,1.334.43,3.666,3.666,0,0,0,1.94-.568,1.664,1.664,0,0,0,.928-1.441Z" transform="translate(-397.207 -753.486)" fill="#909090"/>
  <path id="Path_250" data-name="Path 250" d="M573.6,774.517a3.712,3.712,0,0,0,1.87-.5,2.058,2.058,0,0,0,.46-1.6V765.5a5.944,5.944,0,0,0-.283-2.169,1.035,1.035,0,0,0-1.035-.652,2.855,2.855,0,0,0-.407.038q-.252.04-.529.1v-.506l1.789-.629q.917-.321,1.269-.46.764-.29,1.575-.659c.07,0,.113.026.129.076a1.382,1.382,0,0,1,.023.323v2.515a11.726,11.726,0,0,1,1.9-2.131,2.935,2.935,0,0,1,1.9-.767,1.778,1.778,0,0,1,1.277.468,1.66,1.66,0,0,1,.116,2.231,1.2,1.2,0,0,1-.943.429,1.768,1.768,0,0,1-1.174-.536,1.655,1.655,0,0,0-.928-.536q-.537,0-1.318.866a2.651,2.651,0,0,0-.783,1.787V772.2a2.291,2.291,0,0,0,.614,1.832,3.072,3.072,0,0,0,2.039.483v.506H573.6Z" transform="translate(-398.982 -753.496)" fill="#909090"/>
  <path id="Path_251" data-name="Path 251" d="M585.407,773.677a3.763,3.763,0,0,0,1.939-.491,2.145,2.145,0,0,0,.468-1.659V756.138q0-1.089-.367-1.38a1.671,1.671,0,0,0-1.058-.292c-.2,0-.363.005-.506.016s-.3.026-.476.047v-.43l1.38-.367q1.58-.414,2.684-.783a4.761,4.761,0,0,1,.781-.229c.062,0,.1.012.115.039a.387.387,0,0,1,.024.176v12.894l4.247-3.74a3.9,3.9,0,0,0,.621-.659.809.809,0,0,0,.161-.429.421.421,0,0,0-.345-.445,6.864,6.864,0,0,0-1.235-.137v-.43h6.394v.43a6.523,6.523,0,0,0-2.755.685,28.521,28.521,0,0,0-3.994,3.3l-.919.81,2.813,3.7a26.912,26.912,0,0,0,3.295,3.732,4.2,4.2,0,0,0,2.357,1.031v.4h-6.823v-.4l.536-.032a1.346,1.346,0,0,0,.475-.11.322.322,0,0,0,.215-.316.7.7,0,0,0-.076-.323,2.873,2.873,0,0,0-.215-.339L590.39,766.3v5.72a1.4,1.4,0,0,0,.782,1.422,4.188,4.188,0,0,0,1.579.232v.4h-7.344Z" transform="translate(-400.407 -752.549)" fill="#909090"/>
  <path id="Path_252" data-name="Path 252" d="M612.7,773.573a3.5,3.5,0,0,0,2.239-.709,4.439,4.439,0,0,0,.444-2.48v-13.6a3.278,3.278,0,0,0-.5-2.162,3.583,3.583,0,0,0-2.185-.659v-.583h8.279a10.227,10.227,0,0,1,6.1,1.549,4.82,4.82,0,0,1,2.116,4.078,5.038,5.038,0,0,1-2.346,4.645,11.032,11.032,0,0,1-5.872,1.441q-.505,0-1.3-.023t-1.172-.023v5.7q0,1.77.544,2.227a4.755,4.755,0,0,0,2.43.594v.583H612.7Zm10.595-18.445a8.474,8.474,0,0,0-3.373-.583,2.2,2.2,0,0,0-1.189.193,1.147,1.147,0,0,0-.222.85v8.188q.843.076,1.1.092c.173.01.343.015.506.015a7.808,7.808,0,0,0,3.4-.613q2.254-1.12,2.255-4.186A3.941,3.941,0,0,0,623.291,755.128Z" transform="translate(-403.7 -752.629)" fill="#909090"/>
  <path id="Path_253" data-name="Path 253" d="M632.295,773.64a2.686,2.686,0,0,0,1.649-.62,3.722,3.722,0,0,0,.39-2.139V756.161a2.746,2.746,0,0,0-.222-1.264q-.223-.406-1.082-.406a2.386,2.386,0,0,0-.33.023c-.107.015-.228.033-.361.054v-.552q.675-.2,1.664-.484c.659-.188,1.116-.324,1.372-.405l1.472-.46.031.107v9.414a10,10,0,0,1,1.717-1.625,5.069,5.069,0,0,1,2.913-.921,3.364,3.364,0,0,1,3.389,2.086,7.212,7.212,0,0,1,.491,2.9v6.256a3.893,3.893,0,0,0,.375,2.116,2.271,2.271,0,0,0,1.541.644v.43h-6.64v-.43a2.863,2.863,0,0,0,1.717-.628,3.738,3.738,0,0,0,.383-2.131v-6.21a5.045,5.045,0,0,0-.5-2.407,1.939,1.939,0,0,0-1.878-.92,3.76,3.76,0,0,0-2.315.858q-1.12.859-1.119,1.119v7.559a3.6,3.6,0,0,0,.4,2.146,2.979,2.979,0,0,0,1.7.613v.43h-6.762Z" transform="translate(-406.066 -752.543)" fill="#909090"/>
  <path id="Path_254" data-name="Path 254" d="M650.534,773.64a3.9,3.9,0,0,0,2.07-.559q.43-.406.43-2.2v-7.314a4.633,4.633,0,0,0-.138-1.38.927.927,0,0,0-.966-.629,1.769,1.769,0,0,0-.329.031q-.161.03-.928.245v-.476l.659-.215q2.684-.873,3.741-1.318a2.027,2.027,0,0,1,.551-.185.817.817,0,0,1,.032.23v11.009a3.594,3.594,0,0,0,.421,2.192,3.143,3.143,0,0,0,1.909.567v.43h-7.452Zm2.438-20.5a1.518,1.518,0,0,1,1.134-.473,1.593,1.593,0,0,1,1.6,1.6,1.522,1.522,0,0,1-.468,1.121,1.592,1.592,0,0,1-2.722-1.121A1.566,1.566,0,0,1,652.972,753.139Z" transform="translate(-408.268 -752.543)" fill="#909090"/>
  <path id="Path_255" data-name="Path 255" d="M660.48,773.623a3.629,3.629,0,0,0,1.932-.574,2.22,2.22,0,0,0,.506-1.71v-14.98a3.908,3.908,0,0,0-.168-1.395,1.237,1.237,0,0,0-1.242-.645,2.549,2.549,0,0,0-.468.047c-.169.03-.38.076-.637.138V754q2.071-.553,4.983-1.472a.119.119,0,0,1,.131.092,2.047,2.047,0,0,1,.023.4V771.4a2.3,2.3,0,0,0,.46,1.725,3.584,3.584,0,0,0,1.9.5v.43h-7.42Z" transform="translate(-409.459 -752.526)" fill="#909090"/>
  <path id="Path_256" data-name="Path 256" d="M673.211,768.251a33.434,33.434,0,0,1,5.628-2.5v-1.3a5.367,5.367,0,0,0-.307-2.176,2.187,2.187,0,0,0-2.162-1.028,2.993,2.993,0,0,0-1.488.4,1.268,1.268,0,0,0-.705,1.135,4.2,4.2,0,0,0,.077.621,4.634,4.634,0,0,1,.076.559,1.275,1.275,0,0,1-.567,1.2,1.429,1.429,0,0,1-.767.2,1.285,1.285,0,0,1-1.058-.452,1.554,1.554,0,0,1-.368-1,3.2,3.2,0,0,1,1.326-2.247,5.7,5.7,0,0,1,3.887-1.173q2.974,0,4.032,1.933a6.671,6.671,0,0,1,.567,3.081v6.149a4.072,4.072,0,0,0,.123,1.226.8.8,0,0,0,.827.6,1.371,1.371,0,0,0,.583-.107,5.893,5.893,0,0,0,.8-.521v.8a5.023,5.023,0,0,1-1.058.98,3.078,3.078,0,0,1-1.748.583,1.706,1.706,0,0,1-1.511-.675,3.009,3.009,0,0,1-.513-1.609,14.474,14.474,0,0,1-1.993,1.5,5.232,5.232,0,0,1-2.653.828,3.189,3.189,0,0,1-2.284-.928,3.126,3.126,0,0,1-.966-2.355A4.367,4.367,0,0,1,673.211,768.251Zm5.628-1.733a14.09,14.09,0,0,0-2.914,1.288q-2.207,1.365-2.208,3.1a2.357,2.357,0,0,0,.92,2.055,2.241,2.241,0,0,0,1.335.43,3.668,3.668,0,0,0,1.94-.568,1.664,1.664,0,0,0,.928-1.441Z" transform="translate(-410.736 -753.486)" fill="#909090"/>
  <path id="Path_257" data-name="Path 257" d="M686.167,774.6a2.757,2.757,0,0,0,1.526-.544,2.586,2.586,0,0,0,.437-1.816v-7.79a3.589,3.589,0,0,0-.183-1.369,1.211,1.211,0,0,0-1.2-.579c-.092,0-.186.006-.283.016s-.218.025-.36.046v-.536q.628-.185,2.974-.951l1.442-.476c.07,0,.115.025.13.077a.792.792,0,0,1,.023.215v2.254a15.691,15.691,0,0,1,2.2-1.81,4.6,4.6,0,0,1,2.48-.751,3.245,3.245,0,0,1,1.9.6q1.654,1.166,1.652,4.155V772.5a2.356,2.356,0,0,0,.441,1.594,1.944,1.944,0,0,0,1.475.506v.43h-6.547v-.43a2.628,2.628,0,0,0,1.564-.62,3.153,3.153,0,0,0,.445-2.032V765.4a4.408,4.408,0,0,0-.488-2.185,1.882,1.882,0,0,0-1.8-.867,3.323,3.323,0,0,0-1.83.613,10.5,10.5,0,0,0-1.341,1.166v8.586a1.787,1.787,0,0,0,.491,1.48,2.683,2.683,0,0,0,1.548.405v.43h-6.7Z" transform="translate(-412.561 -753.498)" fill="#909090"/>
  <path id="Path_258" data-name="Path 258" d="M711.427,760.377v1.1H708.3l-.031,8.832a5.925,5.925,0,0,0,.2,1.764,1.418,1.418,0,0,0,1.442,1.058,1.732,1.732,0,0,0,.958-.261,4.982,4.982,0,0,0,.928-.828l.4.338-.338.46a4.915,4.915,0,0,1-1.686,1.518,3.834,3.834,0,0,1-1.717.445,2.416,2.416,0,0,1-2.453-1.61,6.658,6.658,0,0,1-.353-2.422v-9.292h-1.671a.422.422,0,0,1-.115-.092.178.178,0,0,1-.039-.122.372.372,0,0,1,.069-.237,4.657,4.657,0,0,1,.438-.391,13.241,13.241,0,0,0,1.525-1.417q.468-.546,2.2-2.875a.517.517,0,0,1,.237.031c.026.02.038.1.038.229v3.772Z" transform="translate(-414.7 -752.987)" fill="#909090"/>
  <path id="Path_259" data-name="Path 259" d="M713.622,773.64a2.686,2.686,0,0,0,1.649-.62,3.723,3.723,0,0,0,.39-2.139V756.161a2.733,2.733,0,0,0-.222-1.264q-.222-.406-1.081-.406a2.386,2.386,0,0,0-.33.023c-.107.015-.228.033-.36.054v-.552q.675-.2,1.664-.484c.659-.188,1.116-.324,1.372-.405l1.472-.46.031.107v9.414a10,10,0,0,1,1.717-1.625,5.069,5.069,0,0,1,2.913-.921,3.365,3.365,0,0,1,3.389,2.086,7.21,7.21,0,0,1,.491,2.9v6.256a3.894,3.894,0,0,0,.375,2.116,2.272,2.272,0,0,0,1.541.644v.43h-6.64v-.43a2.863,2.863,0,0,0,1.717-.628,3.738,3.738,0,0,0,.383-2.131v-6.21a5.045,5.045,0,0,0-.5-2.407,1.939,1.939,0,0,0-1.878-.92,3.76,3.76,0,0,0-2.315.858q-1.12.859-1.119,1.119v7.559a3.6,3.6,0,0,0,.4,2.146,2.979,2.979,0,0,0,1.7.613v.43h-6.762Z" transform="translate(-415.883 -752.543)" fill="#909090"/>
  <path id="Path_260" data-name="Path 260" d="M731.321,774.517a3.709,3.709,0,0,0,1.87-.5,2.058,2.058,0,0,0,.46-1.6V765.5a5.924,5.924,0,0,0-.283-2.169,1.035,1.035,0,0,0-1.035-.652,2.833,2.833,0,0,0-.406.038c-.169.026-.345.06-.529.1v-.506l1.788-.629q.918-.321,1.269-.46.765-.29,1.575-.659c.071,0,.114.026.129.076a1.379,1.379,0,0,1,.023.323v2.515a11.73,11.73,0,0,1,1.9-2.131,2.931,2.931,0,0,1,1.9-.767,1.777,1.777,0,0,1,1.277.468,1.66,1.66,0,0,1,.116,2.231,1.2,1.2,0,0,1-.943.429,1.766,1.766,0,0,1-1.173-.536,1.657,1.657,0,0,0-.928-.536q-.537,0-1.319.866a2.654,2.654,0,0,0-.782,1.787V772.2a2.291,2.291,0,0,0,.613,1.832,3.075,3.075,0,0,0,2.04.483v.506h-7.559Z" transform="translate(-418.019 -753.496)" fill="#909090"/>
  <path id="Path_261" data-name="Path 261" d="M745.9,762.76a6.477,6.477,0,0,1,4.991-2.109,6.814,6.814,0,0,1,5.029,1.994,7.169,7.169,0,0,1,1.993,5.3,7.9,7.9,0,0,1-1.932,5.3,6.276,6.276,0,0,1-5,2.254A6.587,6.587,0,0,1,746,773.346a7.6,7.6,0,0,1-2.039-5.427A7.337,7.337,0,0,1,745.9,762.76Zm2.448-.392q-1.537,1.4-1.535,4.815a10.811,10.811,0,0,0,1.236,5.09,3.785,3.785,0,0,0,3.433,2.361,2.921,2.921,0,0,0,2.65-1.578,8.1,8.1,0,0,0,.929-4.141,10.958,10.958,0,0,0-1.182-5,3.711,3.711,0,0,0-3.427-2.346A3.056,3.056,0,0,0,748.35,762.368Z" transform="translate(-419.545 -753.507)" fill="#909090"/>
  <path id="Path_262" data-name="Path 262" d="M761.085,781.351a2.469,2.469,0,0,0,1.82-.613,2.771,2.771,0,0,0,.389-1.641V764.379a2.56,2.56,0,0,0-.284-1.5,1.371,1.371,0,0,0-1.066-.33,2.931,2.931,0,0,0-.315.016c-.1.01-.237.03-.421.062v-.506l1.456-.476q.078-.015,3.083-1.058a.122.122,0,0,1,.114.069.327.327,0,0,1,.039.161v2.069a11.19,11.19,0,0,1,1.778-1.5,5.3,5.3,0,0,1,2.837-.858,4.629,4.629,0,0,1,3.641,1.8,7.374,7.374,0,0,1,1.526,4.925,9.177,9.177,0,0,1-1.832,5.56,5.518,5.518,0,0,1-4.608,2.5,4.6,4.6,0,0,1-1.487-.215,4.422,4.422,0,0,1-1.81-1.18v5.029q0,1.548.507,1.9a5.092,5.092,0,0,0,2.208.475v.537h-7.575Zm6.05-7.611a3.34,3.34,0,0,0,1.862.513,3.412,3.412,0,0,0,2.829-1.646A7.8,7.8,0,0,0,773,768.02a6.251,6.251,0,0,0-1.219-4.211,3.667,3.667,0,0,0-2.83-1.393,3.384,3.384,0,0,0-2.069.7,1.861,1.861,0,0,0-.936,1.37v7.7A3.1,3.1,0,0,0,767.135,773.74Z" transform="translate(-421.612 -753.492)" fill="#909090"/>
  <path id="Path_263" data-name="Path 263" d="M779.464,773.64a3.9,3.9,0,0,0,2.07-.559q.429-.406.43-2.2v-7.314a4.665,4.665,0,0,0-.138-1.38.927.927,0,0,0-.966-.629,1.778,1.778,0,0,0-.33.031q-.161.03-.928.245v-.476l.659-.215q2.683-.873,3.741-1.318a2.028,2.028,0,0,1,.552-.185.849.849,0,0,1,.031.23v11.009a3.592,3.592,0,0,0,.422,2.192,3.141,3.141,0,0,0,1.909.567v.43h-7.452Zm2.438-20.5a1.518,1.518,0,0,1,1.134-.473,1.6,1.6,0,1,1-1.595,1.6A1.566,1.566,0,0,1,781.9,753.139Z" transform="translate(-423.83 -752.543)" fill="#909090"/>
  <path id="Path_264" data-name="Path 264" d="M799.75,762.146a5.473,5.473,0,0,1,1.625,4.24H791.64q.153,3.549,1.61,5.171a4.494,4.494,0,0,0,3.449,1.621,4.342,4.342,0,0,0,2.714-.841,8.435,8.435,0,0,0,2.04-2.386l.536.183a8.727,8.727,0,0,1-2.354,3.609,5.861,5.861,0,0,1-4.223,1.658,5.168,5.168,0,0,1-4.455-2.177,8.341,8.341,0,0,1-1.571-5.014,8.158,8.158,0,0,1,1.824-5.32,5.844,5.844,0,0,1,4.753-2.24A5.423,5.423,0,0,1,799.75,762.146Zm-7.344,1.174a6.09,6.09,0,0,0-.705,2.086h6.47a6.349,6.349,0,0,0-.583-2.285,2.645,2.645,0,0,0-2.514-1.35A2.931,2.931,0,0,0,792.406,763.32Z" transform="translate(-425.028 -753.507)" fill="#909090"/>
  <path id="Path_265" data-name="Path 265" d="M806.4,770.189h.506a8,8,0,0,0,.948,2.683,3.469,3.469,0,0,0,3.136,1.717,2.517,2.517,0,0,0,1.813-.636,2.178,2.178,0,0,0,.666-1.649,2.268,2.268,0,0,0-.383-1.242,3.947,3.947,0,0,0-1.349-1.166l-1.717-.98a9.808,9.808,0,0,1-2.775-2.04,3.58,3.58,0,0,1-.89-2.422,3.627,3.627,0,0,1,1.227-2.821,4.434,4.434,0,0,1,3.082-1.1,6,6,0,0,1,1.786.306,8.2,8.2,0,0,0,1.1.307.773.773,0,0,0,.4-.076.637.637,0,0,0,.215-.245h.367l.107,4.278h-.475a7.106,7.106,0,0,0-.828-2.315,3.042,3.042,0,0,0-2.744-1.534,2.178,2.178,0,0,0-2.3,2.208q0,1.411,2.116,2.515l2.024,1.089q3.267,1.778,3.266,4.14a3.7,3.7,0,0,1-1.355,2.959,5.284,5.284,0,0,1-3.543,1.15A8.318,8.318,0,0,1,808.71,775a9.344,9.344,0,0,0-1.378-.307.454.454,0,0,0-.322.13.9.9,0,0,0-.214.314h-.4Z" transform="translate(-427.075 -753.492)" fill="#909090"/>
</svg>
