<svg id="Group_100" data-name="Group 100" xmlns="http://www.w3.org/2000/svg" width="356.177" height="50.113" viewBox="0 0 356.177 50.113">
  <path id="Path_187" data-name="Path 187" d="M236.019,431.349a25.056,25.056,0,1,1,25.057-25.056A25.085,25.085,0,0,1,236.019,431.349Zm0-46.734A21.677,21.677,0,1,0,257.7,406.292,21.7,21.7,0,0,0,236.019,384.615Z" transform="translate(-210.963 -381.236)" fill="#909090"/>
  <rect id="Rectangle_126" data-name="Rectangle 126" width="4.949" height="11.008" transform="translate(9.68 22.691)" fill="#909090"/>
  <rect id="Rectangle_127" data-name="Rectangle 127" width="4.949" height="13.422" transform="translate(17.622 20.277)" fill="#909090"/>
  <rect id="Rectangle_128" data-name="Rectangle 128" width="4.949" height="15.787" transform="translate(25.684 17.911)" fill="#909090"/>
  <rect id="Rectangle_129" data-name="Rectangle 129" width="4.949" height="19.215" transform="translate(33.626 14.459)" fill="#909090"/>
  <g id="Group_99" data-name="Group 99" transform="translate(60.625 14.187)">
    <g id="Group_87" data-name="Group 87" transform="translate(0 0.358)" style="isolation: isolate">
      <path id="Path_188" data-name="Path 188" d="M290.036,408.126l4.348,8.7h-4.926l-3.742-7.815h-1.238v7.815H279.91V397.778h6.549c3.99,0,6,2.065,6,5.669A5.185,5.185,0,0,1,290.036,408.126Zm-5.558-6.385v3.522h1.6a1.6,1.6,0,0,0,1.651-1.788,1.584,1.584,0,0,0-1.651-1.734Z" transform="translate(-279.91 -397.778)" fill="#909090"/>
    </g>
    <g id="Group_88" data-name="Group 88" transform="translate(14.755 0.358)" style="isolation: isolate">
      <path id="Path_189" data-name="Path 189" d="M308.772,412.28h-6l-1.569,4.541h-4.513l6.66-19.043h4.843l7.045,19.043h-4.871Zm-4.678-3.852h3.357l-1.679-4.816Z" transform="translate(-296.691 -397.778)" fill="#909090"/>
    </g>
    <g id="Group_89" data-name="Group 89" transform="translate(34.181 0.358)" style="isolation: isolate">
      <path id="Path_190" data-name="Path 190" d="M323.214,405.566v11.255h-4.431V397.778h4.733l7.155,11.5v-11.5H335.1v19.043h-4.541Z" transform="translate(-318.783 -397.778)" fill="#909090"/>
    </g>
    <g id="Group_90" data-name="Group 90" transform="translate(52.84 0.358)" style="isolation: isolate">
      <path id="Path_191" data-name="Path 191" d="M344.6,405.236l5.2-7.458h5.311l-6.687,9.109,6.66,9.934h-5.366l-5.118-7.788v7.788H340V397.778h4.6v7.458Z" transform="translate(-340.004 -397.778)" fill="#909090"/>
    </g>
    <g id="Group_91" data-name="Group 91" transform="translate(68.821 0.358)" style="isolation: isolate">
      <path id="Path_192" data-name="Path 192" d="M362.774,416.821h-4.6V397.778h4.6Z" transform="translate(-358.178 -397.778)" fill="#909090"/>
    </g>
    <g id="Group_92" data-name="Group 92" transform="translate(75.749)" style="isolation: isolate">
      <path id="Path_193" data-name="Path 193" d="M370.488,405.566v11.255h-4.431V397.778h4.733l7.155,11.5v-11.5h4.431v19.043h-4.541Z" transform="translate(-366.057 -397.42)" fill="#909090"/>
      <path id="Path_194" data-name="Path 194" d="M405.179,416.772h-4.431v-.936a6.957,6.957,0,0,1-4.375,1.266c-5.889,0-9.879-3.936-9.879-9.88a9.608,9.608,0,0,1,9.879-9.852c4.156,0,6.687,1.761,8.091,4.018L400.831,404a5.155,5.155,0,0,0-4.485-2.339c-3,0-5.064,2.284-5.064,5.558,0,3.44,2.284,5.642,5.312,5.642a5.679,5.679,0,0,0,4.072-1.459v-1.376h-2.834v-3.77h7.347v10.512Z" transform="translate(-368.524 -397.371)" fill="#909090"/>
      <path id="Path_195" data-name="Path 195" d="M419.2,397.778c6.3,0,10.154,3.5,10.154,9.466,0,5.944-3.852,9.576-10.154,9.576h-4.348V397.778Zm.248,15c3.027.027,5.117-1.817,5.117-5.5,0-3.66-2.008-5.476-5.117-5.448Z" transform="translate(-371.946 -397.42)" fill="#909090"/>
      <path id="Path_196" data-name="Path 196" d="M437.814,416.821h-4.6V397.778h4.6Z" transform="translate(-374.164 -397.42)" fill="#909090"/>
      <path id="Path_197" data-name="Path 197" d="M459.008,416.772h-4.43v-.936A6.962,6.962,0,0,1,450.2,417.1c-5.889,0-9.879-3.936-9.879-9.88a9.608,9.608,0,0,1,9.879-9.852c4.156,0,6.687,1.761,8.09,4.018L454.66,404a5.155,5.155,0,0,0-4.485-2.339c-3,0-5.064,2.284-5.064,5.558,0,3.44,2.284,5.642,5.312,5.642a5.679,5.679,0,0,0,4.072-1.459v-1.376h-2.834v-3.77h7.347Z" transform="translate(-375.021 -397.371)" fill="#909090"/>
      <path id="Path_198" data-name="Path 198" d="M468.578,416.821h-4.6V397.778h4.6Z" transform="translate(-377.877 -397.42)" fill="#909090"/>
    </g>
    <g id="Group_93" data-name="Group 93" transform="translate(168.002 0.358)" style="isolation: isolate">
      <path id="Path_199" data-name="Path 199" d="M478.761,402.071v14.75h-4.6v-14.75h-3.192v-4.293h10.952v4.293Z" transform="translate(-470.974 -397.778)" fill="#909090"/>
    </g>
    <g id="Group_94" data-name="Group 94" transform="translate(177.383 0.358)" style="isolation: isolate">
      <path id="Path_200" data-name="Path 200" d="M493.724,412.28h-6l-1.569,4.541h-4.513l6.659-19.043h4.843l7.045,19.043h-4.87Zm-4.679-3.852H492.4l-1.678-4.816Z" transform="translate(-481.643 -397.778)" fill="#909090"/>
      <path id="Path_201" data-name="Path 201" d="M503.738,416.821V397.778h4.6v14.75h4.348v4.293Z" transform="translate(-484.31 -397.778)" fill="#909090"/>
    </g>
    <g id="Group_95" data-name="Group 95" transform="translate(211.509 0.358)" style="isolation: isolate">
      <path id="Path_202" data-name="Path 202" d="M530.581,408.126l4.347,8.7H530l-3.742-7.815h-1.239v7.815h-4.568V397.778H527c3.99,0,6,2.065,6,5.669A5.187,5.187,0,0,1,530.581,408.126Zm-5.559-6.385v3.522h1.6a1.6,1.6,0,0,0,1.651-1.788,1.584,1.584,0,0,0-1.651-1.734Z" transform="translate(-520.454 -397.778)" fill="#909090"/>
    </g>
    <g id="Group_96" data-name="Group 96" transform="translate(226.645)" style="isolation: isolate">
      <path id="Path_203" data-name="Path 203" d="M542.263,416.821h-4.6V397.778h4.6v19.043Z" transform="translate(-537.667 -397.42)" fill="#909090"/>
      <path id="Path_204" data-name="Path 204" d="M563.456,416.772h-4.43v-.936a6.957,6.957,0,0,1-4.375,1.266c-5.89,0-9.88-3.936-9.88-9.88a9.608,9.608,0,0,1,9.88-9.852c4.155,0,6.686,1.761,8.09,4.018L559.108,404a5.155,5.155,0,0,0-4.485-2.339c-3,0-5.063,2.284-5.063,5.558,0,3.44,2.284,5.642,5.311,5.642a5.681,5.681,0,0,0,4.073-1.459v-1.376h-2.835v-3.77h7.347Z" transform="translate(-538.524 -397.371)" fill="#909090"/>
      <path id="Path_205" data-name="Path 205" d="M584.227,416.821h-4.6v-7.513h-6.6v7.513h-4.6V397.778h4.6v7.156h6.6v-7.156h4.6Z" transform="translate(-541.38 -397.42)" fill="#909090"/>
    </g>
    <g id="Group_97" data-name="Group 97" transform="translate(271.029 0.358)" style="isolation: isolate">
      <path id="Path_206" data-name="Path 206" d="M595.931,402.071v14.75h-4.6v-14.75h-3.192v-4.293H599.1v4.293Z" transform="translate(-588.144 -397.778)" fill="#909090"/>
    </g>
    <g id="Group_98" data-name="Group 98" transform="translate(282.712)" style="isolation: isolate">
      <path id="Path_207" data-name="Path 207" d="M607.942,404.581l2.394.936c2.476,1.018,3.935,2.67,3.935,5.5,0,3.853-2.724,6.109-6.549,6.109-5.449,0-6.44-3.55-6.275-6.329H605.8c-.056,1.211.412,2.394,1.927,2.394a1.628,1.628,0,0,0,1.816-1.679c0-1.074-.77-1.6-2.008-2.064-.964-.386-1.927-.743-2.972-1.266a5.509,5.509,0,0,1-2.945-5.174c0-3.33,2.422-5.642,6.137-5.642,4.486,0,6.109,2.56,5.917,5.944h-4.238c.027-1.183-.578-2.008-1.651-2.008a1.4,1.4,0,0,0-1.569,1.431C606.208,403.536,606.649,404.086,607.942,404.581Z" transform="translate(-601.431 -397.371)" fill="#909090"/>
    </g>
  </g>
</svg>
