<?xml version="1.0" encoding="utf-8"?>
<!-- Generator: Adobe Illustrator 24.2.1, SVG Export Plug-In . SVG Version: 6.00 Build 0)  -->
<svg version="1.1" id="Group_100" xmlns="http://www.w3.org/2000/svg" xmlns:xlink="http://www.w3.org/1999/xlink" x="0px" y="0px"
	 viewBox="0 0 356.2 50.1" style="enable-background:new 0 0 356.2 50.1;" xml:space="preserve">
<style type="text/css">
	.st0{fill:#53F489;}
</style>
<path id="Path_187" class="st0" d="M25.1,50.1C11.2,50.1,0,38.9,0,25.1C0,11.2,11.2,0,25.1,0c13.8,0,25.1,11.2,25.1,25.1
	C50.1,38.9,38.9,50.1,25.1,50.1z M25.1,3.4c-12,0-21.7,9.7-21.7,21.7c0,12,9.7,21.7,21.7,21.7c12,0,21.7-9.7,21.7-21.7
	C46.7,13.1,37,3.4,25.1,3.4z"/>
<rect id="Rectangle_126" x="9.7" y="22.7" class="st0" width="4.9" height="11"/>
<rect id="Rectangle_127" x="17.6" y="20.3" class="st0" width="4.9" height="13.4"/>
<rect id="Rectangle_128" x="25.7" y="17.9" class="st0" width="4.9" height="15.8"/>
<rect id="Rectangle_129" x="33.6" y="14.5" class="st0" width="4.9" height="19.2"/>
<g id="Group_99" transform="translate(60.625 14.187)">
	<g id="Group_87" transform="translate(0 0.358)">
		<path id="Path_188" class="st0" d="M10.1,10.3l4.3,8.7H9.5l-3.7-7.8H4.6V19H0V0h6.5c4,0,6,2.1,6,5.7C12.7,7.6,11.7,9.3,10.1,10.3z
			 M4.6,4v3.5h1.6c0.9,0,1.6-0.7,1.7-1.5c0-0.1,0-0.2,0-0.3C7.9,4.8,7.3,4.1,6.4,4C6.3,4,6.2,4,6.2,4H4.6z"/>
	</g>
	<g id="Group_88" transform="translate(14.755 0.358)">
		<path id="Path_189" class="st0" d="M12.1,14.5h-6L4.5,19H0L6.7,0h4.8l7,19h-4.9L12.1,14.5z M7.4,10.6h3.4L9.1,5.8L7.4,10.6z"/>
	</g>
	<g id="Group_89" transform="translate(34.181 0.358)">
		<path id="Path_190" class="st0" d="M4.4,7.8V19H0V0h4.7l7.2,11.5V0h4.4v19h-4.5L4.4,7.8z"/>
	</g>
	<g id="Group_90" transform="translate(52.84 0.358)">
		<path id="Path_191" class="st0" d="M4.6,7.5L9.8,0h5.3L8.4,9.1l6.7,9.9H9.7l-5.1-7.8V19H0V0h4.6V7.5L4.6,7.5z"/>
	</g>
	<g id="Group_91" transform="translate(68.821 0.358)">
		<path id="Path_192" class="st0" d="M4.6,19H0V0h4.6V19z"/>
	</g>
	<g id="Group_92" transform="translate(75.749)">
		<path id="Path_193" class="st0" d="M4.4,8.1v11.3H0v-19h4.7l7.2,11.5V0.4h4.4v19h-4.5L4.4,8.1z"/>
		<path id="Path_194" class="st0" d="M36.7,19.4h-4.4v-0.9c-1.3,0.9-2.8,1.3-4.4,1.3c-5.9,0-9.9-3.9-9.9-9.9C17.8,4.5,22,0.1,27.3,0
			c0.2,0,0.3,0,0.5,0c4.2,0,6.7,1.8,8.1,4l-3.6,2.6c-1-1.5-2.7-2.4-4.5-2.3c-3,0-5.1,2.3-5.1,5.6c0,3.4,2.3,5.6,5.3,5.6
			c1.5,0.1,3-0.5,4.1-1.5v-1.4h-2.8V8.9h7.3L36.7,19.4L36.7,19.4z"/>
		<path id="Path_195" class="st0" d="M47.3,0.4c6.3,0,10.2,3.5,10.2,9.5c0,5.9-3.9,9.6-10.2,9.6h-4.3v-19H47.3z M47.5,15.4
			c3,0,5.1-1.8,5.1-5.5c0-3.7-2-5.5-5.1-5.4V15.4z"/>
		<path id="Path_196" class="st0" d="M63.6,19.4H59v-19h4.6V19.4z"/>
		<path id="Path_197" class="st0" d="M84,19.4h-4.4v-0.9c-1.3,0.9-2.8,1.3-4.4,1.3c-5.9,0-9.9-3.9-9.9-9.9c-0.1-5.3,4.1-9.7,9.4-9.9
			c0.2,0,0.3,0,0.5,0c4.2,0,6.7,1.8,8.1,4l-3.6,2.6c-1-1.5-2.7-2.4-4.5-2.3c-3,0-5.1,2.3-5.1,5.6c0,3.4,2.3,5.6,5.3,5.6
			c1.5,0.1,3-0.5,4.1-1.5v-1.4h-2.8V8.9H84V19.4z"/>
		<path id="Path_198" class="st0" d="M90.7,19.4h-4.6v-19h4.6V19.4z"/>
	</g>
	<g id="Group_93" transform="translate(168.002 0.358)">
		<path id="Path_199" class="st0" d="M7.8,4.3V19H3.2V4.3H0V0h11v4.3H7.8z"/>
	</g>
	<g id="Group_94" transform="translate(177.383 0.358)">
		<path id="Path_200" class="st0" d="M12.1,14.5h-6L4.5,19H0L6.7,0h4.8l7,19h-4.9L12.1,14.5z M7.4,10.6h3.4L9.1,5.8L7.4,10.6z"/>
		<path id="Path_201" class="st0" d="M19.4,19V0H24v14.8h4.3V19H19.4z"/>
	</g>
	<g id="Group_95" transform="translate(211.509 0.358)">
		<path id="Path_202" class="st0" d="M10.1,10.3l4.3,8.7H9.5l-3.7-7.8H4.6V19H0V0h6.5c4,0,6,2.1,6,5.7C12.7,7.6,11.7,9.3,10.1,10.3z
			 M4.6,4v3.5h1.6c0.9,0,1.6-0.7,1.7-1.5c0-0.1,0-0.2,0-0.3C7.9,4.8,7.3,4.1,6.4,4C6.3,4,6.2,4,6.2,4H4.6z"/>
	</g>
	<g id="Group_96" transform="translate(226.645)">
		<path id="Path_203" class="st0" d="M4.6,19.4H0v-19h4.6V19.4z"/>
		<path id="Path_204" class="st0" d="M24.9,19.4h-4.4v-0.9c-1.3,0.9-2.8,1.3-4.4,1.3c-5.9,0-9.9-3.9-9.9-9.9
			C6.1,4.5,10.3,0.1,15.6,0c0.2,0,0.3,0,0.5,0c4.2,0,6.7,1.8,8.1,4l-3.6,2.6c-1-1.5-2.7-2.4-4.5-2.3c-3,0-5.1,2.3-5.1,5.6
			c0,3.4,2.3,5.6,5.3,5.6c1.5,0.1,3-0.5,4.1-1.5v-1.4h-2.8V8.9h7.3L24.9,19.4z"/>
		<path id="Path_205" class="st0" d="M42.8,19.4h-4.6v-7.5h-6.6v7.5H27v-19h4.6v7.2h6.6V0.4h4.6V19.4z"/>
	</g>
	<g id="Group_97" transform="translate(271.029 0.358)">
		<path id="Path_206" class="st0" d="M7.8,4.3V19H3.2V4.3H0V0h11v4.3H7.8z"/>
	</g>
	<g id="Group_98" transform="translate(282.712)">
		<path id="Path_207" class="st0" d="M6.5,7.2l2.4,0.9c2.5,1,3.9,2.7,3.9,5.5c0,3.9-2.7,6.1-6.5,6.1c-5.4,0-6.4-3.5-6.3-6.3h4.4
			c-0.1,1.2,0.4,2.4,1.9,2.4c0.9,0.1,1.7-0.5,1.8-1.4c0-0.1,0-0.2,0-0.3c0-1.1-0.8-1.6-2-2.1c-1-0.4-1.9-0.7-3-1.3
			c-1.9-1-3.1-3-2.9-5.2C0.2,2.3,2.6,0,6.3,0c4.5,0,6.1,2.6,5.9,5.9H8c0-1.2-0.6-2-1.7-2C5.6,3.8,4.9,4.4,4.8,5.2c0,0.1,0,0.1,0,0.2
			C4.8,6.2,5.2,6.7,6.5,7.2z"/>
	</g>
</g>
</svg>
