<svg xmlns="http://www.w3.org/2000/svg" viewBox="0 0 279.22 275.88"><g data-name="Layer 2"><path d="M263.1 61.15c-9.37-9.56-46.09-38.09-64.91-47.31A134 134 0 0 0 139.61 0 134 134 0 0 0 81 13.84c-18.78 9.21-55.51 37.74-64.88 47.31A58.19 58.19 0 0 0 0 101.69v72.49a58.24 58.24 0 0 0 16.12 40.56C25.48 224.29 62.21 252.81 81 262a134 134 0 0 0 58.57 13.84A134.09 134.09 0 0 0 198.19 262c18.83-9.23 55.55-37.75 64.91-47.31a58.25 58.25 0 0 0 16.12-40.55v-72.45a58.24 58.24 0 0 0-16.12-40.54zM31.82 76.52C40.17 68 74.6 41.45 90.71 33.57A111.8 111.8 0 0 1 139.61 22a111.87 111.87 0 0 1 48.91 11.6c16.1 7.88 50.54 34.43 58.88 42.95a36.09 36.09 0 0 1 9.85 25.17v12.64a36 36 0 0 1-13.65 28.2c-39.23 31.12-67.47 52.1-77 57.15a57.78 57.78 0 0 1-27 6.29 62.19 62.19 0 0 1-27.27-6.45c-9.11-4.47-38.73-27.29-42.45-30.84a.93.93 0 0 1-.27-.76.89.89 0 0 1 .39-.73l20.47-15.48 23.25 17.58a43.1 43.1 0 0 0 51.8 0L207 137.94l15-11.35a23.72 23.72 0 0 0 8.19-10.67 23 23 0 0 0-5.49-24.46c-3.92-3.82-36-28.85-48.09-34.82a84.23 84.23 0 0 0-37-8.71 79.9 79.9 0 0 0-37.28 8.86C88.58 64.07 51.24 92.92 22 116.13v-14.44a36.07 36.07 0 0 1 9.82-25.17zm76.86 61.42L127 124.11a21 21 0 0 1 25.3 0l18.29 13.83-18.29 13.82a21 21 0 0 1-25.3 0zm138.72 61.42c-8.34 8.52-42.77 35.06-58.88 42.95a111.91 111.91 0 0 1-48.91 11.6 111.94 111.94 0 0 1-48.91-11.6c-16.1-7.89-50.54-34.43-58.88-42.95A36.1 36.1 0 0 1 22 174.18v-12.64a36 36 0 0 1 13.65-28.19c39.22-31.11 67.46-52.1 77-57.15 15.09-8 36.56-8.56 54.29.15 9.12 4.49 38.74 27.31 42.46 30.86a1 1 0 0 1 .27.75 1 1 0 0 1-.4.73l-20.47 15.48-23.25-17.59a43 43 0 0 0-51.81 0l-41.49 31.36-15 11.32A23.91 23.91 0 0 0 49.06 160a23 23 0 0 0 5.48 24.47c3.93 3.82 36 28.86 48.09 34.82a84.26 84.26 0 0 0 37 8.7h.06a79.77 79.77 0 0 0 37.25-8.85c13.73-7.27 51.09-36.12 80.36-59.34v14.43a36.1 36.1 0 0 1-9.9 25.13z" fill="#353535" data-name="Layer 1"/></g></svg>