<?xml version="1.0" encoding="utf-8"?>
<!-- Generator: Adobe Illustrator 24.3.0, SVG Export Plug-In . SVG Version: 6.00 Build 0)  -->
<svg version="1.1" id="Layer_1" xmlns="http://www.w3.org/2000/svg" xmlns:xlink="http://www.w3.org/1999/xlink" x="0px" y="0px"
	 viewBox="0 0 1080 1080" style="enable-background:new 0 0 1080 1080;" xml:space="preserve">
<style type="text/css">
	.st0{fill:#0F2D33;}
	.st1{fill:#FFFFFF;}
	.st2{fill:#6EC889;}
</style>
<rect x="0" class="st0" width="1080" height="1080"/>
<g>
	<path class="st1" d="M673.5,249.77H406.5L298.95,357.32v231.86c0,132.92,108.13,241.05,241.05,241.05
		c132.92,0,241.05-108.14,241.05-241.05V357.32L673.5,249.77z"/>
	<path class="st2" d="M721.12,589.18c0,100.03-81.09,181.12-181.12,181.12c-100.03,0-181.12-81.09-181.12-181.12V382.15v0
		l72.45-72.45h217.34v72.45h72.45V589.18z"/>
	<path class="st0" d="M589.86,530.91c-10.27-11.86-21.12-18.16-21.12-23.64c0-10.41,25.55-16.96,25.55-52.49
		c0-29.98-24.31-54.29-54.29-54.29c-29.98,0-54.29,24.31-54.29,54.29c0,35.54,25.55,42.09,25.55,52.49
		c0,5.48-10.85,11.77-21.12,23.64c-11.17,12.1-18,28.26-18,46.02v75.41h135.73v-75.41C607.86,559.17,601.03,543.01,589.86,530.91z"
		/>
</g>
</svg>
