<?xml version="1.0" encoding="utf-8"?>
<!-- Generator: Adobe Illustrator 24.3.0, SVG Export Plug-In . SVG Version: 6.00 Build 0)  -->
<svg version="1.1" id="Layer_1" xmlns="http://www.w3.org/2000/svg" xmlns:xlink="http://www.w3.org/1999/xlink" x="0px" y="0px"
	 viewBox="0 0 1080 570" style="enable-background:new 0 0 1080 570;" xml:space="preserve">
<style type="text/css">
	.st0{fill:#0F2D33;}
	.st1{fill:#FFFFFF;}
	.st2{fill:#6EC889;}
</style>
<rect class="st0" width="1080" height="570"/>
<g>
	<path class="st1" d="M352.32,127.72H207.63L149.34,186v125.65c0,72.03,58.6,130.63,130.63,130.63
		c72.03,0,130.63-58.6,130.63-130.63V186L352.32,127.72z"/>
	<path class="st2" d="M378.12,311.65c0,54.21-43.94,98.15-98.15,98.15c-54.21,0-98.15-43.94-98.15-98.15v-112.2v0l39.26-39.26
		h117.78v39.26h39.26V311.65z"/>
	<g>
		<path class="st1" d="M551.97,159.32v13.24h-20.46v60.94h-14.97v-60.94h-20.46v-13.24H551.97z"/>
		<path class="st1" d="M607.42,205.94v27.56h-14.1v-26.7c0-7.86-4.74-11.52-9.58-11.52c-5.06,0-11.3,2.8-11.3,11.84v26.38h-14.1
			v-77.63h14.1v35.32c2.15-6.46,10.23-9.26,15.07-9.26C600.64,181.93,607.53,190.87,607.42,205.94z"/>
		<path class="st1" d="M668.36,212.94h-37.79c1.51,5.92,6.24,9.37,12.92,9.37c5.17,0,10.12-2.37,13.24-5.92l8.18,8.29
			c-4.74,6.35-13.46,10.12-22.29,10.12c-15.5,0-26.81-10.87-26.81-26.38c0-16.26,12.38-26.49,26.7-26.49
			c14.43,0,26.16,10.23,26.16,25.63C668.68,208.96,668.58,210.68,668.36,212.94z M654.47,203.79c-0.43-5.92-5.28-9.69-11.63-9.69
			c-5.81,0-10.77,2.91-12.27,9.69H654.47z"/>
		<path class="st1" d="M532.05,247.77c21.32,0,33.7,16.15,33.7,37.25c0,21-12.38,36.93-33.7,36.93h-29.07v-74.19H532.05z
			 M532.05,308.71c12.38,0,18.73-10.98,18.73-23.69c0-12.7-6.35-24.01-18.73-24.01h-14.1v47.7H532.05z"/>
		<path class="st1" d="M572.96,254.33c0-4.74,4.09-8.4,8.94-8.4c4.95,0,8.94,3.66,8.94,8.4c0,4.74-3.98,8.5-8.94,8.5
			C577.06,262.84,572.96,259.07,572.96,254.33z M574.9,321.95v-50.28h14.1v50.28H574.9z"/>
		<path class="st1" d="M638.86,271.67h14.1v44.04c0,21.97-11.09,32.19-28.86,32.19c-10.77,0-20.13-6.03-24.44-15.4l11.74-5.06
			c2.15,4.63,7.32,7.86,12.7,7.86c9.05,0,14.75-5.06,14.75-18.09v-1.4c-3.66,4.95-10.55,7.43-16.15,7.43
			c-12.92,0-24.66-10.34-24.66-26.49c0-16.15,11.74-26.38,24.66-26.38c5.71,0,12.49,2.37,16.15,7.32V271.67z M638.43,296.76
			c0-7.75-6.46-13.24-13.03-13.24c-7.1,0-13.03,5.81-13.03,13.24c0,7.32,5.92,13.35,13.03,13.35
			C632.29,310.11,638.43,304.4,638.43,296.76z"/>
		<path class="st1" d="M663.08,254.33c0-4.74,4.09-8.4,8.94-8.4c4.95,0,8.94,3.66,8.94,8.4c0,4.74-3.98,8.5-8.94,8.5
			C667.17,262.84,663.08,259.07,663.08,254.33z M665.02,321.95v-50.28h14.1v50.28H665.02z"/>
		<path class="st1" d="M720.79,271.67v10.98h-10.66v39.3h-14.1v-39.3h-9.15v-10.98h9.15v-18.3h14.1v18.3H720.79z"/>
		<path class="st1" d="M764.4,271.67h14.1v50.28h-14.1v-7.21c-3.34,5.17-9.8,8.51-16.58,8.51c-13.89,0-24.23-10.77-24.23-26.38
			c0-15.61,10.12-26.49,24.55-26.49c6.46,0,12.92,2.8,16.26,7.97V271.67z M763.97,296.86c0-7.65-6.14-13.35-13.14-13.35
			c-7.32,0-12.81,6.03-12.81,13.35c0,7,5.49,13.24,12.92,13.24C758.05,310.11,763.97,304.08,763.97,296.86z"/>
		<path class="st1" d="M790.56,321.95v-77.63h14.1v77.63H790.56z"/>
		<path class="st1" d="M498.78,388.86h14.97c0.11,5.28,5.28,9.69,12.17,9.69c6.68,0,11.09-3.66,11.09-8.94c0-4.09-3.02-7-9.37-8.94
			l-9.04-2.59c-16.26-4.3-19.17-14.1-19.17-20.78c0-13.24,11.41-22.4,25.63-22.4c14,0,24.77,8.51,24.77,22.61h-14.97
			c0-5.28-3.66-9.37-10.12-9.37c-5.81,0-10.23,3.88-10.23,8.83c0,1.83,0.54,5.6,8.29,7.86l8.29,2.37c11.2,3.34,21,9.04,21,21.64
			c0,14.75-12.6,22.83-26.6,22.83C509.66,411.69,498.78,401.89,498.78,388.86z"/>
		<path class="st1" d="M589.98,360.11v10.98h-10.66v39.3h-14.1v-39.3h-9.15v-10.98h9.15v-18.3h14.1v18.3H589.98z"/>
		<path class="st1" d="M633.58,360.11h14.11v50.28h-14.11v-7.21c-3.34,5.17-9.8,8.51-16.58,8.51c-13.89,0-24.23-10.77-24.23-26.38
			c0-15.61,10.12-26.49,24.55-26.49c6.46,0,12.92,2.8,16.26,7.97V360.11z M633.15,385.31c0-7.65-6.14-13.35-13.14-13.35
			c-7.32,0-12.81,6.03-12.81,13.35c0,7,5.49,13.24,12.92,13.24C627.23,398.55,633.15,392.52,633.15,385.31z"/>
		<path class="st1" d="M708.85,382.83v27.56h-14.1v-26.81c0-7.86-4.74-11.41-9.58-11.41c-5.06,0-11.3,2.69-11.3,11.84v26.38h-14.1
			v-50.28h14.1v8.51c2.15-6.78,10.12-9.8,15.07-9.8C702.06,358.82,708.95,367.76,708.85,382.83z"/>
		<path class="st1" d="M758.05,332.77h14.11v77.63h-14.11v-6.25c-3.55,5.17-10.55,7.54-16.15,7.54c-12.92,0-24.66-10.34-24.66-26.49
			c0-16.15,11.74-26.38,24.66-26.38c5.81,0,12.6,2.26,16.15,7.43V332.77z M757.62,385.2c0-7.75-6.46-13.24-13.03-13.24
			c-7.11,0-13.03,5.81-13.03,13.24c0,7.32,5.92,13.35,13.03,13.35C751.48,398.55,757.62,392.85,757.62,385.2z"/>
		<path class="st1" d="M822.01,360.11h14.11v50.28h-14.11v-7.21c-3.34,5.17-9.8,8.51-16.58,8.51c-13.89,0-24.23-10.77-24.23-26.38
			c0-15.61,10.12-26.49,24.55-26.49c6.46,0,12.92,2.8,16.26,7.97V360.11z M821.58,385.31c0-7.65-6.14-13.35-13.14-13.35
			c-7.32,0-12.81,6.03-12.81,13.35c0,7,5.49,13.24,12.92,13.24C815.65,398.55,821.58,392.52,821.58,385.31z"/>
		<path class="st1" d="M884.89,360.44l-3.23,13.46c-3.01-1.62-5.49-1.83-7.21-1.83c-7.21,0-12.17,6.78-12.17,21.1v17.23h-14.1
			v-50.28h14v10.77c2.8-8.4,8.5-12.06,14.75-12.06C879.61,358.82,882.63,359.25,884.89,360.44z"/>
		<path class="st1" d="M926.55,332.77h14.1v77.63h-14.1v-6.25c-3.55,5.17-10.55,7.54-16.15,7.54c-12.92,0-24.66-10.34-24.66-26.49
			c0-16.15,11.74-26.38,24.66-26.38c5.81,0,12.6,2.26,16.15,7.43V332.77z M926.12,385.2c0-7.75-6.46-13.24-13.03-13.24
			c-7.1,0-13.03,5.81-13.03,13.24c0,7.32,5.92,13.35,13.03,13.35C919.99,398.55,926.12,392.85,926.12,385.2z"/>
	</g>
	<path class="st0" d="M306.99,280.08c-5.57-6.43-11.44-9.84-11.44-12.81c0-5.64,13.84-9.19,13.84-28.45
		c0-16.25-13.17-29.42-29.42-29.42c-16.25,0-29.42,13.17-29.42,29.42c0,19.26,13.84,22.81,13.84,28.45c0,2.97-5.88,6.38-11.44,12.81
		c-6.05,6.56-9.76,15.31-9.76,24.94v40.87h73.55v-40.87C316.75,295.39,313.05,286.63,306.99,280.08z"/>
</g>
</svg>
