<svg xmlns="http://www.w3.org/2000/svg" width="251.705" height="303.06" viewBox="0 0 251.705 303.06"><g transform="translate(-156 -137.041)"><path d="M514.729,392.149h-139.4L319.178,448.3V569.357a125.852,125.852,0,0,0,251.7,0V448.3Z" transform="translate(-163.178 -255.108)" fill="#fff"/><path d="M523.945,553.712a94.561,94.561,0,0,1-189.121,0V445.62h0l37.823-37.826H486.122V445.62h37.823Z" transform="translate(-147.532 -239.464)" fill="#6cca8e"/><path d="M425.852,499.588c-5.362-6.194-11.026-9.48-11.026-12.34,0-5.434,13.34-8.854,13.34-27.408a28.346,28.346,0,0,0-56.691,0c0,18.554,13.338,21.974,13.338,27.408,0,2.86-5.662,6.146-11.024,12.34a35.293,35.293,0,0,0-9.4,24.03v39.373h70.863V523.618A35.3,35.3,0,0,0,425.852,499.588Z" transform="translate(-117.968 -215.763)" fill="#0d2d33"/></g></svg>