<svg xmlns="http://www.w3.org/2000/svg" width="33.836" height="33" viewBox="0 0 33.836 33"><path d="M-1579.132,1054.761a16.918,16.918,0,0,0-16.917,16.919,16.921,16.921,0,0,0,11.57,16.053c.846.156,1.155-.368,1.155-.816,0-.4-.015-1.466-.023-2.877-4.706,1.022-5.7-2.269-5.7-2.269a4.479,4.479,0,0,0-1.879-2.474c-1.536-1.05.117-1.029.117-1.029a3.555,3.555,0,0,1,2.59,1.743,3.6,3.6,0,0,0,4.924,1.406,3.611,3.611,0,0,1,1.074-2.262c-3.756-.427-7.706-1.879-7.706-8.361a6.54,6.54,0,0,1,1.741-4.54,6.089,6.089,0,0,1,.166-4.477s1.42-.455,4.652,1.734a16.245,16.245,0,0,1,4.236-.569,16.271,16.271,0,0,1,4.236.569c3.229-2.189,4.647-1.734,4.647-1.734a6.077,6.077,0,0,1,.169,4.477,6.529,6.529,0,0,1,1.738,4.54c0,6.5-3.955,7.928-7.725,8.348a4.034,4.034,0,0,1,1.149,3.133c0,2.262-.021,4.086-.021,4.641,0,.453.305.979,1.163.813a16.924,16.924,0,0,0,11.561-16.05A16.919,16.919,0,0,0-1579.132,1054.761Z" transform="translate(1596.048 -1054.761)" fill="#939598" fill-rule="evenodd"/></svg>