<svg xmlns="http://www.w3.org/2000/svg" width="31.004" height="31.004" viewBox="0 0 31.004 31.004"><g transform="translate(-1662.616 -44)"><rect width="31.004" height="31.004" transform="translate(1662.616 44)" fill="#939598"/><path d="M-1527.262,1065a.81.81,0,0,0-.262-.681l-1.945-2.342v-.351h6.039l4.667,10.236,4.1-10.236h5.756v.351l-1.662,1.594a.484.484,0,0,0-.185.466v11.713a.485.485,0,0,0,.185.466l1.624,1.594v.351h-8.168v-.351l1.682-1.632c.165-.166.165-.214.165-.466v-9.469l-4.677,11.879h-.632l-5.446-11.879v7.962a1.1,1.1,0,0,0,.3.913l2.188,2.654v.35h-6.2v-.35l2.187-2.654a1.062,1.062,0,0,0,.282-.913Z" transform="translate(3197.277 -1010.632)" fill="#f1f2f2"/></g></svg>