<?xml version="1.0" encoding="utf-8"?>
<!-- Generator: Adobe Illustrator 24.2.1, SVG Export Plug-In . SVG Version: 6.00 Build 0)  -->
<svg version="1.1" id="Layer_1" xmlns="http://www.w3.org/2000/svg" xmlns:xlink="http://www.w3.org/1999/xlink" x="0px" y="0px"
	 viewBox="0 0 297.9 39.7" style="enable-background:new 0 0 297.9 39.7;" xml:space="preserve">
<style type="text/css">
	.st0{fill:#0D2D33;}
	.st1{fill:#6CCA8E;}
	.st2{enable-background:new    ;}
</style>
<g transform="translate(-7320.327 -1333.671)">
	<g>
		<path class="st0" d="M7346,1333.7h-18.3l-7.4,7.4v15.9c-0.2,9.1,7,16.7,16.1,16.9c9.1,0.2,16.7-7,16.9-16.1c0-0.2,0-0.5,0-0.7
			V1341L7346,1333.7z"/>
	</g>
	<g>
		<path class="st1" d="M7349.2,1356.9c0,6.8-5.5,12.4-12.4,12.4s-12.4-5.5-12.4-12.4v-14.2l0,0l5-5h14.9v5h5V1356.9z"/>
	</g>
	<g>
		<path class="st0" d="M7340.2,1352.9c-0.7-0.8-1.4-1.2-1.4-1.6c0-0.7,1.7-1.2,1.7-3.6c0-2.1-1.7-3.7-3.7-3.7
			c-2.1,0-3.7,1.7-3.7,3.7c0,2.4,1.7,2.9,1.7,3.6c0,0.4-0.7,0.8-1.4,1.6c-0.8,0.9-1.2,2-1.2,3.1v5.2h9.3v-5.2
			C7341.5,1354.9,7341,1353.8,7340.2,1352.9z"/>
	</g>
	<g class="st2">
		<path class="st0" d="M7382.7,1342.6v2.9h-5.3v15.7h-3.3v-15.7h-5.3v-2.9H7382.7z"/>
		<path class="st0" d="M7396.5,1354.1v7.1h-3.1v-6.9c0-2-1.2-3.1-2.6-3.1c-1.4,0-3.2,0.8-3.2,3.3v6.7h-3.1v-19.5h3.1v8.8
			c0.6-1.5,2.7-2.2,3.9-2.2C7394.7,1348.3,7396.5,1350.5,7396.5,1354.1z"/>
		<path class="st0" d="M7411.8,1356h-9.8c0.4,1.8,1.7,2.7,3.6,2.7c1.4,0,2.7-0.6,3.4-1.6l2.1,1.6c-1.2,1.8-3.4,2.9-5.7,2.9
			c-3.8,0-6.6-2.7-6.6-6.7c0-4,3-6.6,6.6-6.6c3.6,0,6.4,2.6,6.4,6.5C7411.9,1355.1,7411.9,1355.5,7411.8,1356z M7408.8,1353.8
			c-0.2-1.7-1.5-2.8-3.3-2.8c-1.7,0-3.1,0.8-3.4,2.8H7408.8z"/>
		<path class="st0" d="M7428.1,1342.6c5.3,0,8.4,4.1,8.4,9.4c0,5.3-3.1,9.3-8.4,9.3h-7.3v-18.6H7428.1z M7428.1,1358.3
			c3.4,0,5.1-2.9,5.1-6.3c0-3.5-1.7-6.4-5.1-6.4h-4v12.7H7428.1z"/>
		<path class="st0" d="M7438.5,1344.1c0-1.1,0.9-1.9,2.1-1.9c1.1,0,2,0.8,2,1.9c0,1.1-0.9,1.9-2,1.9
			C7439.5,1346,7438.5,1345.2,7438.5,1344.1z M7439,1361.2v-12.6h3.1v12.6H7439z"/>
		<path class="st0" d="M7455,1348.6h3.1v11c0,5.7-2.8,8.1-7.1,8.1c-2.6,0-4.9-1.4-6-3.7l2.6-1.2c0.6,1.2,2,2,3.4,2
			c2.4,0,3.9-1.4,3.9-5v-0.3c-0.9,1.3-2.7,2-4.2,2c-3.3,0-6.2-2.6-6.2-6.7c0-4.1,2.9-6.6,6.2-6.6c1.6,0,3.3,0.7,4.2,2V1348.6z
			 M7454.9,1354.9c0-2.2-1.8-3.7-3.7-3.7c-1.9,0-3.5,1.6-3.5,3.7s1.6,3.8,3.5,3.8C7453.2,1358.6,7454.9,1357.1,7454.9,1354.9z"/>
		<path class="st0" d="M7460.8,1344.1c0-1.1,0.9-1.9,2.1-1.9c1.1,0,2,0.8,2,1.9c0,1.1-0.9,1.9-2,1.9
			C7461.8,1346,7460.8,1345.2,7460.8,1344.1z M7461.3,1361.2v-12.6h3.1v12.6H7461.3z"/>
		<path class="st0" d="M7474.6,1348.6v2.5h-2.7v10.1h-3.1v-10.1h-2.3v-2.5h2.3v-4.7h3.1v4.7H7474.6z"/>
		<path class="st0" d="M7485.9,1348.6h3.1v12.6h-3.1v-2c-0.8,1.4-2.5,2.3-4.3,2.3c-3.4,0-6.1-2.7-6.1-6.7c0-3.8,2.6-6.6,6.2-6.6
			c1.7,0,3.4,0.8,4.2,2.1V1348.6z M7485.8,1354.9c0-2.2-1.8-3.7-3.7-3.7c-2,0-3.6,1.7-3.6,3.7c0,2,1.5,3.7,3.6,3.7
			C7484.1,1358.6,7485.8,1357,7485.8,1354.9z"/>
		<path class="st0" d="M7492.2,1361.2v-19.5h3.1v19.5H7492.2z"/>
		<path class="st0" d="M7504,1355.8h3.3c0,1.5,1.4,2.8,3.5,2.8c1.9,0,3.1-1.2,3.1-2.6c0-1.3-1.1-2.1-2.7-2.5l-2.3-0.6
			c-4-1-4.7-3.4-4.7-5.1c0-3.3,2.9-5.5,6.3-5.5c3.4,0,6.1,2.1,6.1,5.6h-3.3c0-1.5-1.2-2.7-2.9-2.7c-1.6,0-2.9,1.1-2.9,2.5
			c0,0.5,0.2,1.6,2.3,2.2l2.2,0.6c2.9,0.8,5.2,2.3,5.2,5.3c0,3.4-2.8,5.7-6.5,5.7C7506.7,1361.5,7504,1359,7504,1355.8z"/>
		<path class="st0" d="M7526.4,1348.6v2.5h-2.7v10.1h-3.1v-10.1h-2.3v-2.5h2.3v-4.7h3.1v4.7H7526.4z"/>
		<path class="st0" d="M7537.6,1348.6h3.1v12.6h-3.1v-2c-0.8,1.4-2.5,2.3-4.3,2.3c-3.4,0-6.1-2.7-6.1-6.7c0-3.8,2.6-6.6,6.2-6.6
			c1.7,0,3.4,0.8,4.2,2.1V1348.6z M7537.6,1354.9c0-2.2-1.8-3.7-3.7-3.7c-2,0-3.6,1.7-3.6,3.7c0,2,1.5,3.7,3.6,3.7
			C7535.9,1358.6,7537.6,1357,7537.6,1354.9z"/>
		<path class="st0" d="M7556.1,1354.1v7.1h-3.1v-6.9c0-2-1.2-3.1-2.6-3.1c-1.4,0-3.2,0.8-3.2,3.3v6.7h-3.1v-12.6h3.1v2
			c0.6-1.6,2.6-2.3,3.9-2.3C7554.3,1348.3,7556.1,1350.5,7556.1,1354.1z"/>
		<path class="st0" d="M7568.8,1341.7h3.1v19.5h-3.1v-1.7c-0.9,1.3-2.7,2-4.2,2c-3.3,0-6.2-2.6-6.2-6.7c0-4.1,2.9-6.6,6.2-6.6
			c1.6,0,3.4,0.6,4.2,2V1341.7z M7568.7,1354.9c0-2.2-1.8-3.7-3.7-3.7c-1.9,0-3.5,1.6-3.5,3.7s1.6,3.8,3.5,3.8
			C7567,1358.6,7568.7,1357.1,7568.7,1354.9z"/>
		<path class="st0" d="M7584.7,1348.6h3.1v12.6h-3.1v-2c-0.8,1.4-2.5,2.3-4.3,2.3c-3.4,0-6.1-2.7-6.1-6.7c0-3.8,2.6-6.6,6.2-6.6
			c1.7,0,3.4,0.8,4.2,2.1V1348.6z M7584.7,1354.9c0-2.2-1.8-3.7-3.7-3.7c-2,0-3.6,1.7-3.6,3.7c0,2,1.5,3.7,3.6,3.7
			C7583,1358.6,7584.7,1357,7584.7,1354.9z"/>
		<path class="st0" d="M7599.9,1348.7l-0.6,3c-0.7-0.4-1.4-0.5-1.8-0.5c-2.1,0-3.2,2.1-3.2,5.6v4.4h-3.2v-12.6h3.1v2.7
			c0.7-2.1,2.1-3,3.6-3C7598.6,1348.3,7599.4,1348.4,7599.9,1348.7z"/>
		<path class="st0" d="M7610.7,1341.7h3.1v19.5h-3.1v-1.7c-0.9,1.3-2.7,2-4.2,2c-3.3,0-6.2-2.6-6.2-6.7c0-4.1,2.9-6.6,6.2-6.6
			c1.6,0,3.4,0.6,4.2,2V1341.7z M7610.6,1354.9c0-2.2-1.8-3.7-3.7-3.7c-1.9,0-3.5,1.6-3.5,3.7s1.6,3.8,3.5,3.8
			C7608.9,1358.6,7610.6,1357.1,7610.6,1354.9z"/>
	</g>
</g>
</svg>
